<svg width="37" height="40" viewBox="0 0 37 40" fill="none" xmlns="http://www.w3.org/2000/svg">
<g clip-path="url(#clip0)">
<path d="M15.1835 20.3489H11.426C11.3877 20.3489 11.3685 20.3678 11.3493 20.4055C11.2535 22.084 10.9276 23.8756 10.4674 25.3466C10.4674 25.3654 10.4674 25.3843 10.4866 25.4032C10.5058 25.422 10.525 25.422 10.5441 25.422H11.8286C11.8669 25.422 11.8861 25.4032 11.8861 25.3843C12.2503 24.2528 12.5379 22.7817 12.6529 21.537H13.8799V25.3654C13.8799 25.4032 13.9182 25.4409 13.9566 25.4409H15.1835C15.2219 25.4409 15.2602 25.4032 15.2602 25.3654V20.4055C15.2602 20.3678 15.2219 20.3489 15.1835 20.3489ZM31.0763 20.3489H29.8493C29.811 20.3489 29.7726 20.3866 29.7726 20.4244V24.2528C29.5042 24.3282 29.2358 24.3659 28.9291 24.3659C28.1239 24.3659 27.9322 24.1207 27.9322 23.0646V20.4244C27.9322 20.3866 27.8939 20.3489 27.8555 20.3489H26.6478C26.6094 20.3489 26.5711 20.3866 26.5711 20.4244V23.1966C26.5711 24.9317 27.1654 25.5917 28.6799 25.5917C29.5426 25.5917 30.5203 25.3654 31.0954 25.158C31.1146 25.1391 31.1338 25.1203 31.1338 25.1014V20.4244C31.1529 20.3678 31.1146 20.3489 31.0763 20.3489ZM5.0804 20.3489H3.83429C3.79595 20.3489 3.77677 20.3678 3.77677 20.4055C3.58506 21.1599 3.18247 22.4423 2.64569 23.7813L1.39957 20.4055C1.3804 20.3866 1.36123 20.3678 1.34206 20.3678H0.076774C0.057603 20.3678 0.038432 20.3866 0.0192611 20.4055C9.00668e-05 20.4244 9.00668e-05 20.4432 0.0192611 20.4621L1.89802 25.5163C1.70631 25.9123 1.53377 26.2329 1.36123 26.5347C1.22703 26.761 1.11201 26.9873 0.996981 27.2136C0.97781 27.2325 0.97781 27.2513 0.996981 27.2702C1.01615 27.2891 1.03532 27.3079 1.05449 27.3079H2.41563C2.43481 27.3079 2.47315 27.2891 2.47315 27.2702C2.7032 26.8364 2.99076 26.233 3.25916 25.6106C4.06434 23.7624 4.69698 22.0274 5.17626 20.4432C5.17626 20.4244 5.17626 20.4055 5.15708 20.3866C5.11874 20.3489 5.09957 20.3489 5.0804 20.3489ZM9.54724 24.2528C9.54724 24.2339 9.52807 24.215 9.5089 24.215H9.45139C9.14465 24.3282 8.58869 24.4036 8.20527 24.4036C7.34258 24.4036 6.93999 24.1773 6.93999 22.8949C6.93999 21.8577 7.07418 21.3862 8.20527 21.3862C8.53118 21.3862 8.81874 21.4239 9.20216 21.537C9.2405 21.537 9.25968 21.537 9.27885 21.4993C9.41304 21.2353 9.58558 20.9147 9.77729 20.5187V20.4621C9.77729 20.4432 9.75812 20.4244 9.73895 20.4244C9.2405 20.2735 8.6462 20.1792 8.10942 20.1792C6.32651 20.1792 5.52133 21.009 5.52133 22.876C5.52133 24.7619 6.32651 25.6106 8.10942 25.6106C8.55035 25.6106 9.45139 25.5163 9.87315 25.3466C9.91149 25.3277 9.93066 25.29 9.91149 25.2523L9.54724 24.2528ZM21.2224 20.3489H19.9763C19.9379 20.3489 19.9187 20.3678 19.9187 20.4055C19.727 21.1787 19.3244 22.4423 18.7877 23.7813L17.5415 20.4055C17.5224 20.3866 17.5032 20.3678 17.484 20.3678H16.2187C16.1996 20.3678 16.1804 20.3866 16.1612 20.4055C16.1421 20.4244 16.1421 20.4432 16.1612 20.4621L18.04 25.5163C17.8483 25.9123 17.6757 26.2329 17.5032 26.5347C17.369 26.761 17.254 26.9873 17.139 27.2325C17.1198 27.2513 17.1198 27.2702 17.139 27.2891C17.1581 27.3079 17.1773 27.3268 17.1965 27.3268H18.5576C18.5768 27.3268 18.6151 27.3079 18.6151 27.2891C18.8452 26.8553 19.1327 26.2518 19.4011 25.6295C20.1871 23.7813 20.8389 22.0462 21.3182 20.4621C21.3182 20.4432 21.3182 20.4244 21.2991 20.4055C21.2607 20.3489 21.2415 20.3489 21.2224 20.3489ZM25.8234 20.3489H22.2001C22.1617 20.3489 22.1234 20.3866 22.1234 20.4244V25.3843C22.1234 25.422 22.1617 25.4597 22.2001 25.4597H23.427C23.4654 25.4597 23.5037 25.422 23.5037 25.3843V21.5559H25.4016C25.4208 21.5559 25.4592 21.537 25.4592 21.5182C25.6125 21.1787 25.7467 20.8204 25.9001 20.4621V20.4055C25.8618 20.3489 25.8426 20.3489 25.8234 20.3489Z" fill="#EF4058"/>
<path d="M6.53731 12.7299C4.77357 12.7299 4.08342 13.4842 4.08342 15.389C4.08342 17.3315 4.77357 18.0858 6.53731 18.0858C8.32021 18.0858 9.01036 17.3315 9.01036 15.389C9.01036 13.4654 8.32021 12.7299 6.53731 12.7299ZM6.53731 16.9731C5.73212 16.9731 5.4829 16.7657 5.4829 15.4078C5.4829 13.9746 5.7513 13.8425 6.53731 13.8425C7.34249 13.8425 7.61088 13.9746 7.61088 15.4078C7.61088 16.7657 7.36166 16.9731 6.53731 16.9731ZM13.9181 16.7657C13.9181 16.7468 13.899 16.728 13.8798 16.728H13.8223C13.5155 16.8411 12.9596 16.9166 12.5762 16.9166C11.7135 16.9166 11.3109 16.6903 11.3109 15.4078C11.3109 14.3706 11.4451 13.8991 12.5762 13.8991C12.9021 13.8991 13.1896 13.9368 13.5731 14.05C13.6114 14.05 13.6306 14.05 13.6497 14.0123C13.7839 13.7482 13.9565 13.4276 14.1482 13.0316V12.975C14.1482 12.9562 14.129 12.9373 14.1098 12.9373C13.6114 12.7864 13.0171 12.6921 12.4803 12.6921C10.6974 12.6921 9.89223 13.5219 9.89223 15.389C9.89223 17.2749 10.6974 18.1235 12.4803 18.1235C12.9212 18.1235 13.8223 18.0292 14.244 17.8595C14.2824 17.8407 14.3016 17.8029 14.2824 17.7652L13.9181 16.7657ZM3.7 12.8619H0.0766839C0.038342 12.8619 0 12.8996 0 12.9373V17.8972C0 17.9349 0.038342 17.9727 0.0766839 17.9727H1.30363C1.34197 17.9727 1.38031 17.9349 1.38031 17.8972V14.05H3.25907C3.27824 14.05 3.31658 14.0311 3.31658 14.0123C3.46995 13.6728 3.60415 13.3145 3.75751 12.9562V12.8996C3.73834 12.8807 3.71917 12.8619 3.7 12.8619Z" fill="#1466AC"/>
<path d="M36.8081 24.9128V24.8373C36.8081 24.7996 36.8081 24.743 36.8272 24.7053C36.8847 24.0075 36.9231 23.1589 36.9614 22.1782V22.1028C36.9806 21.4427 36.9998 20.7261 36.9998 19.9906C36.9998 19.2551 36.9806 18.5384 36.9614 17.8784V17.8029C36.9231 16.8411 36.8847 15.9736 36.8272 15.2758C36.8272 15.2381 36.8272 15.1815 36.8081 15.1438V15.0684C36.8081 14.9929 36.7889 14.9364 36.7889 14.8609V14.7855C36.7314 14.05 36.693 13.5974 36.6739 13.5596C36.6739 13.4842 36.6547 13.4088 36.6547 13.3522V13.2956C36.6355 13.1636 36.6163 13.0504 36.578 12.9184C36.578 12.8996 36.578 12.8807 36.5588 12.8619C36.2329 11.3343 35.3702 9.65582 34.2967 8.39227C33.8749 7.90193 33.434 7.46818 32.9739 7.12871C32.9355 7.09099 32.3987 6.71381 31.5552 6.12918C30.5775 5.46912 29.178 4.54503 27.5868 3.63979C24.7495 1.99906 22.2381 0.848656 21.893 0.716643C21.8739 0.716643 21.8739 0.697784 21.8739 0.697784C21.1262 0.377181 20.2252 0.150872 19.2474 0.0565771C19.0557 0.0377181 18.864 0.018859 18.6723 0.018859C18.4806 0 18.3081 0 18.1355 0H17.8671C16.5635 0.0377181 15.3557 0.264026 14.3972 0.697784C14.263 0.754361 11.7132 1.90476 8.81842 3.58322L8.7034 3.63979C5.73189 5.35596 3.4122 7.05328 3.31635 7.12871C2.58785 7.65677 1.93604 8.33569 1.34174 9.20321C1.20754 9.3918 1.20754 9.88213 1.78267 9.88213H3.25884C3.89148 9.88213 4.04485 9.50495 4.75417 8.99576C5.54018 8.42999 7.09303 7.29844 9.93034 5.63885C11.9816 4.45073 13.8987 3.50778 14.8381 3.07402C14.8573 3.07402 14.8765 3.05516 14.8956 3.05516C14.8956 3.05516 14.9148 3.05516 14.9148 3.0363C14.9148 3.0363 14.934 3.0363 14.934 3.01744C14.9531 3.01744 14.9723 2.99859 14.9723 2.99859C14.9915 2.99859 15.0106 2.97973 15.0298 2.97973C15.2599 2.86657 15.4132 2.81 15.4132 2.81C16.0651 2.52711 16.9853 2.33852 17.963 2.31966H18.3464C18.634 2.31966 18.9215 2.33852 19.1899 2.37624C19.7842 2.45167 20.321 2.56483 20.7619 2.75342C20.8003 2.77228 20.8578 2.79114 20.8961 2.81C20.8961 2.81 20.9153 2.82885 20.9728 2.84771C21.4138 3.0363 23.791 4.14899 26.379 5.63885C27.9127 6.52522 29.2739 7.4116 30.2132 8.05281C31.0376 8.61858 31.536 8.9769 31.5552 8.99576C31.9195 9.25978 32.2837 9.63696 32.6288 10.0519C33.4915 11.1457 34.2008 12.6355 34.3158 13.7859C34.3158 13.8048 34.3733 14.2574 34.4309 15.0306C34.4309 15.0872 34.4309 15.1249 34.45 15.1815V15.2947C34.45 15.3701 34.4692 15.4267 34.4692 15.5021V15.5776C34.4692 15.6153 34.4692 15.6719 34.4884 15.7096C34.4884 15.8039 34.5075 15.8982 34.5075 15.9925C34.5075 16.049 34.5075 16.1056 34.5267 16.1622V16.1999C34.5267 16.2753 34.5267 16.3319 34.5459 16.4074V16.5582C34.6034 17.5389 34.6417 18.7082 34.6417 19.934C34.6417 21.1598 34.6034 22.3291 34.5459 23.3098V23.4606C34.5459 23.5361 34.5459 23.5926 34.5267 23.6681V23.7058C34.5267 23.7624 34.5267 23.819 34.5075 23.8755C34.5075 23.9698 34.4884 24.0641 34.4884 24.1584C34.4884 24.215 34.4884 24.2527 34.4692 24.2904V24.3659C34.4692 24.4413 34.45 24.4979 34.45 24.5733V24.6865C34.45 24.743 34.45 24.7996 34.4309 24.8373C34.3733 25.6106 34.3158 26.082 34.3158 26.082C34.2008 27.2324 33.4915 28.7223 32.6288 29.8161C32.2837 30.2499 31.9195 30.6082 31.5552 30.8722C31.536 30.8722 31.0376 31.2494 30.2132 31.8152C29.2739 32.4564 27.8936 33.3428 26.379 34.2291C23.791 35.7379 21.3946 36.8317 20.9728 37.0203L20.8961 37.058C20.8578 37.0769 20.8003 37.0957 20.7619 37.1146C20.321 37.2843 19.7842 37.4163 19.1899 37.4917C18.9215 37.5295 18.634 37.5483 18.3464 37.5483H17.963C16.9853 37.5295 16.0651 37.3597 15.4132 37.058C15.4132 37.058 15.279 37.0014 15.0298 36.8883C15.0106 36.8694 14.9723 36.8694 14.9531 36.8505C14.934 36.8317 14.9148 36.8317 14.8956 36.8128C14.8765 36.8128 14.8765 36.794 14.8573 36.794C14.8381 36.794 14.8189 36.7751 14.7998 36.7751C14.7806 36.7562 14.7614 36.7562 14.7231 36.7374H14.7039C13.7262 36.3602 11.8858 35.455 9.93034 34.3234C7.07386 32.6827 5.54018 31.5323 4.75417 30.9665C4.04485 30.4573 3.89148 30.0802 3.25884 30.0802H1.78267C1.20754 30.0802 1.20754 30.5705 1.34174 30.7591C1.93604 31.6266 2.58785 32.3055 3.31635 32.8336C3.4122 32.909 5.75106 34.6063 8.7034 36.3225C8.85676 36.4168 9.01013 36.5111 9.18267 36.5865C11.9241 38.133 14.2822 39.1891 14.4163 39.2645C15.3557 39.6794 16.5827 39.9246 17.8863 39.9623H18.1547C18.3272 39.9623 18.4998 39.9623 18.6723 39.9434C18.864 39.9434 19.0557 39.9246 19.2474 39.9057C20.2252 39.8114 21.1454 39.5851 21.8739 39.2645C21.8739 39.2645 21.893 39.2645 21.893 39.2456C22.2189 39.0948 24.7495 37.9444 27.5676 36.3225C29.1588 35.3984 30.5583 34.4932 31.536 33.8331C32.3796 33.2485 32.9163 32.8713 32.9547 32.8336C33.4148 32.4941 33.8557 32.0603 34.2775 31.57C35.3511 30.3065 36.2138 28.628 36.5397 27.1004C36.5397 27.0816 36.5397 27.0627 36.5588 27.0438C36.578 26.9118 36.6163 26.7798 36.6355 26.6667V26.6101C36.6547 26.5347 36.6547 26.4592 36.6547 26.4026C36.6547 26.3649 36.7122 25.9123 36.7697 25.1768V25.1014C36.8081 25.0448 36.8081 24.9882 36.8081 24.9128Z" fill="url(#paint0_linear)"/>
</g>
<defs>
<linearGradient id="paint0_linear" x1="19.1336" y1="0" x2="19.1336" y2="39.9968" gradientUnits="userSpaceOnUse">
<stop offset="0.398" stop-color="#1466AC"/>
<stop offset="0.659" stop-color="#EF4058"/>
</linearGradient>
<clipPath id="clip0">
<rect width="37" height="40" fill="white"/>
</clipPath>
</defs>
</svg>
