<svg width="179" height="58" viewBox="0 0 179 58" fill="none" xmlns="http://www.w3.org/2000/svg">
<path d="M64.126 4.70725H67.4356V11.1473H68.7595L73.7019 4.70725H77.3645L71.2969 12.1868L77.5852 20.5249H73.7019L68.7595 13.633H67.4356V20.5249H64.126V4.70725Z" fill="#221F20"/>
<path d="M80.5595 25.3155C80.3389 25.3155 80.1182 25.2929 79.8976 25.2477V22.7168C80.1182 22.762 80.3389 22.7846 80.5595 22.7846C81.0008 22.7846 81.3391 22.6114 81.5745 22.2649C81.8245 21.9335 82.104 21.3535 82.4129 20.5249L77.4705 8.54869H80.736L83.9133 16.8191L86.8258 8.54869H89.8265L85.3254 20.5249C85.0018 21.3686 84.6929 22.0917 84.3987 22.6942C84.1192 23.3119 83.803 23.809 83.4499 24.1856C83.0969 24.5773 82.6924 24.8635 82.2364 25.0443C81.7804 25.2251 81.2215 25.3155 80.5595 25.3155Z" fill="#221F20"/>
<path d="M96.6682 20.7961C95.8444 20.7961 95.0795 20.653 94.3735 20.3668C93.6821 20.0805 93.079 19.6512 92.5642 19.0788C92.0494 18.4912 91.6449 17.7757 91.3507 16.9321C91.0712 16.0734 90.9315 15.0791 90.9315 13.9493V13.4296C90.9315 12.0738 91.0271 10.8686 91.2183 9.81411C91.4242 8.75959 91.7552 7.86326 92.2112 7.1251C92.6819 6.38694 93.2997 5.81449 94.0646 5.40775C94.8442 4.98594 95.815 4.74491 96.9771 4.68465C97.433 4.66959 97.8817 4.65453 98.323 4.63946C98.7643 4.6244 99.1835 4.6018 99.5806 4.57167C99.9778 4.54154 100.338 4.49635 100.662 4.43609C100.985 4.36077 101.272 4.26285 101.522 4.14233V6.78615C101.287 6.92173 100.846 7.03471 100.198 7.1251C99.5659 7.21549 98.6025 7.26821 97.308 7.28328C96.6461 7.29834 96.0724 7.3812 95.587 7.53184C95.1163 7.66742 94.7191 7.89339 94.3955 8.20974C94.0866 8.51103 93.8366 8.91024 93.6454 9.40737C93.4688 9.9045 93.3438 10.5146 93.2703 11.2377C93.6086 10.5598 94.1161 10.0099 94.7927 9.58814C95.4693 9.16634 96.3519 8.95543 97.4404 8.95543C98.1759 8.95543 98.8452 9.07595 99.4483 9.31698C100.051 9.54295 100.574 9.8819 101.015 10.3338C101.456 10.7858 101.794 11.3432 102.03 12.006C102.28 12.6688 102.405 13.4371 102.405 14.3109V14.7402C102.405 15.6893 102.258 16.5404 101.964 17.2936C101.684 18.0468 101.287 18.6871 100.772 19.2143C100.257 19.7265 99.6468 20.1182 98.9408 20.3894C98.2494 20.6605 97.4919 20.7961 96.6682 20.7961ZM96.6682 18.2653C97.5507 18.2653 98.2347 17.9715 98.7201 17.384C99.2055 16.7814 99.4483 15.9303 99.4483 14.8306V14.3786C99.4483 13.4296 99.1982 12.6839 98.6981 12.1416C98.1979 11.5992 97.5213 11.3281 96.6682 11.3281C95.8297 11.3281 95.1531 11.5992 94.6382 12.1416C94.1381 12.6839 93.8881 13.4296 93.8881 14.3786V14.7854C93.8881 15.3277 93.9543 15.8173 94.0866 16.2542C94.2337 16.691 94.4323 17.0601 94.6824 17.3614C94.9324 17.6476 95.2266 17.8736 95.5649 18.0393C95.9033 18.19 96.271 18.2653 96.6682 18.2653Z" fill="#221F20"/>
<path d="M104.936 4.70725H115.086V7.50924H108.246V20.5249H104.936V4.70725Z" fill="#221F20"/>
<path d="M117.283 4.70725H120.592L125.292 13.6104L129.97 4.70725H133.169V20.5249H129.859V10.4694L126.219 17.3614H124.233L120.592 10.4694V20.5249H117.283V4.70725Z" fill="#221F20"/>
<path d="M139.455 20.7961C139.293 20.7961 139.131 20.7886 138.969 20.7735C138.822 20.7584 138.69 20.7434 138.572 20.7283V18.0393C138.69 18.0544 138.822 18.0694 138.969 18.0845C139.131 18.0845 139.293 18.0845 139.455 18.0845C139.778 18.0845 140.036 18.0544 140.227 17.9941C140.433 17.9339 140.602 17.8435 140.734 17.723C140.867 17.5874 140.984 17.4217 141.087 17.2258C141.19 17.0149 141.308 16.7664 141.44 16.4801L135.152 4.70725H138.727L143.051 13.181L146.493 4.70725H149.935L144.706 16.9095C144.397 17.6175 144.081 18.2201 143.757 18.7172C143.448 19.1993 143.095 19.5985 142.698 19.9148C142.301 20.2161 141.838 20.4346 141.308 20.5701C140.793 20.7208 140.175 20.7961 139.455 20.7961Z" fill="#221F20"/>
<path d="M63.8275 33.3835H64.8023V35.7554H65.3709L67.4341 33.3835H68.5389L66.1426 36.0792L68.6201 39.0502H67.4341L65.3709 36.5164H64.8023V39.0502H63.8275V33.3835Z" fill="#221F20"/>
<path d="M69.7576 40.7583C69.6764 40.7583 69.5952 40.7502 69.5139 40.734V39.9569C69.5952 39.9731 69.6764 39.9812 69.7576 39.9812C69.8497 39.9812 69.9255 39.965 69.9851 39.9326C70.0501 39.9056 70.1069 39.8543 70.1557 39.7788C70.2098 39.7086 70.2613 39.6142 70.31 39.4954C70.3642 39.3767 70.4237 39.2283 70.4887 39.0502L68.661 34.7597H69.6358L70.9517 38.0788L72.1377 34.7597H73.0475L71.3822 39.0502C71.2631 39.3524 71.1521 39.6115 71.0492 39.8273C70.9463 40.0432 70.8326 40.2186 70.708 40.3535C70.5889 40.4939 70.4535 40.5964 70.3019 40.6612C70.1502 40.7259 69.9688 40.7583 69.7576 40.7583Z" fill="#221F20"/>
<path d="M75.6475 39.1392C75.355 39.1392 75.0816 39.0853 74.827 38.9773C74.5725 38.8694 74.3532 38.7129 74.1691 38.5078C73.985 38.2973 73.8387 38.041 73.7304 37.7388C73.6275 37.4311 73.5761 37.0803 73.5761 36.6864V36.5245C73.5761 36.0387 73.6113 35.607 73.6817 35.2292C73.7521 34.8514 73.8712 34.5303 74.0391 34.2659C74.2124 33.996 74.4398 33.7882 74.7214 33.6425C75.0085 33.4914 75.3632 33.4051 75.7856 33.3835C76.1267 33.3673 76.4354 33.3538 76.7116 33.343C76.9878 33.3268 77.2152 33.2728 77.3939 33.1811V33.9987C77.3073 34.0473 77.1475 34.0878 76.9147 34.1202C76.6818 34.1471 76.346 34.166 75.9074 34.1768C75.6529 34.1822 75.4309 34.2119 75.2413 34.2659C75.0572 34.3198 74.9001 34.4062 74.7702 34.5249C74.6456 34.6437 74.5454 34.8002 74.4696 34.9944C74.3992 35.1833 74.3532 35.4154 74.3315 35.6906C74.4561 35.437 74.651 35.2319 74.9164 35.0754C75.1872 34.9135 75.5121 34.8325 75.8912 34.8325C76.1565 34.8325 76.4002 34.8784 76.6222 34.9702C76.8497 35.0565 77.0446 35.186 77.2071 35.3587C77.3695 35.526 77.4941 35.7338 77.5807 35.9821C77.6728 36.2249 77.7188 36.5002 77.7188 36.8078V36.994C77.7188 37.3286 77.6647 37.6308 77.5564 37.9007C77.4535 38.1651 77.31 38.3891 77.1259 38.5726C76.9417 38.7561 76.7224 38.8964 76.4679 38.9935C76.2188 39.0907 75.9453 39.1392 75.6475 39.1392ZM75.6475 38.3621C75.9995 38.3621 76.2811 38.2461 76.4923 38.014C76.7035 37.7819 76.8091 37.4419 76.8091 36.994V36.8078C76.8091 36.43 76.7008 36.1359 76.4841 35.9254C76.2729 35.7149 75.994 35.6097 75.6475 35.6097C75.3009 35.6097 75.0193 35.7149 74.8027 35.9254C74.5915 36.1305 74.4859 36.4246 74.4859 36.8078V36.994C74.4859 37.2099 74.5157 37.4041 74.5752 37.5768C74.6348 37.7442 74.716 37.8872 74.8189 38.0059C74.9272 38.1192 75.0518 38.2083 75.1926 38.273C75.3334 38.3324 75.485 38.3621 75.6475 38.3621Z" fill="#221F20"/>
<path d="M79.8692 39.1392C79.6364 39.1392 79.4279 39.1069 79.2437 39.0421C79.065 38.9719 78.9134 38.8775 78.7889 38.7588C78.6643 38.6346 78.5695 38.4916 78.5046 38.3297C78.4396 38.1678 78.4071 37.9897 78.4071 37.7954C78.4071 37.3691 78.5343 37.0534 78.7889 36.8483C79.0434 36.6378 79.417 36.5326 79.9098 36.5326H81.2501V36.2978C81.2501 35.974 81.177 35.7527 81.0308 35.634C80.89 35.5098 80.6653 35.4478 80.3566 35.4478C80.0804 35.4478 79.8773 35.491 79.7474 35.5773C79.6174 35.6637 79.5416 35.7824 79.5199 35.9335H78.6508C78.6616 35.75 78.7076 35.5827 78.7889 35.4316C78.8755 35.2751 78.9919 35.1402 79.1381 35.0268C79.2898 34.9135 79.4712 34.8271 79.6824 34.7678C79.8936 34.703 80.1319 34.6706 80.3972 34.6706C80.6626 34.6706 80.9008 34.7003 81.112 34.7597C81.3287 34.819 81.5128 34.9135 81.6644 35.043C81.816 35.1671 81.9325 35.3291 82.0137 35.5287C82.1003 35.7284 82.1437 35.9686 82.1437 36.2492V37.9573C82.1437 38.184 82.1464 38.3837 82.1518 38.5564C82.1572 38.7237 82.1707 38.8883 82.1924 39.0502H81.3801C81.3639 38.9261 81.3503 38.8208 81.3395 38.7345C81.3341 38.6481 81.3314 38.5402 81.3314 38.4107C81.2285 38.6103 81.0498 38.783 80.7952 38.9288C80.5461 39.0691 80.2375 39.1392 79.8692 39.1392ZM80.1129 38.3621C80.2645 38.3621 80.408 38.3432 80.5434 38.3054C80.6842 38.2623 80.8061 38.2029 80.909 38.1273C81.0119 38.0464 81.0931 37.9492 81.1527 37.8359C81.2176 37.7172 81.2501 37.5822 81.2501 37.4311V37.1964H80.0723C79.8449 37.1964 79.6607 37.2449 79.5199 37.3421C79.3845 37.4392 79.3169 37.5822 79.3169 37.7711C79.3169 37.9492 79.3791 38.0922 79.5037 38.2002C79.6337 38.3081 79.8367 38.3621 80.1129 38.3621Z" fill="#221F20"/>
<path d="M83.2428 34.7597H84.1364V36.484H86.1671V34.7597H87.0606V39.0502H86.1671V37.2449H84.1364V39.0502H83.2428V34.7597Z" fill="#221F20"/>
<path d="M89.9878 39.1392C89.6954 39.1392 89.4246 39.0961 89.1755 39.0097C88.9318 38.918 88.7179 38.7804 88.5338 38.5969C88.3551 38.4134 88.2143 38.184 88.1114 37.9088C88.0085 37.6335 87.957 37.3124 87.957 36.9454V36.7835C87.957 36.4381 88.0112 36.1332 88.1195 35.8687C88.2278 35.6043 88.374 35.383 88.5581 35.2049C88.7477 35.0268 88.9643 34.8946 89.208 34.8083C89.4571 34.7165 89.717 34.6706 89.9878 34.6706C90.2694 34.6706 90.5185 34.7084 90.7351 34.784C90.9571 34.8595 91.144 34.9648 91.2956 35.0997C91.4526 35.2292 91.5772 35.383 91.6693 35.5611C91.7613 35.7392 91.8236 35.9308 91.8561 36.1359H90.9463C90.8922 35.9362 90.7947 35.7716 90.6539 35.6421C90.5131 35.5125 90.291 35.4478 89.9878 35.4478C89.8362 35.4478 89.6927 35.4748 89.5573 35.5287C89.4219 35.5773 89.3027 35.6556 89.1999 35.7635C89.097 35.8714 89.0157 36.0118 88.9562 36.1845C88.8966 36.3518 88.8668 36.5514 88.8668 36.7835V36.9454C88.8668 37.1991 88.8966 37.4176 88.9562 37.6011C89.0157 37.7792 89.097 37.9249 89.1999 38.0383C89.3027 38.1516 89.4219 38.2353 89.5573 38.2892C89.6927 38.3378 89.8362 38.3621 89.9878 38.3621C90.4914 38.3621 90.8109 38.1327 90.9463 37.674H91.8561C91.8128 37.9007 91.7369 38.1057 91.6286 38.2892C91.5258 38.4673 91.3931 38.6211 91.2306 38.7507C91.0682 38.8748 90.8813 38.9719 90.6701 39.0421C90.4589 39.1069 90.2315 39.1392 89.9878 39.1392Z" fill="#221F20"/>
<path d="M92.7065 34.7597H93.6V36.5002H94.0874L95.5983 34.7597H96.6055L94.7778 36.8078L96.6868 39.0502H95.5983L94.0874 37.2288H93.6V39.0502H92.7065V34.7597Z" fill="#221F20"/>
<path d="M97.4185 34.7597H98.312V37.7954L100.383 34.7597H101.236V39.0502H100.343V36.0145L98.2714 39.0502H97.4185V34.7597Z" fill="#221F20"/>
<path d="M102.376 34.7597H103.27V37.7954L105.341 34.7597H106.194V39.0502H105.301V36.0145L103.229 39.0502H102.376V34.7597ZM104.285 34.274C103.836 34.274 103.505 34.1768 103.294 33.9825C103.088 33.7829 102.986 33.5022 102.986 33.1406H103.814C103.814 33.3349 103.852 33.4752 103.928 33.5616C104.009 33.6479 104.128 33.6911 104.285 33.6911C104.442 33.6911 104.559 33.6479 104.635 33.5616C104.716 33.4752 104.756 33.3349 104.756 33.1406H105.585C105.585 33.5022 105.479 33.7829 105.268 33.9825C105.057 34.1768 104.729 34.274 104.285 34.274Z" fill="#221F20"/>
<path d="M109.365 34.7597H112.371V35.5206H110.259V39.0502H109.365V34.7597Z" fill="#221F20"/>
<path d="M114.89 39.1392C114.592 39.1392 114.314 39.0934 114.054 39.0016C113.799 38.9045 113.577 38.7642 113.388 38.5807C113.198 38.3972 113.049 38.1705 112.941 37.9007C112.832 37.6254 112.778 37.307 112.778 36.9454V36.7835C112.778 36.4435 112.832 36.144 112.941 35.8849C113.049 35.6205 113.198 35.3992 113.388 35.2211C113.577 35.0376 113.799 34.9 114.054 34.8083C114.314 34.7165 114.592 34.6706 114.89 34.6706C115.188 34.6706 115.464 34.7165 115.719 34.8083C115.979 34.9 116.204 35.0376 116.393 35.2211C116.583 35.3992 116.732 35.6205 116.84 35.8849C116.948 36.144 117.002 36.4435 117.002 36.7835V36.9454C117.002 37.307 116.948 37.6254 116.84 37.9007C116.732 38.1705 116.583 38.3972 116.393 38.5807C116.204 38.7642 115.979 38.9045 115.719 39.0016C115.464 39.0934 115.188 39.1392 114.89 39.1392ZM114.89 38.3621C115.047 38.3621 115.196 38.3351 115.337 38.2811C115.483 38.2272 115.611 38.1435 115.719 38.0302C115.833 37.9169 115.922 37.7711 115.987 37.593C116.057 37.4149 116.092 37.1991 116.092 36.9454V36.7835C116.092 36.5514 116.057 36.3518 115.987 36.1845C115.922 36.0172 115.833 35.8795 115.719 35.7716C115.611 35.6637 115.483 35.5827 115.337 35.5287C115.196 35.4748 115.047 35.4478 114.89 35.4478C114.733 35.4478 114.582 35.4748 114.435 35.5287C114.295 35.5827 114.167 35.6637 114.054 35.7716C113.945 35.8795 113.856 36.0172 113.786 36.1845C113.721 36.3518 113.688 36.5514 113.688 36.7835V36.9454C113.688 37.1991 113.721 37.4149 113.786 37.593C113.856 37.7711 113.945 37.9169 114.054 38.0302C114.167 38.1435 114.295 38.2272 114.435 38.2811C114.582 38.3351 114.733 38.3621 114.89 38.3621Z" fill="#221F20"/>
<path d="M119.68 39.1392C119.387 39.1392 119.117 39.0961 118.867 39.0097C118.624 38.918 118.41 38.7804 118.226 38.5969C118.047 38.4134 117.906 38.184 117.803 37.9088C117.7 37.6335 117.649 37.3124 117.649 36.9454V36.7835C117.649 36.4381 117.703 36.1332 117.811 35.8687C117.92 35.6043 118.066 35.383 118.25 35.2049C118.44 35.0268 118.656 34.8946 118.9 34.8083C119.149 34.7165 119.409 34.6706 119.68 34.6706C119.961 34.6706 120.21 34.7084 120.427 34.784C120.649 34.8595 120.836 34.9648 120.988 35.0997C121.145 35.2292 121.269 35.383 121.361 35.5611C121.453 35.7392 121.516 35.9308 121.548 36.1359H120.638C120.584 35.9362 120.487 35.7716 120.346 35.6421C120.205 35.5125 119.983 35.4478 119.68 35.4478C119.528 35.4478 119.385 35.4748 119.249 35.5287C119.114 35.5773 118.995 35.6556 118.892 35.7635C118.789 35.8714 118.708 36.0118 118.648 36.1845C118.589 36.3518 118.559 36.5514 118.559 36.7835V36.9454C118.559 37.1991 118.589 37.4176 118.648 37.6011C118.708 37.7792 118.789 37.9249 118.892 38.0383C118.995 38.1516 119.114 38.2353 119.249 38.2892C119.385 38.3378 119.528 38.3621 119.68 38.3621C120.183 38.3621 120.503 38.1327 120.638 37.674H121.548C121.505 37.9007 121.429 38.1057 121.321 38.2892C121.218 38.4673 121.085 38.6211 120.923 38.7507C120.76 38.8748 120.573 38.9719 120.362 39.0421C120.151 39.1069 119.923 39.1392 119.68 39.1392Z" fill="#221F20"/>
<path d="M122.938 40.7583C122.857 40.7583 122.776 40.7502 122.694 40.734V39.9569C122.776 39.9731 122.857 39.9812 122.938 39.9812C123.03 39.9812 123.106 39.965 123.166 39.9326C123.231 39.9056 123.287 39.8543 123.336 39.7788C123.39 39.7086 123.442 39.6142 123.49 39.4954C123.545 39.3767 123.604 39.2283 123.669 39.0502L121.842 34.7597H122.816L124.132 38.0788L125.318 34.7597H126.228L124.563 39.0502C124.444 39.3524 124.333 39.6115 124.23 39.8273C124.127 40.0432 124.013 40.2186 123.889 40.3535C123.769 40.4939 123.634 40.5964 123.482 40.6612C123.331 40.7259 123.149 40.7583 122.938 40.7583Z" fill="#221F20"/>
<path d="M126.308 38.2892H126.795C126.849 38.2083 126.898 38.0869 126.941 37.9249C126.99 37.763 127.031 37.5795 127.063 37.3745C127.096 37.164 127.12 36.94 127.136 36.7026C127.152 36.4597 127.161 36.2168 127.161 35.974V34.7597H130.369V38.2892H130.938V40.0621H130.109V39.0502H127.136V40.0621H126.308V38.2892ZM129.476 38.2892V35.5206H128.022V36.1359C128.022 36.5514 127.997 36.9508 127.948 37.334C127.9 37.7118 127.818 38.0302 127.705 38.2892H129.476Z" fill="#221F20"/>
<path d="M133.05 39.1392C132.817 39.1392 132.608 39.1069 132.424 39.0421C132.246 38.9719 132.094 38.8775 131.969 38.7588C131.845 38.6346 131.75 38.4916 131.685 38.3297C131.62 38.1678 131.588 37.9897 131.588 37.7954C131.588 37.3691 131.715 37.0534 131.969 36.8483C132.224 36.6378 132.598 36.5326 133.09 36.5326H134.431V36.2978C134.431 35.974 134.358 35.7527 134.211 35.634C134.07 35.5098 133.846 35.4478 133.537 35.4478C133.261 35.4478 133.058 35.491 132.928 35.5773C132.798 35.6637 132.722 35.7824 132.7 35.9335H131.831C131.842 35.75 131.888 35.5827 131.969 35.4316C132.056 35.2751 132.172 35.1402 132.319 35.0268C132.47 34.9135 132.652 34.8271 132.863 34.7678C133.074 34.703 133.312 34.6706 133.578 34.6706C133.843 34.6706 134.081 34.7003 134.293 34.7597C134.509 34.819 134.693 34.9135 134.845 35.043C134.997 35.1671 135.113 35.3291 135.194 35.5287C135.281 35.7284 135.324 35.9686 135.324 36.2492V37.9573C135.324 38.184 135.327 38.3837 135.332 38.5564C135.338 38.7237 135.351 38.8883 135.373 39.0502H134.561C134.544 38.9261 134.531 38.8208 134.52 38.7345C134.515 38.6481 134.512 38.5402 134.512 38.4107C134.409 38.6103 134.23 38.783 133.976 38.9288C133.727 39.0691 133.418 39.1392 133.05 39.1392ZM133.293 38.3621C133.445 38.3621 133.589 38.3432 133.724 38.3054C133.865 38.2623 133.987 38.2029 134.089 38.1273C134.192 38.0464 134.274 37.9492 134.333 37.8359C134.398 37.7172 134.431 37.5822 134.431 37.4311V37.1964H133.253C133.025 37.1964 132.841 37.2449 132.7 37.3421C132.565 37.4392 132.497 37.5822 132.497 37.7711C132.497 37.9492 132.56 38.0922 132.684 38.2002C132.814 38.3081 133.017 38.3621 133.293 38.3621Z" fill="#221F20"/>
<path d="M136.423 34.7597H137.252V35.4802C137.382 35.2319 137.574 35.0349 137.829 34.8892C138.089 34.7435 138.381 34.6706 138.706 34.6706C139.269 34.6706 139.713 34.846 140.038 35.1968C140.363 35.5476 140.525 36.0765 140.525 36.7835V36.9454C140.525 37.3124 140.482 37.6335 140.395 37.9088C140.309 38.184 140.184 38.4134 140.022 38.5969C139.865 38.775 139.675 38.9099 139.453 39.0016C139.231 39.0934 138.982 39.1392 138.706 39.1392C138.397 39.1392 138.116 39.0718 137.861 38.9369C137.607 38.8019 137.425 38.613 137.317 38.3702V40.6693H136.423V34.7597ZM138.495 38.3621C138.83 38.3621 139.101 38.2461 139.307 38.014C139.513 37.7819 139.616 37.4257 139.616 36.9454V36.7835C139.616 36.3302 139.515 35.9956 139.315 35.7797C139.115 35.5584 138.841 35.4478 138.495 35.4478C138.343 35.4478 138.197 35.4721 138.056 35.5206C137.915 35.5692 137.788 35.6421 137.674 35.7392C137.566 35.831 137.479 35.9497 137.414 36.0954C137.349 36.2357 137.317 36.3976 137.317 36.5811V37.1478C137.317 37.3529 137.349 37.531 137.414 37.6821C137.479 37.8332 137.566 37.96 137.674 38.0626C137.783 38.1651 137.907 38.2407 138.048 38.2892C138.189 38.3378 138.338 38.3621 138.495 38.3621Z" fill="#221F20"/>
<path d="M143.208 39.1392C142.916 39.1392 142.645 39.0961 142.396 39.0097C142.152 38.918 141.938 38.7804 141.754 38.5969C141.575 38.4134 141.434 38.184 141.332 37.9088C141.229 37.6335 141.177 37.3124 141.177 36.9454V36.7835C141.177 36.4381 141.231 36.1332 141.34 35.8687C141.448 35.6043 141.594 35.383 141.778 35.2049C141.968 35.0268 142.184 34.8946 142.428 34.8083C142.677 34.7165 142.937 34.6706 143.208 34.6706C143.49 34.6706 143.739 34.7084 143.955 34.784C144.177 34.8595 144.364 34.9648 144.516 35.0997C144.673 35.2292 144.797 35.383 144.889 35.5611C144.981 35.7392 145.044 35.9308 145.076 36.1359H144.166C144.112 35.9362 144.015 35.7716 143.874 35.6421C143.733 35.5125 143.511 35.4478 143.208 35.4478C143.056 35.4478 142.913 35.4748 142.777 35.5287C142.642 35.5773 142.523 35.6556 142.42 35.7635C142.317 35.8714 142.236 36.0118 142.176 36.1845C142.117 36.3518 142.087 36.5514 142.087 36.7835V36.9454C142.087 37.1991 142.117 37.4176 142.176 37.6011C142.236 37.7792 142.317 37.9249 142.42 38.0383C142.523 38.1516 142.642 38.2353 142.777 38.2892C142.913 38.3378 143.056 38.3621 143.208 38.3621C143.712 38.3621 144.031 38.1327 144.166 37.674H145.076C145.033 37.9007 144.957 38.1057 144.849 38.2892C144.746 38.4673 144.613 38.6211 144.451 38.7507C144.288 38.8748 144.101 38.9719 143.89 39.0421C143.679 39.1069 143.452 39.1392 143.208 39.1392Z" fill="#221F20"/>
<path d="M146.942 35.5206H145.52V34.7597H149.257V35.5206H147.836V39.0502H146.942V35.5206Z" fill="#221F20"/>
<path d="M149.988 34.7597H152.019C152.56 34.7597 152.953 34.8703 153.197 35.0916C153.44 35.3075 153.562 35.5854 153.562 35.9254C153.562 36.1143 153.505 36.2978 153.392 36.4759C153.278 36.6486 153.118 36.7646 152.912 36.824C153.178 36.8887 153.378 37.0129 153.514 37.1964C153.654 37.3745 153.725 37.5849 153.725 37.8278C153.725 38.2002 153.6 38.497 153.351 38.7183C153.102 38.9396 152.712 39.0502 152.181 39.0502H149.988V34.7597ZM152.06 38.2892C152.352 38.2892 152.552 38.2434 152.661 38.1516C152.774 38.0545 152.831 37.9195 152.831 37.7469C152.831 37.5742 152.774 37.4446 152.661 37.3583C152.552 37.2665 152.352 37.2207 152.06 37.2207H150.882V38.2892H152.06ZM151.938 36.5245C152.208 36.5245 152.398 36.4813 152.506 36.3949C152.615 36.3032 152.669 36.1791 152.669 36.0226C152.669 35.866 152.615 35.7446 152.506 35.6583C152.398 35.5665 152.208 35.5206 151.938 35.5206H150.882V36.5245H151.938Z" fill="#221F20"/>
<path d="M156.489 39.1392C156.202 39.1392 155.931 39.0961 155.677 39.0097C155.422 38.918 155.198 38.783 155.003 38.605C154.813 38.4215 154.661 38.1921 154.548 37.9169C154.434 37.6416 154.377 37.3178 154.377 36.9454V36.7835C154.377 36.4273 154.431 36.117 154.54 35.8526C154.648 35.5881 154.794 35.3695 154.978 35.1968C155.168 35.0187 155.384 34.8865 155.628 34.8002C155.872 34.7138 156.132 34.6706 156.408 34.6706C157.063 34.6706 157.564 34.846 157.911 35.1968C158.263 35.5476 158.439 36.0495 158.439 36.7026V37.1559H155.287C155.292 37.3772 155.327 37.5661 155.392 37.7226C155.463 37.8737 155.552 37.9978 155.661 38.0949C155.774 38.1867 155.902 38.2542 156.042 38.2973C156.189 38.3405 156.337 38.3621 156.489 38.3621C156.798 38.3621 157.023 38.3135 157.163 38.2164C157.31 38.1192 157.41 37.9924 157.464 37.8359H158.357C158.271 38.2623 158.057 38.5861 157.716 38.8073C157.38 39.0286 156.971 39.1392 156.489 39.1392ZM156.448 35.4478C156.297 35.4478 156.151 35.4667 156.01 35.5045C155.874 35.5422 155.753 35.6043 155.644 35.6906C155.541 35.7716 155.457 35.8795 155.392 36.0145C155.327 36.144 155.292 36.3032 155.287 36.4921H157.545C157.54 36.2924 157.507 36.1251 157.448 35.9902C157.393 35.8552 157.318 35.7473 157.22 35.6664C157.123 35.5854 157.006 35.5287 156.871 35.4964C156.741 35.464 156.6 35.4478 156.448 35.4478Z" fill="#221F20"/>
<path d="M159.333 34.7597H160.226V36.484H162.257V34.7597H163.151V39.0502H162.257V37.2449H160.226V39.0502H159.333V34.7597Z" fill="#221F20"/>
<path d="M164.291 34.7597H165.184V36.484H167.215V34.7597H168.109V39.0502H167.215V37.2449H165.184V39.0502H164.291V34.7597Z" fill="#221F20"/>
<path d="M169.249 34.7597H170.142V36.2654H170.954C171.507 36.2654 171.916 36.3841 172.181 36.6216C172.446 36.8537 172.579 37.1991 172.579 37.6578C172.579 38.0896 172.449 38.4296 172.189 38.6778C171.929 38.9261 171.518 39.0502 170.954 39.0502H169.249V34.7597ZM170.873 38.2892C171.171 38.2892 171.38 38.238 171.499 38.1354C171.623 38.0275 171.686 37.8683 171.686 37.6578C171.686 37.4473 171.623 37.2908 171.499 37.1883C171.38 37.0803 171.171 37.0264 170.873 37.0264H170.142V38.2892H170.873ZM173.148 34.7597H174.041V39.0502H173.148V34.7597Z" fill="#221F20"/>
<path d="M175.182 34.7597H176.076V37.7954L178.147 34.7597H179V39.0502H178.107V36.0145L176.035 39.0502H175.182V34.7597ZM177.091 34.274C176.642 34.274 176.311 34.1768 176.1 33.9825C175.894 33.7829 175.791 33.5022 175.791 33.1406H176.62C176.62 33.3349 176.658 33.4752 176.734 33.5616C176.815 33.6479 176.934 33.6911 177.091 33.6911C177.248 33.6911 177.365 33.6479 177.44 33.5616C177.522 33.4752 177.562 33.3349 177.562 33.1406H178.391C178.391 33.5022 178.285 33.7829 178.074 33.9825C177.863 34.1768 177.535 34.274 177.091 34.274Z" fill="#221F20"/>
<path d="M63.665 45.5534H64.6723L66.0451 48.063L67.4179 45.5534H68.3764V49.8439H67.4829V46.8891L66.3456 48.9534H65.6958L64.5586 46.8891V49.8439H63.665V45.5534Z" fill="#221F20"/>
<path d="M71.3797 49.933C71.0927 49.933 70.8219 49.8898 70.5674 49.8034C70.3129 49.7117 70.0881 49.5768 69.8932 49.3987C69.7036 49.2152 69.552 48.9858 69.4383 48.7106C69.3246 48.4353 69.2677 48.1115 69.2677 47.7391V47.5772C69.2677 47.221 69.3219 46.9107 69.4302 46.6463C69.5385 46.3818 69.6847 46.1633 69.8688 45.9906C70.0584 45.8125 70.275 45.6802 70.5187 45.5939C70.7623 45.5075 71.0223 45.4644 71.2985 45.4644C71.9537 45.4644 72.4546 45.6398 72.8012 45.9906C73.1532 46.3414 73.3292 46.8433 73.3292 47.4963V47.9496H70.1775C70.1829 48.1709 70.2181 48.3598 70.2831 48.5163C70.3535 48.6674 70.4428 48.7915 70.5511 48.8887C70.6649 48.9804 70.7921 49.0479 70.9329 49.0911C71.0791 49.1342 71.2281 49.1558 71.3797 49.1558C71.6884 49.1558 71.9131 49.1073 72.0539 49.0101C72.2001 48.913 72.3003 48.7861 72.3545 48.6296H73.248C73.1614 49.056 72.9474 49.3798 72.6063 49.6011C72.2705 49.8223 71.8617 49.933 71.3797 49.933ZM71.3391 46.2415C71.1875 46.2415 71.0412 46.2604 70.9004 46.2982C70.7651 46.336 70.6432 46.398 70.5349 46.4844C70.432 46.5653 70.3481 46.6733 70.2831 46.8082C70.2181 46.9377 70.1829 47.0969 70.1775 47.2858H72.4357C72.4303 47.0861 72.3978 46.9188 72.3382 46.7839C72.2841 46.649 72.2082 46.541 72.1108 46.4601C72.0133 46.3791 71.8969 46.3225 71.7615 46.2901C71.6315 46.2577 71.4907 46.2415 71.3391 46.2415Z" fill="#221F20"/>
<path d="M73.7776 49.083H74.265C74.3191 49.002 74.3679 48.8806 74.4112 48.7187C74.4599 48.5568 74.5005 48.3733 74.533 48.1682C74.5655 47.9577 74.5899 47.7338 74.6061 47.4963C74.6224 47.2534 74.6305 47.0106 74.6305 46.7677V45.5534H77.8391V49.083H78.4077V50.8558H77.5792V49.8439H74.6061V50.8558H73.7776V49.083ZM76.9456 49.083V46.3144H75.4915V46.9296C75.4915 47.3452 75.4672 47.7445 75.4184 48.1277C75.3697 48.5055 75.2885 48.8239 75.1747 49.083H76.9456Z" fill="#221F20"/>
<path d="M79.1813 45.5534H80.0748V48.5892L82.1462 45.5534H82.9991V49.8439H82.1056V46.8082L80.0342 49.8439H79.1813V45.5534Z" fill="#221F20"/>
<path d="M87.6159 49.8439H84.1392V45.5534H85.0327V49.083H86.901V45.5534H87.7946V49.083H88.4444V50.8558H87.6159V49.8439Z" fill="#221F20"/>
<path d="M89.2161 45.5534H90.1096V48.5892L92.181 45.5534H93.0339V49.8439H92.1404V46.8082L90.069 49.8439H89.2161V45.5534Z" fill="#221F20"/>
<path d="M94.174 45.5534H95.0675V47.2777H97.0983V45.5534H97.9918V49.8439H97.0983V48.0387H95.0675V49.8439H94.174V45.5534Z" fill="#221F20"/>
<path d="M100.919 49.933C100.627 49.933 100.356 49.8898 100.107 49.8034C99.863 49.7117 99.6491 49.5741 99.465 49.3906C99.2863 49.2071 99.1455 48.9777 99.0426 48.7025C98.9397 48.4272 98.8882 48.1061 98.8882 47.7391V47.5772C98.8882 47.2318 98.9424 46.9269 99.0507 46.6625C99.159 46.398 99.3052 46.1768 99.4893 45.9987C99.6789 45.8206 99.8955 45.6883 100.139 45.602C100.388 45.5102 100.648 45.4644 100.919 45.4644C101.201 45.4644 101.45 45.5021 101.666 45.5777C101.888 45.6533 102.075 45.7585 102.227 45.8934C102.384 46.0229 102.508 46.1768 102.6 46.3549C102.693 46.5329 102.755 46.7245 102.787 46.9296H101.877C101.823 46.7299 101.726 46.5653 101.585 46.4358C101.444 46.3063 101.222 46.2415 100.919 46.2415C100.767 46.2415 100.624 46.2685 100.488 46.3225C100.353 46.371 100.234 46.4493 100.131 46.5572C100.028 46.6652 99.9469 46.8055 99.8874 46.9782C99.8278 47.1455 99.798 47.3452 99.798 47.5772V47.7391C99.798 47.9928 99.8278 48.2114 99.8874 48.3949C99.9469 48.573 100.028 48.7187 100.131 48.832C100.234 48.9453 100.353 49.029 100.488 49.083C100.624 49.1315 100.767 49.1558 100.919 49.1558C101.423 49.1558 101.742 48.9265 101.877 48.4677H102.787C102.744 48.6944 102.668 48.8995 102.56 49.083C102.457 49.2611 102.324 49.4149 102.162 49.5444C101.999 49.6685 101.813 49.7657 101.601 49.8358C101.39 49.9006 101.163 49.933 100.919 49.933Z" fill="#221F20"/>
<path d="M103.638 45.5534H104.531V47.2939H105.019L106.529 45.5534H107.537L105.709 47.6015L107.618 49.8439H106.529L105.019 48.0225H104.531V49.8439H103.638V45.5534Z" fill="#221F20"/>
<path d="M108.35 45.5534H109.243V48.5892L111.315 45.5534H112.167V49.8439H111.274V46.8082L109.203 49.8439H108.35V45.5534Z" fill="#221F20"/>
<path d="M113.308 45.5534H114.201V48.5892L116.272 45.5534H117.125V49.8439H116.232V46.8082L114.16 49.8439H113.308V45.5534ZM115.216 45.0677C114.767 45.0677 114.437 44.9706 114.225 44.7763C114.02 44.5766 113.917 44.2959 113.917 43.9344H114.745C114.745 44.1286 114.783 44.269 114.859 44.3553C114.94 44.4417 115.059 44.4848 115.216 44.4848C115.374 44.4848 115.49 44.4417 115.566 44.3553C115.647 44.269 115.688 44.1286 115.688 43.9344H116.516C116.516 44.2959 116.411 44.5766 116.199 44.7763C115.988 44.9706 115.661 45.0677 115.216 45.0677Z" fill="#221F20"/>
<path d="M120.987 51.552C120.905 51.552 120.824 51.5439 120.743 51.5277V50.7506C120.824 50.7668 120.905 50.7749 120.987 50.7749C121.079 50.7749 121.155 50.7587 121.214 50.7263C121.279 50.6993 121.336 50.6481 121.385 50.5725C121.439 50.5023 121.49 50.4079 121.539 50.2892C121.593 50.1704 121.653 50.022 121.718 49.8439L119.89 45.5534H120.865L122.181 48.8725L123.367 45.5534H124.277L122.611 49.8439C122.492 50.1461 122.381 50.4052 122.278 50.6211C122.175 50.8369 122.062 51.0123 121.937 51.1473C121.818 51.2876 121.683 51.3901 121.531 51.4549C121.379 51.5197 121.198 51.552 120.987 51.552Z" fill="#221F20"/>
<path d="M125.008 45.5534H125.902V47.2777H127.933V45.5534H128.826V49.8439H127.933V48.0387H125.902V49.8439H125.008V45.5534Z" fill="#221F20"/>
<path d="M129.966 45.5534H130.86V48.5892L132.931 45.5534H133.784V49.8439H132.89V46.8082L130.819 49.8439H129.966V45.5534Z" fill="#221F20"/>
<path d="M134.924 45.5534H136.955C137.496 45.5534 137.889 45.6641 138.133 45.8853C138.376 46.1012 138.498 46.3791 138.498 46.7191C138.498 46.908 138.441 47.0915 138.328 47.2696C138.214 47.4423 138.054 47.5584 137.848 47.6177C138.114 47.6825 138.314 47.8066 138.449 47.9901C138.59 48.1682 138.661 48.3787 138.661 48.6215C138.661 48.9939 138.536 49.2907 138.287 49.512C138.038 49.7333 137.648 49.8439 137.117 49.8439H134.924V45.5534ZM136.995 49.083C137.288 49.083 137.488 49.0371 137.597 48.9453C137.71 48.8482 137.767 48.7133 137.767 48.5406C137.767 48.3679 137.71 48.2384 137.597 48.152C137.488 48.0603 137.288 48.0144 136.995 48.0144H135.818V49.083H136.995ZM136.874 47.3182C137.144 47.3182 137.334 47.275 137.442 47.1887C137.55 47.0969 137.605 46.9728 137.605 46.8163C137.605 46.6598 137.55 46.5383 137.442 46.452C137.334 46.3602 137.144 46.3144 136.874 46.3144H135.818V47.3182H136.874Z" fill="#221F20"/>
<path d="M141.425 49.933C141.138 49.933 140.867 49.8898 140.613 49.8034C140.358 49.7117 140.133 49.5768 139.938 49.3987C139.749 49.2152 139.597 48.9858 139.484 48.7106C139.37 48.4353 139.313 48.1115 139.313 47.7391V47.5772C139.313 47.221 139.367 46.9107 139.475 46.6463C139.584 46.3818 139.73 46.1633 139.914 45.9906C140.104 45.8125 140.32 45.6802 140.564 45.5939C140.808 45.5075 141.068 45.4644 141.344 45.4644C141.999 45.4644 142.5 45.6398 142.847 45.9906C143.199 46.3414 143.375 46.8433 143.375 47.4963V47.9496H140.223C140.228 48.1709 140.263 48.3598 140.328 48.5163C140.399 48.6674 140.488 48.7915 140.596 48.8887C140.71 48.9804 140.837 49.0479 140.978 49.0911C141.124 49.1342 141.273 49.1558 141.425 49.1558C141.734 49.1558 141.958 49.1073 142.099 49.0101C142.245 48.913 142.346 48.7861 142.4 48.6296H143.293C143.207 49.056 142.993 49.3798 142.652 49.6011C142.316 49.8223 141.907 49.933 141.425 49.933ZM141.384 46.2415C141.233 46.2415 141.087 46.2604 140.946 46.2982C140.81 46.336 140.689 46.398 140.58 46.4844C140.477 46.5653 140.393 46.6733 140.328 46.8082C140.263 46.9377 140.228 47.0969 140.223 47.2858H142.481C142.476 47.0861 142.443 46.9188 142.384 46.7839C142.329 46.649 142.254 46.541 142.156 46.4601C142.059 46.3791 141.942 46.3225 141.807 46.2901C141.677 46.2577 141.536 46.2415 141.384 46.2415Z" fill="#221F20"/>
<path d="M144.269 45.5534H145.097V46.2739C145.227 46.0256 145.419 45.8287 145.674 45.6829C145.934 45.5372 146.226 45.4644 146.551 45.4644C147.114 45.4644 147.559 45.6398 147.883 45.9906C148.208 46.3414 148.371 46.8703 148.371 47.5772V47.7391C148.371 48.1061 148.327 48.4272 148.241 48.7025C148.154 48.9777 148.03 49.2071 147.867 49.3906C147.71 49.5687 147.521 49.7036 147.299 49.7954C147.077 49.8871 146.827 49.933 146.551 49.933C146.243 49.933 145.961 49.8655 145.706 49.7306C145.452 49.5957 145.271 49.4068 145.162 49.1639V51.463H144.269V45.5534ZM146.34 49.1558C146.676 49.1558 146.947 49.0398 147.152 48.8077C147.358 48.5757 147.461 48.2195 147.461 47.7391V47.5772C147.461 47.1239 147.361 46.7893 147.16 46.5734C146.96 46.3522 146.687 46.2415 146.34 46.2415C146.188 46.2415 146.042 46.2658 145.901 46.3144C145.761 46.3629 145.633 46.4358 145.52 46.5329C145.411 46.6247 145.325 46.7434 145.26 46.8891C145.195 47.0295 145.162 47.1914 145.162 47.3749V47.9415C145.162 48.1466 145.195 48.3247 145.26 48.4758C145.325 48.6269 145.411 48.7538 145.52 48.8563C145.628 48.9588 145.752 49.0344 145.893 49.083C146.034 49.1315 146.183 49.1558 146.34 49.1558Z" fill="#221F20"/>
<path d="M151.053 49.933C150.761 49.933 150.49 49.8898 150.241 49.8034C149.997 49.7117 149.783 49.5741 149.599 49.3906C149.421 49.2071 149.28 48.9777 149.177 48.7025C149.074 48.4272 149.023 48.1061 149.023 47.7391V47.5772C149.023 47.2318 149.077 46.9269 149.185 46.6625C149.293 46.398 149.44 46.1768 149.624 45.9987C149.813 45.8206 150.03 45.6883 150.274 45.602C150.523 45.5102 150.783 45.4644 151.053 45.4644C151.335 45.4644 151.584 45.5021 151.801 45.5777C152.023 45.6533 152.21 45.7585 152.361 45.8934C152.518 46.0229 152.643 46.1768 152.735 46.3549C152.827 46.5329 152.889 46.7245 152.922 46.9296H152.012C151.958 46.7299 151.86 46.5653 151.719 46.4358C151.579 46.3063 151.357 46.2415 151.053 46.2415C150.902 46.2415 150.758 46.2685 150.623 46.3225C150.487 46.371 150.368 46.4493 150.265 46.5572C150.162 46.6652 150.081 46.8055 150.022 46.9782C149.962 47.1455 149.932 47.3452 149.932 47.5772V47.7391C149.932 47.9928 149.962 48.2114 150.022 48.3949C150.081 48.573 150.162 48.7187 150.265 48.832C150.368 48.9453 150.487 49.029 150.623 49.083C150.758 49.1315 150.902 49.1558 151.053 49.1558C151.557 49.1558 151.876 48.9265 152.012 48.4677H152.922C152.878 48.6944 152.802 48.8995 152.694 49.083C152.591 49.2611 152.459 49.4149 152.296 49.5444C152.134 49.6685 151.947 49.7657 151.736 49.8358C151.524 49.9006 151.297 49.933 151.053 49.933Z" fill="#221F20"/>
<path d="M153.772 45.5534H154.666V48.5892L156.737 45.5534H157.59V49.8439H156.696V46.8082L154.625 49.8439H153.772V45.5534Z" fill="#221F20"/>
<path d="M159.745 46.3144H158.324V45.5534H162.06V46.3144H160.639V49.8439H159.745V46.3144Z" fill="#221F20"/>
<path d="M164.58 49.933C164.293 49.933 164.023 49.8898 163.768 49.8034C163.514 49.7117 163.289 49.5768 163.094 49.3987C162.904 49.2152 162.753 48.9858 162.639 48.7106C162.525 48.4353 162.468 48.1115 162.468 47.7391V47.5772C162.468 47.221 162.523 46.9107 162.631 46.6463C162.739 46.3818 162.885 46.1633 163.07 45.9906C163.259 45.8125 163.476 45.6802 163.719 45.5939C163.963 45.5075 164.223 45.4644 164.499 45.4644C165.154 45.4644 165.655 45.6398 166.002 45.9906C166.354 46.3414 166.53 46.8433 166.53 47.4963V47.9496H163.378C163.384 48.1709 163.419 48.3598 163.484 48.5163C163.554 48.6674 163.644 48.7915 163.752 48.8887C163.866 48.9804 163.993 49.0479 164.134 49.0911C164.28 49.1342 164.429 49.1558 164.58 49.1558C164.889 49.1558 165.114 49.1073 165.255 49.0101C165.401 48.913 165.501 48.7861 165.555 48.6296H166.449C166.362 49.056 166.148 49.3798 165.807 49.6011C165.471 49.8223 165.062 49.933 164.58 49.933ZM164.54 46.2415C164.388 46.2415 164.242 46.2604 164.101 46.2982C163.966 46.336 163.844 46.398 163.736 46.4844C163.633 46.5653 163.549 46.6733 163.484 46.8082C163.419 46.9377 163.384 47.0969 163.378 47.2858H165.636C165.631 47.0861 165.598 46.9188 165.539 46.7839C165.485 46.649 165.409 46.541 165.311 46.4601C165.214 46.3791 165.098 46.3225 164.962 46.2901C164.832 46.2577 164.691 46.2415 164.54 46.2415Z" fill="#221F20"/>
<path d="M168.36 46.3144H166.939V45.5534H170.675V46.3144H169.254V49.8439H168.36V46.3144Z" fill="#221F20"/>
<path fill-rule="evenodd" clip-rule="evenodd" d="M23.8199 3.68346C20.6333 1.36427 16.7339 0 12.5244 0C7.88457 0 3.62137 1.65753 0.274255 4.42439L0 4.6511V5.01225V48.5845V50.2972L1.23266 49.1429L1.23295 49.1427L1.23324 49.1424L1.23363 49.142L1.23928 49.1369C1.24539 49.1313 1.25571 49.122 1.27018 49.1091C1.29913 49.0834 1.34471 49.0437 1.40656 48.992C1.53029 48.8885 1.71893 48.7369 1.96962 48.5533C2.47125 48.1857 3.21963 47.6908 4.19187 47.1946C6.13634 46.202 8.96832 45.2078 12.5136 45.2078C14.4295 45.2078 16.1371 45.4982 17.6089 45.9217L17.6416 45.8235C18.3993 46.0991 19.2267 46.1124 19.9928 45.8613C20.7589 45.6102 21.42 45.109 21.8716 44.4371C23.1745 42.7227 23.6088 39.7314 21.6979 36.9105C21.6194 36.7947 21.5403 36.682 21.4604 36.5726C20.8754 37.1059 20.1474 37.4617 19.361 37.5915C18.3891 37.7519 17.3922 37.5566 16.551 37.0408C17.1841 36.2808 18.0669 35.7746 19.0391 35.6141C19.611 35.5197 20.1915 35.5486 20.7437 35.6936C19.4651 34.2951 18.0424 33.581 16.6014 33.2788L16.6012 33.2794L16.5909 33.2766C14.8011 32.9037 12.9835 33.1651 11.379 33.5386L10.9882 31.8374C11.6673 31.6784 12.4063 31.5331 13.1831 31.4422C13.0473 31.322 12.915 31.1971 12.7867 31.0679C11.7311 30.0049 10.9734 28.6797 10.5906 27.2266L11.5222 27.0299L12.2887 26.8636C12.6068 28.0066 13.2175 29.0454 14.0598 29.8759C14.8623 30.6672 15.8482 31.243 16.9269 31.5518C18.8869 31.9491 20.8683 32.9808 22.59 35.1636C22.3258 33.9465 21.9013 32.7029 21.2242 31.1935C20.4643 31.4401 19.6453 31.4594 18.8686 31.2424C17.9198 30.9775 17.0973 30.378 16.551 29.5532C17.4414 29.1313 18.4525 29.045 19.4008 29.3098C19.8299 29.4296 20.2333 29.6178 20.5971 29.8642C19.9188 28.4861 19.0523 26.8831 17.9465 24.9223C17.7795 24.6264 17.6201 24.3336 17.4679 24.0443C16.6617 24.1935 15.8256 24.0958 15.0697 23.7582C14.1709 23.3566 13.4458 22.6424 13.0271 21.7464C13.9678 21.4606 14.9791 21.524 15.8773 21.9253C16.1523 22.0481 16.4111 22.2002 16.6499 22.3777C13.919 16.3829 14.2885 12.2107 14.3114 11.999L16.0486 12.1695L16.0478 12.1833C16.0363 12.3644 15.9153 14.2672 16.6678 17.2245C16.7756 16.8093 16.9486 16.4106 17.1833 16.0442C17.7141 15.2154 18.5248 14.608 19.4656 14.3342C19.6096 15.3107 19.396 16.3066 18.8646 17.1362C18.4304 17.8142 17.8081 18.3433 17.0806 18.6617C17.5913 20.2584 18.3468 22.0826 19.4622 24.0564C19.6386 24.3698 19.8093 24.6747 19.9743 24.9715C20.6383 21.5811 23.6469 20.6069 23.7561 20.5715L23.7588 20.5707L24.002 21.4103L24.2539 22.2457L24.2448 22.2485C23.8164 22.3853 20.5332 23.6044 21.9218 28.6238C22.7921 30.3568 23.3983 31.7682 23.8191 33.0602C24.4704 30.9303 25.7393 28.4824 28.2031 24.112C27.4622 23.6974 26.8673 23.0556 26.5081 22.2754C26.0964 21.3809 26.0228 20.3658 26.3013 19.4205C27.1963 19.8189 27.9168 20.5317 28.3284 21.4257C28.5857 21.9847 28.7112 22.5907 28.7016 23.1975C28.8125 22.9858 28.9193 22.776 29.0222 22.5684C29.5477 19.5404 29.1535 17.3418 27.8522 16.0313C25.8457 14.0108 22.2063 14.645 22.1759 14.6537L21.8632 12.935C21.9566 12.9171 23.1463 12.7033 24.642 12.8564C24.2931 12.5145 24.0059 12.109 23.7978 11.6569C23.386 10.7624 23.3124 9.7473 23.5909 8.80205C24.4859 9.20045 25.2065 9.91318 25.618 10.8072C25.9467 11.5213 26.0604 12.3122 25.9519 13.0833C26.3985 13.1952 26.8516 13.3477 27.2943 13.5529C27.2435 11.5864 28.2712 10.3648 28.3286 10.2973L29.0929 10.9694L29.6663 11.4562C29.6148 11.5167 28.4736 12.9393 29.4351 15.1797C30.099 15.9737 30.5503 16.9486 30.7877 18.0966C31.8464 14.5064 31.6553 12.202 31.6524 12.1695L33.3896 11.999C33.3896 12.0094 33.3907 12.0311 33.3923 12.0638L33.3923 12.0643L33.3924 12.065L33.3924 12.0658L33.3924 12.0658C33.4224 12.6549 33.6285 16.7046 31.0504 22.3765C31.2891 22.1994 31.5476 22.0477 31.8223 21.9251C32.7212 21.5239 33.7332 21.4606 34.6745 21.7467C34.2557 22.6436 33.5298 23.3585 32.63 23.7601C31.8742 24.0975 31.0383 24.1949 30.2323 24.0456C30.0803 24.3345 29.9212 24.6268 29.7545 24.9223C28.5971 26.9708 27.714 28.5752 27.0402 29.9098C27.421 29.6409 27.8472 29.4369 28.3025 29.3098C29.2507 29.045 30.2618 29.1313 31.1523 29.5532C30.606 30.378 29.7834 30.9775 28.8347 31.2424C28.0401 31.4643 27.2013 31.4391 26.4268 31.1762C25.6919 32.7721 25.3045 33.9771 25.1009 35.2312C26.8061 33.0306 28.7791 31.9802 30.7364 31.5675C31.8331 31.2586 32.8348 30.6748 33.6475 29.8698C34.4855 29.0397 35.0933 28.0034 35.4107 26.8636L37.1088 27.2266C36.7263 28.6769 35.9708 30.0001 34.9186 31.0627C34.7904 31.1922 34.6584 31.3173 34.5227 31.4378C35.3145 31.5283 36.0675 31.6758 36.7578 31.8374L36.367 33.5386C33.4622 32.8624 29.8626 32.5538 26.9879 35.7105C27.5585 35.5509 28.161 35.5161 28.7542 35.6141C29.7256 35.7746 30.6077 36.2807 31.2401 37.0404C30.3995 37.5558 29.4034 37.751 28.4322 37.5906C27.6334 37.4586 26.895 37.0932 26.3058 36.5454C26.2191 36.6634 26.1331 36.785 26.0481 36.9105C24.1416 39.7314 24.5889 42.7227 25.8787 44.4371C26.3295 45.1087 26.9899 45.6097 27.7553 45.8608C28.5206 46.1119 29.3473 46.0987 30.1044 45.8235L30.128 45.8941C31.5777 45.4856 33.2523 45.2078 35.1262 45.2078C38.6715 45.2078 41.5035 46.202 43.4479 47.1946C44.4202 47.6908 45.1685 48.1857 45.6702 48.5533C45.9209 48.7369 46.1095 48.8885 46.2332 48.992C46.2696 49.0224 46.3004 49.0487 46.3254 49.0704C46.3429 49.0856 46.3577 49.0985 46.3696 49.1091L46.3841 49.122L46.4005 49.1369L46.4062 49.142L46.4065 49.1424L46.4068 49.1427L46.4071 49.1429L47.6398 50.2972V48.5845V5.01225V4.6511L47.3655 4.42439C44.0184 1.65753 39.7552 0 35.1154 0C30.9059 0 27.0065 1.36427 23.8199 3.68346ZM26.6363 47.2816C26.5563 47.2447 26.4771 47.2058 26.3988 47.1649C25.6369 46.7677 24.9783 46.1958 24.476 45.4955C24.2542 45.1999 24.0512 44.8758 23.8716 44.5277C23.6915 44.8758 23.488 45.1999 23.2657 45.4955C22.7629 46.1975 22.1031 46.7705 21.3395 47.1678C21.2448 47.2171 21.1489 47.2635 21.0518 47.307C21.9192 47.7649 22.5938 48.2135 23.0575 48.5533C23.3082 48.7369 23.4968 48.8885 23.6205 48.992C23.6824 49.0437 23.728 49.0834 23.7569 49.1091C23.7714 49.122 23.7817 49.1313 23.7878 49.1369L23.7938 49.1424L23.7978 49.1378L23.8199 49.1128C23.8461 49.1423 23.8459 49.1424 23.8459 49.1424L23.852 49.1369C23.8581 49.1313 23.8684 49.122 23.8829 49.1091C23.9118 49.0834 23.9574 49.0437 24.0193 48.992C24.143 48.8885 24.3316 48.7369 24.5823 48.5533C25.0546 48.2072 25.7456 47.7483 26.6363 47.2816ZM12.3936 22.7661C12.0859 21.8315 11.4506 21.0419 10.6066 20.5449C10.2228 21.451 10.181 22.4671 10.4889 23.4021C10.7968 24.3371 11.4332 25.1267 12.2786 25.6224C12.6605 24.716 12.7014 23.7006 12.3936 22.7661ZM36.7503 20.5449C35.9063 21.0419 35.271 21.8315 34.9633 22.7661C34.6556 23.7006 34.6964 24.716 35.0783 25.6224C35.9237 25.1267 36.5601 24.3371 36.868 23.4021C37.176 22.4671 37.1341 21.451 36.7503 20.5449ZM37.0352 8.90826V7.25863H39.681V4.6189H41.3345V7.25863H43.9795V8.90826H41.3345V11.5474H39.681V8.90826H37.0352Z" fill="url(#paint0_linear)"/>
<path d="M16.1475 53.4893L16.4274 54.4421L17.3174 54.2056V57.8986H18.4658V53.0302H17.461L16.1475 53.4893Z" fill="#FF8A4F"/>
<path d="M22.8465 54.6507C22.8465 54.143 22.6742 53.7327 22.3297 53.4127C21.9852 53.0928 21.533 52.9329 20.9803 52.9329C20.4276 52.9329 19.9826 53.0928 19.6309 53.4127C19.2864 53.7327 19.1141 54.143 19.1141 54.6507C19.1141 55.1236 19.2648 55.5201 19.5735 55.833C19.8821 56.146 20.2912 56.3268 20.7865 56.3616L19.6955 57.8986H21.0162L22.5522 55.6383C22.746 55.3532 22.8465 55.0263 22.8465 54.6507ZM20.4707 54.1639C20.7506 53.9135 21.21 53.9135 21.4899 54.1569C21.6263 54.2751 21.6981 54.4421 21.6981 54.6507C21.6981 54.8594 21.6263 55.0263 21.4899 55.1445C21.21 55.3879 20.7506 55.3879 20.4707 55.1445C20.3343 55.0193 20.2625 54.8524 20.2625 54.6507C20.2625 54.449 20.3343 54.2821 20.4707 54.1639Z" fill="#FF8A4F"/>
<path d="M26.4212 57.8986V56.8276H24.7345L25.5671 56.0139C26.091 55.5062 26.3494 54.9985 26.3494 54.4838C26.3494 54.0109 26.1843 53.6353 25.847 53.3571C25.5168 53.072 25.1149 52.9329 24.6483 52.9329C23.9234 52.9329 23.2631 53.3015 22.9544 53.997L23.9234 54.5464C24.0813 54.1917 24.3253 54.0178 24.6627 54.0178C25 54.0178 25.201 54.2265 25.201 54.5325C25.201 54.7689 25.0287 55.0541 24.6914 55.3949L23.0047 57.0919V57.8986H26.4212Z" fill="#FF8A4F"/>
<path d="M30.3648 57.3075C30.7309 56.8415 30.9103 56.2295 30.9103 55.4644C30.9103 54.6994 30.7309 54.0874 30.3648 53.6283C30.006 53.1624 29.5035 52.9329 28.8647 52.9329C28.2259 52.9329 27.7235 53.1624 27.3574 53.6283C26.9985 54.0874 26.8191 54.6994 26.8191 55.4644C26.8191 56.2295 26.9985 56.8415 27.3574 57.3075C27.7235 57.7665 28.2259 57.996 28.8647 57.996C29.5035 57.996 30.006 57.7665 30.3648 57.3075ZM27.9675 55.4644C27.9675 54.4977 28.269 54.0178 28.8647 54.0178C29.4605 54.0178 29.7619 54.4977 29.7619 55.4644C29.7619 56.4312 29.4605 56.911 28.8647 56.911C28.269 56.911 27.9675 56.4312 27.9675 55.4644Z" fill="#FF8A4F"/>
<defs>
<linearGradient id="paint0_linear" x1="-5.53608" y1="46.9491" x2="48.0849" y2="-10.4894" gradientUnits="userSpaceOnUse">
<stop stop-color="#FF3939"/>
<stop offset="1" stop-color="#FFB359"/>
</linearGradient>
</defs>
</svg>
