<svg width="148" height="49" viewBox="0 0 148 49" fill="none" xmlns="http://www.w3.org/2000/svg">
<path d="M53 4.48026H55.7384V9.95517H56.8338L60.9232 4.48026H63.9538L58.9333 10.8388L64.1364 17.9274H60.9232L56.8338 12.0683H55.7384V17.9274H53V4.48026Z" fill="#808080"/>
<path d="M66.5974 22C66.4148 22 66.2323 21.9808 66.0497 21.9424V19.7908C66.2323 19.8292 66.4148 19.8485 66.5974 19.8485C66.9625 19.8485 67.2425 19.7012 67.4372 19.4066C67.6441 19.1249 67.8753 18.6318 68.1309 17.9274L64.0415 7.746H66.7435L69.3724 14.7769L71.7822 7.746H74.2651L70.5408 17.9274C70.273 18.6446 70.0174 19.2593 69.774 19.7716C69.5428 20.2967 69.2811 20.7193 68.989 21.0395C68.6969 21.3725 68.3622 21.6158 67.9849 21.7695C67.6076 21.9232 67.1451 22 66.5974 22Z" fill="#808080"/>
<path d="M79.9259 18.1579C79.2444 18.1579 78.6115 18.0363 78.0273 17.793C77.4553 17.5496 76.9562 17.1846 76.5303 16.698C76.1043 16.1985 75.7696 15.5902 75.5262 14.873C75.2949 14.143 75.1793 13.2978 75.1793 12.3372V11.8954C75.1793 10.7428 75.2584 9.71825 75.4166 8.82177C75.587 7.92529 75.8609 7.16329 76.2382 6.53575C76.6276 5.90822 77.1388 5.42156 77.7717 5.07577C78.4168 4.71718 79.22 4.51227 80.1815 4.46105C80.5588 4.44824 80.93 4.43543 81.2952 4.42263C81.6603 4.40982 82.0072 4.39061 82.3358 4.36499C82.6644 4.33938 82.9626 4.30096 83.2303 4.24973C83.4981 4.1857 83.7354 4.10245 83.9423 4V6.2476C83.7476 6.36286 83.3825 6.45891 82.847 6.53575C82.3236 6.61259 81.5264 6.65742 80.4554 6.67022C79.9077 6.68303 79.433 6.75347 79.0314 6.88154C78.6419 6.9968 78.3133 7.1889 78.0455 7.45784C77.79 7.71398 77.583 8.05336 77.4248 8.47599C77.2788 8.89861 77.1753 9.41729 77.1145 10.032C77.3944 9.45571 77.8143 8.98826 78.3742 8.62967C78.934 8.27108 79.6643 8.09178 80.5649 8.09178C81.1735 8.09178 81.7272 8.19424 82.2262 8.39915C82.7253 8.59125 83.1573 8.8794 83.5224 9.26361C83.8876 9.64781 84.1675 10.1217 84.3622 10.6852C84.5691 11.2487 84.6726 11.9018 84.6726 12.6446V13.0096C84.6726 13.8164 84.5509 14.54 84.3075 15.1804C84.0762 15.8207 83.7476 16.365 83.3216 16.8132C82.8956 17.2487 82.3905 17.5816 81.8063 17.8122C81.2343 18.0427 80.6075 18.1579 79.9259 18.1579ZM79.9259 16.0064C80.6562 16.0064 81.2221 15.7567 81.6238 15.2572C82.0254 14.7449 82.2262 14.0213 82.2262 13.0864V12.7022C82.2262 11.8954 82.0193 11.2615 81.6055 10.8004C81.1917 10.3394 80.6319 10.1089 79.9259 10.1089C79.2322 10.1089 78.6723 10.3394 78.2464 10.8004C77.8326 11.2615 77.6256 11.8954 77.6256 12.7022V13.048C77.6256 13.5091 77.6804 13.9253 77.79 14.2967C77.9117 14.6681 78.076 14.9819 78.2829 15.238C78.4898 15.4813 78.7332 15.6734 79.0131 15.8143C79.2931 15.9424 79.5973 16.0064 79.9259 16.0064Z" fill="#808080"/>
<path d="M86.7671 4.48026H95.165V6.86233H89.5055V17.9274H86.7671V4.48026Z" fill="#808080"/>
<path d="M96.9828 4.48026H99.7212L103.61 12.0491L107.48 4.48026H110.127V17.9274H107.389V9.37887L104.377 15.238H102.734L99.7212 9.37887V17.9274H96.9828V4.48026Z" fill="#808080"/>
<path d="M115.328 18.1579C115.194 18.1579 115.06 18.1515 114.927 18.1387C114.805 18.1259 114.695 18.1131 114.598 18.1003V15.8143C114.695 15.8271 114.805 15.8399 114.927 15.8527C115.06 15.8527 115.194 15.8527 115.328 15.8527C115.596 15.8527 115.809 15.8271 115.967 15.7759C116.138 15.7247 116.278 15.6478 116.387 15.5454C116.497 15.4301 116.594 15.2892 116.679 15.1227C116.764 14.9434 116.862 14.7321 116.971 14.4888L111.768 4.48026H114.726L118.304 11.6841L121.152 4.48026H124L119.673 14.8538C119.418 15.4557 119.156 15.968 118.888 16.3906C118.633 16.8004 118.341 17.1398 118.012 17.4087C117.683 17.6649 117.3 17.8506 116.862 17.9658C116.436 18.0939 115.925 18.1579 115.328 18.1579Z" fill="#808080"/>
<path d="M53.1338 28.2111H53.9367V30.2723H54.4051L56.1046 28.2111H57.0145L55.0407 30.5537L57.0814 33.1356H56.1046L54.4051 30.9336H53.9367V33.1356H53.1338V28.2111Z" fill="#808080"/>
<path d="M58.0184 34.62C57.9515 34.62 57.8846 34.6129 57.8177 34.5989V33.9235C57.8846 33.9376 57.9515 33.9446 58.0184 33.9446C58.0942 33.9446 58.1567 33.9305 58.2057 33.9024C58.2593 33.8789 58.3061 33.8344 58.3462 33.7687C58.3908 33.7078 58.4332 33.6257 58.4734 33.5225C58.518 33.4193 58.567 33.2903 58.6206 33.1356L57.1151 29.407H57.918L59.0019 32.2914L59.9788 29.407H60.7282L59.3566 33.1356C59.2584 33.3982 59.167 33.6233 59.0822 33.8109C58.9975 33.9985 58.9038 34.151 58.8012 34.2682C58.7031 34.3902 58.5916 34.4793 58.4667 34.5355C58.3418 34.5918 58.1924 34.62 58.0184 34.62Z" fill="#808080"/>
<path d="M62.8698 33.213C62.6289 33.213 62.4036 33.1661 62.194 33.0723C61.9844 32.9785 61.8037 32.8424 61.652 32.6642C61.5004 32.4813 61.3799 32.2585 61.2907 31.9959C61.206 31.7286 61.1636 31.4237 61.1636 31.0813V30.9406C61.1636 30.5185 61.1926 30.1433 61.2506 29.815C61.3086 29.4867 61.4067 29.2077 61.545 28.9779C61.6877 28.7434 61.8751 28.5628 62.107 28.4362C62.3434 28.3049 62.6356 28.2298 62.9835 28.2111C63.2645 28.197 63.5188 28.1853 63.7463 28.1759C63.9738 28.1618 64.1611 28.1149 64.3083 28.0352V28.7457C64.2369 28.7879 64.1053 28.8231 63.9135 28.8512C63.7217 28.8747 63.4452 28.8911 63.0839 28.9005C62.8742 28.9052 62.6914 28.931 62.5352 28.9779C62.3836 29.0248 62.2542 29.0998 62.1472 29.203C62.0446 29.3062 61.9621 29.4422 61.8996 29.611C61.8416 29.7752 61.8037 29.9768 61.7859 30.216C61.8885 29.9956 62.049 29.8174 62.2676 29.6814C62.4906 29.5407 62.7583 29.4703 63.0705 29.4703C63.2891 29.4703 63.4898 29.5102 63.6727 29.5899C63.86 29.665 64.0206 29.7775 64.1544 29.9276C64.2882 30.073 64.3908 30.2536 64.4622 30.4693C64.538 30.6803 64.5759 30.9195 64.5759 31.1869V31.3487C64.5759 31.6395 64.5313 31.9021 64.4421 32.1366C64.3574 32.3664 64.2392 32.561 64.0875 32.7205C63.9358 32.88 63.7552 33.0019 63.5455 33.0863C63.3404 33.1707 63.1151 33.213 62.8698 33.213ZM62.8698 32.5376C63.1597 32.5376 63.3917 32.4368 63.5656 32.2351C63.7396 32.0334 63.8266 31.7379 63.8266 31.3487V31.1869C63.8266 30.8586 63.7374 30.603 63.5589 30.42C63.385 30.2371 63.1552 30.1457 62.8698 30.1457C62.5843 30.1457 62.3523 30.2371 62.1739 30.42C62 30.5983 61.913 30.8539 61.913 31.1869V31.3487C61.913 31.5363 61.9375 31.7051 61.9866 31.8552C62.0356 32.0006 62.1026 32.1249 62.1873 32.2281C62.2765 32.3265 62.3791 32.4039 62.4951 32.4602C62.6111 32.5118 62.736 32.5376 62.8698 32.5376Z" fill="#808080"/>
<path d="M66.3472 33.213C66.1554 33.213 65.9836 33.1848 65.832 33.1285C65.6848 33.0676 65.5599 32.9855 65.4573 32.8823C65.3547 32.7744 65.2766 32.6502 65.2231 32.5095C65.1696 32.3688 65.1428 32.214 65.1428 32.0451C65.1428 31.6746 65.2477 31.4003 65.4573 31.222C65.6669 31.0391 65.9747 30.9477 66.3806 30.9477H67.4846V30.7437C67.4846 30.4623 67.4244 30.27 67.304 30.1668C67.188 30.0589 67.0029 30.005 66.7486 30.005C66.5211 30.005 66.3539 30.0425 66.2468 30.1175C66.1398 30.1926 66.0773 30.2958 66.0595 30.4271H65.3436C65.3525 30.2676 65.3904 30.1222 65.4573 29.9909C65.5287 29.8549 65.6246 29.7377 65.745 29.6392C65.8699 29.5407 66.0193 29.4656 66.1933 29.414C66.3673 29.3578 66.5635 29.3296 66.7821 29.3296C67.0007 29.3296 67.1969 29.3554 67.3709 29.407C67.5493 29.4586 67.701 29.5407 67.8259 29.6532C67.9508 29.7611 68.0467 29.9018 68.1136 30.0753C68.1849 30.2489 68.2206 30.4576 68.2206 30.7015V32.1858C68.2206 32.3828 68.2228 32.5564 68.2273 32.7064C68.2318 32.8518 68.2429 32.9949 68.2608 33.1356H67.5917C67.5783 33.0277 67.5671 32.9362 67.5582 32.8612C67.5538 32.7862 67.5515 32.6924 67.5515 32.5798C67.4668 32.7533 67.3196 32.9034 67.1099 33.03C66.9048 33.152 66.6505 33.213 66.3472 33.213ZM66.5479 32.5376C66.6728 32.5376 66.791 32.5212 66.9025 32.4883C67.0185 32.4508 67.1189 32.3992 67.2036 32.3336C67.2884 32.2632 67.3553 32.1788 67.4043 32.0803C67.4579 31.9771 67.4846 31.8599 67.4846 31.7286V31.5245H66.5145C66.3271 31.5245 66.1754 31.5668 66.0595 31.6512C65.948 31.7356 65.8922 31.8599 65.8922 32.024C65.8922 32.1788 65.9435 32.3031 66.0461 32.3969C66.1531 32.4907 66.3204 32.5376 66.5479 32.5376Z" fill="#808080"/>
<path d="M69.126 29.407H69.862V30.9055H71.5347V29.407H72.2707V33.1356H71.5347V31.5668H69.862V33.1356H69.126V29.407Z" fill="#808080"/>
<path d="M74.6817 33.213C74.4408 33.213 74.2178 33.1754 74.0126 33.1004C73.8119 33.0207 73.6357 32.9011 73.4841 32.7416C73.3369 32.5821 73.2209 32.3828 73.1361 32.1436C73.0514 31.9044 73.009 31.6254 73.009 31.3065V31.1658C73.009 30.8656 73.0536 30.6006 73.1428 30.3708C73.232 30.141 73.3525 29.9487 73.5041 29.7939C73.6603 29.6392 73.8387 29.5243 74.0394 29.4492C74.2446 29.3695 74.4587 29.3296 74.6817 29.3296C74.9137 29.3296 75.1189 29.3625 75.2973 29.4281C75.4802 29.4938 75.6341 29.5852 75.7589 29.7025C75.8883 29.815 75.9909 29.9487 76.0667 30.1035C76.1426 30.2582 76.1939 30.4247 76.2206 30.603H75.4712C75.4266 30.4294 75.3463 30.2864 75.2304 30.1738C75.1144 30.0613 74.9315 30.005 74.6817 30.005C74.5568 30.005 74.4386 30.0284 74.3271 30.0753C74.2156 30.1175 74.1175 30.1855 74.0327 30.2793C73.948 30.3731 73.8811 30.4951 73.832 30.6452C73.7829 30.7906 73.7584 30.9641 73.7584 31.1658V31.3065C73.7584 31.5269 73.7829 31.7168 73.832 31.8763C73.8811 32.0311 73.948 32.1577 74.0327 32.2562C74.1175 32.3547 74.2156 32.4274 74.3271 32.4743C74.4386 32.5165 74.5568 32.5376 74.6817 32.5376C75.0966 32.5376 75.3597 32.3383 75.4712 31.9396H76.2206C76.1849 32.1366 76.1225 32.3148 76.0333 32.4743C75.9485 32.629 75.8392 32.7627 75.7054 32.8753C75.5716 32.9831 75.4177 33.0676 75.2438 33.1285C75.0698 33.1848 74.8824 33.213 74.6817 33.213Z" fill="#808080"/>
<path d="M76.9211 29.407H77.6571V30.9195H78.0585L79.303 29.407H80.1327L78.6272 31.1869L80.1996 33.1356H79.303L78.0585 31.5527H77.6571V33.1356H76.9211V29.407Z" fill="#808080"/>
<path d="M80.8023 29.407H81.5383V32.0451L83.2444 29.407H83.947V33.1356H83.211V30.4974L81.5048 33.1356H80.8023V29.407Z" fill="#808080"/>
<path d="M84.886 29.407H85.622V32.0451L87.3282 29.407H88.0307V33.1356H87.2947V30.4974L85.5886 33.1356H84.886V29.407ZM86.4584 28.9849C86.0882 28.9849 85.8161 28.9005 85.6421 28.7316C85.4726 28.5581 85.3879 28.3142 85.3879 28H86.0703C86.0703 28.1688 86.1015 28.2908 86.164 28.3658C86.2309 28.4409 86.329 28.4784 86.4584 28.4784C86.5877 28.4784 86.6836 28.4409 86.7461 28.3658C86.813 28.2908 86.8465 28.1688 86.8465 28H87.5289C87.5289 28.3142 87.4419 28.5581 87.268 28.7316C87.094 28.9005 86.8242 28.9849 86.4584 28.9849Z" fill="#808080"/>
<path d="M90.6425 29.407H93.1181V30.0683H91.3785V33.1356H90.6425V29.407Z" fill="#808080"/>
<path d="M95.1936 33.213C94.9483 33.213 94.7185 33.1731 94.5044 33.0934C94.2948 33.0089 94.1119 32.887 93.9558 32.7275C93.7997 32.5681 93.677 32.3711 93.5878 32.1366C93.4986 31.8974 93.454 31.6207 93.454 31.3065V31.1658C93.454 30.8703 93.4986 30.61 93.5878 30.3849C93.677 30.1551 93.7997 29.9628 93.9558 29.808C94.1119 29.6485 94.2948 29.5289 94.5044 29.4492C94.7185 29.3695 94.9483 29.3296 95.1936 29.3296C95.4389 29.3296 95.6664 29.3695 95.8761 29.4492C96.0902 29.5289 96.2753 29.6485 96.4314 29.808C96.5875 29.9628 96.7102 30.1551 96.7994 30.3849C96.8886 30.61 96.9332 30.8703 96.9332 31.1658V31.3065C96.9332 31.6207 96.8886 31.8974 96.7994 32.1366C96.7102 32.3711 96.5875 32.5681 96.4314 32.7275C96.2753 32.887 96.0902 33.0089 95.8761 33.0934C95.6664 33.1731 95.4389 33.213 95.1936 33.213ZM95.1936 32.5376C95.3229 32.5376 95.4456 32.5141 95.5616 32.4672C95.682 32.4203 95.7868 32.3476 95.8761 32.2492C95.9697 32.1507 96.0433 32.024 96.0969 31.8693C96.1548 31.7145 96.1838 31.5269 96.1838 31.3065V31.1658C96.1838 30.9641 96.1548 30.7906 96.0969 30.6452C96.0433 30.4998 95.9697 30.3802 95.8761 30.2864C95.7868 30.1926 95.682 30.1222 95.5616 30.0753C95.4456 30.0284 95.3229 30.005 95.1936 30.005C95.0642 30.005 94.9393 30.0284 94.8189 30.0753C94.7029 30.1222 94.5981 30.1926 94.5044 30.2864C94.4152 30.3802 94.3416 30.4998 94.2836 30.6452C94.2301 30.7906 94.2033 30.9641 94.2033 31.1658V31.3065C94.2033 31.5269 94.2301 31.7145 94.2836 31.8693C94.3416 32.024 94.4152 32.1507 94.5044 32.2492C94.5981 32.3476 94.7029 32.4203 94.8189 32.4672C94.9393 32.5141 95.0642 32.5376 95.1936 32.5376Z" fill="#808080"/>
<path d="M99.1386 33.213C98.8977 33.213 98.6747 33.1754 98.4695 33.1004C98.2688 33.0207 98.0926 32.9011 97.9409 32.7416C97.7937 32.5821 97.6777 32.3828 97.593 32.1436C97.5082 31.9044 97.4659 31.6254 97.4659 31.3065V31.1658C97.4659 30.8656 97.5105 30.6006 97.5997 30.3708C97.6889 30.141 97.8093 29.9487 97.961 29.7939C98.1171 29.6392 98.2955 29.5243 98.4963 29.4492C98.7014 29.3695 98.9155 29.3296 99.1386 29.3296C99.3705 29.3296 99.5757 29.3625 99.7541 29.4281C99.937 29.4938 100.091 29.5852 100.216 29.7025C100.345 29.815 100.448 29.9487 100.524 30.1035C100.599 30.2582 100.651 30.4247 100.677 30.603H99.9281C99.8835 30.4294 99.8032 30.2864 99.6872 30.1738C99.5712 30.0613 99.3884 30.005 99.1386 30.005C99.0137 30.005 98.8955 30.0284 98.784 30.0753C98.6724 30.1175 98.5743 30.1855 98.4896 30.2793C98.4048 30.3731 98.3379 30.4951 98.2888 30.6452C98.2398 30.7906 98.2152 30.9641 98.2152 31.1658V31.3065C98.2152 31.5269 98.2398 31.7168 98.2888 31.8763C98.3379 32.0311 98.4048 32.1577 98.4896 32.2562C98.5743 32.3547 98.6724 32.4274 98.784 32.4743C98.8955 32.5165 99.0137 32.5376 99.1386 32.5376C99.5534 32.5376 99.8166 32.3383 99.9281 31.9396H100.677C100.642 32.1366 100.579 32.3148 100.49 32.4743C100.405 32.629 100.296 32.7627 100.162 32.8753C100.028 32.9831 99.8746 33.0676 99.7006 33.1285C99.5266 33.1848 99.3393 33.213 99.1386 33.213Z" fill="#808080"/>
<path d="M101.822 34.62C101.756 34.62 101.689 34.6129 101.622 34.5989V33.9235C101.689 33.9376 101.756 33.9446 101.822 33.9446C101.898 33.9446 101.961 33.9305 102.01 33.9024C102.063 33.8789 102.11 33.8344 102.15 33.7687C102.195 33.7078 102.237 33.6257 102.277 33.5225C102.322 33.4193 102.371 33.2903 102.425 33.1356L100.919 29.407H101.722L102.806 32.2914L103.783 29.407H104.532L103.161 33.1356C103.063 33.3982 102.971 33.6233 102.886 33.8109C102.802 33.9985 102.708 34.151 102.605 34.2682C102.507 34.3902 102.396 34.4793 102.271 34.5355C102.146 34.5918 101.996 34.62 101.822 34.62Z" fill="#808080"/>
<path d="M104.598 32.4743H104.999C105.044 32.4039 105.084 32.2984 105.12 32.1577C105.16 32.017 105.193 31.8575 105.22 31.6793C105.247 31.4964 105.267 31.3018 105.28 31.0954C105.294 30.8844 105.3 30.6733 105.3 30.4623V29.407H107.943V32.4743H108.412V34.0149H107.729V33.1356H105.28V34.0149H104.598V32.4743ZM107.207 32.4743V30.0683H106.01V30.603C106.01 30.9641 105.99 31.3112 105.949 31.6441C105.909 31.9724 105.842 32.2492 105.749 32.4743H107.207Z" fill="#808080"/>
<path d="M110.151 33.213C109.959 33.213 109.788 33.1848 109.636 33.1285C109.489 33.0676 109.364 32.9855 109.261 32.8823C109.159 32.7744 109.081 32.6502 109.027 32.5095C108.974 32.3688 108.947 32.214 108.947 32.0451C108.947 31.6746 109.052 31.4003 109.261 31.222C109.471 31.0391 109.779 30.9477 110.185 30.9477H111.289V30.7437C111.289 30.4623 111.229 30.27 111.108 30.1668C110.992 30.0589 110.807 30.005 110.553 30.005C110.325 30.005 110.158 30.0425 110.051 30.1175C109.944 30.1926 109.881 30.2958 109.864 30.4271H109.148C109.157 30.2676 109.194 30.1222 109.261 29.9909C109.333 29.8549 109.429 29.7377 109.549 29.6392C109.674 29.5407 109.823 29.4656 109.997 29.414C110.171 29.3578 110.368 29.3296 110.586 29.3296C110.805 29.3296 111.001 29.3554 111.175 29.407C111.353 29.4586 111.505 29.5407 111.63 29.6532C111.755 29.7611 111.851 29.9018 111.918 30.0753C111.989 30.2489 112.025 30.4576 112.025 30.7015V32.1858C112.025 32.3828 112.027 32.5564 112.031 32.7064C112.036 32.8518 112.047 32.9949 112.065 33.1356H111.396C111.382 33.0277 111.371 32.9362 111.362 32.8612C111.358 32.7862 111.356 32.6924 111.356 32.5798C111.271 32.7533 111.124 32.9034 110.914 33.03C110.709 33.152 110.455 33.213 110.151 33.213ZM110.352 32.5376C110.477 32.5376 110.595 32.5212 110.707 32.4883C110.823 32.4508 110.923 32.3992 111.008 32.3336C111.092 32.2632 111.159 32.1788 111.208 32.0803C111.262 31.9771 111.289 31.8599 111.289 31.7286V31.5245H110.319C110.131 31.5245 109.98 31.5668 109.864 31.6512C109.752 31.7356 109.696 31.8599 109.696 32.024C109.696 32.1788 109.748 32.3031 109.85 32.3969C109.957 32.4907 110.125 32.5376 110.352 32.5376Z" fill="#808080"/>
<path d="M112.93 29.407H113.613V30.0331C113.72 29.8174 113.878 29.6462 114.088 29.5196C114.302 29.3929 114.543 29.3296 114.81 29.3296C115.274 29.3296 115.64 29.482 115.907 29.7869C116.175 30.0917 116.309 30.5514 116.309 31.1658V31.3065C116.309 31.6254 116.273 31.9044 116.202 32.1436C116.131 32.3828 116.028 32.5821 115.894 32.7416C115.765 32.8964 115.609 33.0136 115.426 33.0934C115.243 33.1731 115.038 33.213 114.81 33.213C114.556 33.213 114.324 33.1543 114.114 33.0371C113.905 32.9198 113.755 32.7557 113.666 32.5446V34.5426H112.93V29.407ZM114.636 32.5376C114.913 32.5376 115.136 32.4368 115.305 32.2351C115.475 32.0334 115.56 31.7239 115.56 31.3065V31.1658C115.56 30.7718 115.477 30.481 115.312 30.2934C115.147 30.1011 114.922 30.005 114.636 30.005C114.511 30.005 114.391 30.0261 114.275 30.0683C114.159 30.1105 114.054 30.1738 113.96 30.2582C113.871 30.338 113.8 30.4412 113.746 30.5678C113.693 30.6897 113.666 30.8304 113.666 30.9899V31.4823C113.666 31.6606 113.693 31.8153 113.746 31.9467C113.8 32.078 113.871 32.1882 113.96 32.2773C114.05 32.3664 114.152 32.4321 114.268 32.4743C114.384 32.5165 114.507 32.5376 114.636 32.5376Z" fill="#808080"/>
<path d="M118.518 33.213C118.278 33.213 118.055 33.1754 117.849 33.1004C117.649 33.0207 117.472 32.9011 117.321 32.7416C117.174 32.5821 117.058 32.3828 116.973 32.1436C116.888 31.9044 116.846 31.6254 116.846 31.3065V31.1658C116.846 30.8656 116.89 30.6006 116.98 30.3708C117.069 30.141 117.189 29.9487 117.341 29.7939C117.497 29.6392 117.675 29.5243 117.876 29.4492C118.081 29.3695 118.295 29.3296 118.518 29.3296C118.75 29.3296 118.956 29.3625 119.134 29.4281C119.317 29.4938 119.471 29.5852 119.596 29.7025C119.725 29.815 119.828 29.9487 119.903 30.1035C119.979 30.2582 120.031 30.4247 120.057 30.603H119.308C119.263 30.4294 119.183 30.2864 119.067 30.1738C118.951 30.0613 118.768 30.005 118.518 30.005C118.394 30.005 118.275 30.0284 118.164 30.0753C118.052 30.1175 117.954 30.1855 117.869 30.2793C117.785 30.3731 117.718 30.4951 117.669 30.6452C117.62 30.7906 117.595 30.9641 117.595 31.1658V31.3065C117.595 31.5269 117.62 31.7168 117.669 31.8763C117.718 32.0311 117.785 32.1577 117.869 32.2562C117.954 32.3547 118.052 32.4274 118.164 32.4743C118.275 32.5165 118.394 32.5376 118.518 32.5376C118.933 32.5376 119.196 32.3383 119.308 31.9396H120.057C120.022 32.1366 119.959 32.3148 119.87 32.4743C119.785 32.629 119.676 32.7627 119.542 32.8753C119.408 32.9831 119.254 33.0676 119.081 33.1285C118.907 33.1848 118.719 33.213 118.518 33.213Z" fill="#808080"/>
<path d="M121.594 30.0683H120.423V29.407H123.501V30.0683H122.33V33.1356H121.594V30.0683Z" fill="#808080"/>
<path d="M124.103 29.407H125.776C126.222 29.407 126.545 29.5032 126.746 29.6954C126.947 29.883 127.047 30.1246 127.047 30.42C127.047 30.5842 127 30.7437 126.907 30.8984C126.813 31.0485 126.681 31.1493 126.512 31.2009C126.731 31.2572 126.896 31.3651 127.007 31.5245C127.123 31.6793 127.181 31.8622 127.181 32.0733C127.181 32.3969 127.078 32.6548 126.873 32.8471C126.668 33.0394 126.347 33.1356 125.91 33.1356H124.103V29.407ZM125.809 32.4743C126.05 32.4743 126.215 32.4344 126.305 32.3547C126.398 32.2703 126.445 32.153 126.445 32.0029C126.445 31.8529 126.398 31.7403 126.305 31.6652C126.215 31.5855 126.05 31.5457 125.809 31.5457H124.839V32.4743H125.809ZM125.709 30.9406C125.932 30.9406 126.088 30.9031 126.177 30.8281C126.267 30.7484 126.311 30.6405 126.311 30.5045C126.311 30.3685 126.267 30.2629 126.177 30.1879C126.088 30.1082 125.932 30.0683 125.709 30.0683H124.839V30.9406H125.709Z" fill="#808080"/>
<path d="M129.458 33.213C129.222 33.213 128.999 33.1754 128.789 33.1004C128.579 33.0207 128.394 32.9034 128.234 32.7486C128.077 32.5892 127.953 32.3899 127.859 32.1507C127.765 31.9115 127.718 31.6301 127.718 31.3065V31.1658C127.718 30.8562 127.763 30.5865 127.852 30.3567C127.941 30.1269 128.062 29.937 128.214 29.7869C128.37 29.6321 128.548 29.5172 128.749 29.4422C128.95 29.3671 129.164 29.3296 129.391 29.3296C129.931 29.3296 130.343 29.482 130.629 29.7869C130.919 30.0917 131.064 30.5279 131.064 31.0954V31.4894H128.468C128.472 31.6817 128.501 31.8458 128.555 31.9818C128.613 32.1131 128.686 32.221 128.776 32.3054C128.869 32.3852 128.974 32.4438 129.09 32.4813C129.21 32.5188 129.333 32.5376 129.458 32.5376C129.712 32.5376 129.897 32.4954 130.013 32.411C130.134 32.3265 130.216 32.2163 130.261 32.0803H130.997C130.926 32.4508 130.749 32.7322 130.468 32.9245C130.192 33.1168 129.855 33.213 129.458 33.213ZM129.425 30.005C129.3 30.005 129.179 30.0214 129.063 30.0542C128.952 30.0871 128.851 30.141 128.762 30.216C128.677 30.2864 128.608 30.3802 128.555 30.4974C128.501 30.61 128.472 30.7484 128.468 30.9125H130.328C130.323 30.739 130.297 30.5936 130.248 30.4763C130.203 30.3591 130.14 30.2653 130.06 30.1949C129.98 30.1246 129.884 30.0753 129.772 30.0472C129.665 30.0191 129.549 30.005 129.425 30.005Z" fill="#808080"/>
<path d="M131.8 29.407H132.536V30.9055H134.209V29.407H134.945V33.1356H134.209V31.5668H132.536V33.1356H131.8V29.407Z" fill="#808080"/>
<path d="M135.884 29.407H136.62V30.9055H138.293V29.407H139.029V33.1356H138.293V31.5668H136.62V33.1356H135.884V29.407Z" fill="#808080"/>
<path d="M139.968 29.407H140.704V30.7155H141.373C141.828 30.7155 142.165 30.8187 142.383 31.0251C142.602 31.2267 142.711 31.5269 142.711 31.9255C142.711 32.3007 142.604 32.5962 142.39 32.812C142.176 33.0277 141.837 33.1356 141.373 33.1356H139.968V29.407ZM141.306 32.4743C141.551 32.4743 141.723 32.4297 141.821 32.3406C141.924 32.2468 141.975 32.1085 141.975 31.9255C141.975 31.7426 141.924 31.6066 141.821 31.5175C141.723 31.4237 141.551 31.3768 141.306 31.3768H140.704V32.4743H141.306ZM143.179 29.407H143.915V33.1356H143.179V29.407Z" fill="#808080"/>
<path d="M144.855 29.407H145.591V32.0451L147.297 29.407H148V33.1356H147.264V30.4974L145.558 33.1356H144.855V29.407ZM146.428 28.9849C146.057 28.9849 145.785 28.9005 145.611 28.7316C145.442 28.5581 145.357 28.3142 145.357 28H146.04C146.04 28.1688 146.071 28.2908 146.133 28.3658C146.2 28.4409 146.298 28.4784 146.428 28.4784C146.557 28.4784 146.653 28.4409 146.715 28.3658C146.782 28.2908 146.816 28.1688 146.816 28H147.498C147.498 28.3142 147.411 28.5581 147.237 28.7316C147.063 28.9005 146.793 28.9849 146.428 28.9849Z" fill="#808080"/>
<path d="M53 38.787H53.8297L54.9604 40.9679L56.0912 38.787H56.8807V42.5156H56.1447V39.9478L55.208 41.7418H54.6727L53.736 39.9478V42.5156H53V38.787Z" fill="#808080"/>
<path d="M59.3545 42.593C59.1181 42.593 58.895 42.5555 58.6854 42.4804C58.4757 42.4007 58.2906 42.2835 58.13 42.1287C57.9739 41.9692 57.849 41.7699 57.7554 41.5307C57.6617 41.2915 57.6149 41.0101 57.6149 40.6865V40.5458C57.6149 40.2363 57.6595 39.9666 57.7487 39.7368C57.8379 39.507 57.9583 39.317 58.11 39.1669C58.2661 39.0122 58.4445 38.8973 58.6452 38.8222C58.846 38.7472 59.0601 38.7097 59.2876 38.7097C59.8273 38.7097 60.2399 38.8621 60.5254 39.1669C60.8153 39.4718 60.9603 39.908 60.9603 40.4755V40.8694H58.3642C58.3687 41.0617 58.3977 41.2259 58.4512 41.3619C58.5092 41.4932 58.5828 41.6011 58.672 41.6855C58.7657 41.7652 58.8705 41.8238 58.9865 41.8614C59.1069 41.8989 59.2296 41.9176 59.3545 41.9176C59.6087 41.9176 59.7938 41.8754 59.9098 41.791C60.0302 41.7066 60.1128 41.5964 60.1574 41.4604H60.8934C60.822 41.8309 60.6458 42.1123 60.3648 42.3046C60.0882 42.4968 59.7515 42.593 59.3545 42.593ZM59.321 39.385C59.1961 39.385 59.0757 39.4014 58.9597 39.4343C58.8482 39.4671 58.7478 39.521 58.6586 39.5961C58.5739 39.6664 58.5047 39.7602 58.4512 39.8775C58.3977 39.99 58.3687 40.1284 58.3642 40.2925H60.2243C60.2198 40.119 60.1931 39.9736 60.144 39.8564C60.0994 39.7391 60.0369 39.6453 59.9566 39.575C59.8764 39.5046 59.7805 39.4554 59.6689 39.4272C59.5619 39.3991 59.4459 39.385 59.321 39.385Z" fill="#808080"/>
<path d="M61.3296 41.8543H61.731C61.7756 41.784 61.8158 41.6784 61.8515 41.5377C61.8916 41.397 61.9251 41.2376 61.9518 41.0594C61.9786 40.8764 61.9987 40.6818 62.012 40.4755C62.0254 40.2644 62.0321 40.0533 62.0321 39.8423V38.787H64.675V41.8543H65.1434V43.395H64.4609V42.5156H62.012V43.395H61.3296V41.8543ZM63.939 41.8543V39.4483H62.7413V39.983C62.7413 40.3441 62.7213 40.6912 62.6811 41.0242C62.641 41.3525 62.5741 41.6292 62.4804 41.8543H63.939Z" fill="#808080"/>
<path d="M65.7806 38.787H66.5165V41.4252L68.2227 38.787H68.9252V42.5156H68.1893V39.8775L66.4831 42.5156H65.7806V38.787Z" fill="#808080"/>
<path d="M72.728 42.5156H69.8643V38.787H70.6003V41.8543H72.1392V38.787H72.8752V41.8543H73.4105V43.395H72.728V42.5156Z" fill="#808080"/>
<path d="M74.0461 38.787H74.7821V41.4252L76.4882 38.787H77.1908V42.5156H76.4548V39.8775L74.7486 42.5156H74.0461V38.787Z" fill="#808080"/>
<path d="M78.1299 38.787H78.8658V40.2855H80.5386V38.787H81.2746V42.5156H80.5386V40.9468H78.8658V42.5156H78.1299V38.787Z" fill="#808080"/>
<path d="M83.6856 42.593C83.4447 42.593 83.2217 42.5555 83.0165 42.4804C82.8158 42.4007 82.6396 42.2811 82.4879 42.1216C82.3407 41.9622 82.2248 41.7629 82.14 41.5237C82.0553 41.2845 82.0129 41.0054 82.0129 40.6865V40.5458C82.0129 40.2456 82.0575 39.9807 82.1467 39.7508C82.2359 39.521 82.3564 39.3287 82.508 39.174C82.6641 39.0192 82.8426 38.9043 83.0433 38.8293C83.2485 38.7495 83.4626 38.7097 83.6856 38.7097C83.9176 38.7097 84.1227 38.7425 84.3012 38.8081C84.484 38.8738 84.6379 38.9653 84.7628 39.0825C84.8922 39.1951 84.9948 39.3287 85.0706 39.4835C85.1464 39.6383 85.1977 39.8048 85.2245 39.983H84.4751C84.4305 39.8095 84.3502 39.6664 84.2343 39.5539C84.1183 39.4413 83.9354 39.385 83.6856 39.385C83.5607 39.385 83.4425 39.4085 83.331 39.4554C83.2195 39.4976 83.1213 39.5656 83.0366 39.6594C82.9518 39.7532 82.8849 39.8751 82.8359 40.0252C82.7868 40.1706 82.7623 40.3441 82.7623 40.5458V40.6865C82.7623 40.9069 82.7868 41.0969 82.8359 41.2563C82.8849 41.4111 82.9518 41.5377 83.0366 41.6362C83.1213 41.7347 83.2195 41.8074 83.331 41.8543C83.4425 41.8965 83.5607 41.9176 83.6856 41.9176C84.1004 41.9176 84.3636 41.7183 84.4751 41.3197H85.2245C85.1888 41.5166 85.1264 41.6949 85.0372 41.8543C84.9524 42.0091 84.8431 42.1428 84.7093 42.2553C84.5755 42.3632 84.4216 42.4476 84.2476 42.5086C84.0737 42.5649 83.8863 42.593 83.6856 42.593Z" fill="#808080"/>
<path d="M85.9249 38.787H86.6609V40.2996H87.0624L88.3069 38.787H89.1366L87.6311 40.5669L89.2035 42.5156H88.3069L87.0624 40.9327H86.6609V42.5156H85.9249V38.787Z" fill="#808080"/>
<path d="M89.8062 38.787H90.5422V41.4252L92.2483 38.787H92.9509V42.5156H92.2149V39.8775L90.5087 42.5156H89.8062V38.787Z" fill="#808080"/>
<path d="M93.8899 38.787H94.6259V41.4252L96.3321 38.787H97.0346V42.5156H96.2986V39.8775L94.5925 42.5156H93.8899V38.787ZM95.4623 38.3649C95.092 38.3649 94.82 38.2805 94.646 38.1117C94.4765 37.9382 94.3917 37.6943 94.3917 37.38H95.0742C95.0742 37.5489 95.1054 37.6708 95.1679 37.7459C95.2348 37.8209 95.3329 37.8584 95.4623 37.8584C95.5916 37.8584 95.6875 37.8209 95.75 37.7459C95.8169 37.6708 95.8503 37.5489 95.8503 37.38H96.5328C96.5328 37.6943 96.4458 37.9382 96.2719 38.1117C96.0979 38.2805 95.828 38.3649 95.4623 38.3649Z" fill="#808080"/>
<path d="M100.215 44C100.148 44 100.081 43.993 100.014 43.9789V43.3035C100.081 43.3176 100.148 43.3246 100.215 43.3246C100.291 43.3246 100.353 43.3106 100.402 43.2824C100.456 43.259 100.503 43.2144 100.543 43.1488C100.588 43.0878 100.63 43.0057 100.67 42.9025C100.715 42.7994 100.764 42.6704 100.817 42.5156L99.3119 38.787H100.115L101.199 41.6714L102.176 38.787H102.925L101.553 42.5156C101.455 42.7783 101.364 43.0034 101.279 43.191C101.194 43.3786 101.101 43.531 100.998 43.6482C100.9 43.7702 100.788 43.8593 100.663 43.9156C100.539 43.9719 100.389 44 100.215 44Z" fill="#808080"/>
<path d="M103.528 38.787H104.264V40.2855H105.936V38.787H106.672V42.5156H105.936V40.9468H104.264V42.5156H103.528V38.787Z" fill="#808080"/>
<path d="M107.611 38.787H108.347V41.4252L110.054 38.787H110.756V42.5156H110.02V39.8775L108.314 42.5156H107.611V38.787Z" fill="#808080"/>
<path d="M111.695 38.787H113.368C113.814 38.787 114.137 38.8832 114.338 39.0755C114.539 39.2631 114.639 39.5046 114.639 39.8001C114.639 39.9642 114.592 40.1237 114.499 40.2785C114.405 40.4286 114.273 40.5294 114.104 40.581C114.322 40.6373 114.487 40.7451 114.599 40.9046C114.715 41.0594 114.773 41.2423 114.773 41.4533C114.773 41.7769 114.67 42.0349 114.465 42.2272C114.26 42.4195 113.939 42.5156 113.502 42.5156H111.695V38.787ZM113.401 41.8543C113.642 41.8543 113.807 41.8145 113.896 41.7347C113.99 41.6503 114.037 41.5331 114.037 41.383C114.037 41.2329 113.99 41.1203 113.896 41.0453C113.807 40.9656 113.642 40.9257 113.401 40.9257H112.431V41.8543H113.401ZM113.301 40.3207C113.524 40.3207 113.68 40.2832 113.769 40.2081C113.859 40.1284 113.903 40.0205 113.903 39.8845C113.903 39.7485 113.859 39.643 113.769 39.5679C113.68 39.4882 113.524 39.4483 113.301 39.4483H112.431V40.3207H113.301Z" fill="#808080"/>
<path d="M117.05 42.593C116.813 42.593 116.59 42.5555 116.381 42.4804C116.171 42.4007 115.986 42.2835 115.825 42.1287C115.669 41.9692 115.544 41.7699 115.451 41.5307C115.357 41.2915 115.31 41.0101 115.31 40.6865V40.5458C115.31 40.2363 115.355 39.9666 115.444 39.7368C115.533 39.507 115.654 39.317 115.805 39.1669C115.962 39.0122 116.14 38.8973 116.341 38.8222C116.541 38.7472 116.756 38.7097 116.983 38.7097C117.523 38.7097 117.935 38.8621 118.221 39.1669C118.511 39.4718 118.656 39.908 118.656 40.4755V40.8694H116.06C116.064 41.0617 116.093 41.2259 116.147 41.3619C116.205 41.4932 116.278 41.6011 116.367 41.6855C116.461 41.7652 116.566 41.8238 116.682 41.8614C116.802 41.8989 116.925 41.9176 117.05 41.9176C117.304 41.9176 117.489 41.8754 117.605 41.791C117.726 41.7066 117.808 41.5964 117.853 41.4604H118.589C118.517 41.8309 118.341 42.1123 118.06 42.3046C117.784 42.4968 117.447 42.593 117.05 42.593ZM117.016 39.385C116.892 39.385 116.771 39.4014 116.655 39.4343C116.544 39.4671 116.443 39.521 116.354 39.5961C116.269 39.6664 116.2 39.7602 116.147 39.8775C116.093 39.99 116.064 40.1284 116.06 40.2925H117.92C117.915 40.119 117.888 39.9736 117.839 39.8564C117.795 39.7391 117.732 39.6453 117.652 39.575C117.572 39.5046 117.476 39.4554 117.364 39.4272C117.257 39.3991 117.141 39.385 117.016 39.385Z" fill="#808080"/>
<path d="M119.392 38.787H120.075V39.4132C120.182 39.1974 120.34 39.0262 120.55 38.8996C120.764 38.773 121.005 38.7097 121.272 38.7097C121.736 38.7097 122.102 38.8621 122.37 39.1669C122.637 39.4718 122.771 39.9314 122.771 40.5458V40.6865C122.771 41.0054 122.735 41.2845 122.664 41.5237C122.593 41.7629 122.49 41.9622 122.356 42.1216C122.227 42.2764 122.071 42.3937 121.888 42.4734C121.705 42.5531 121.5 42.593 121.272 42.593C121.018 42.593 120.786 42.5344 120.576 42.4171C120.367 42.2999 120.217 42.1357 120.128 41.9247V43.9226H119.392V38.787ZM121.098 41.9176C121.375 41.9176 121.598 41.8168 121.767 41.6151C121.937 41.4135 122.022 41.1039 122.022 40.6865V40.5458C122.022 40.1518 121.939 39.8611 121.774 39.6735C121.609 39.4812 121.384 39.385 121.098 39.385C120.973 39.385 120.853 39.4061 120.737 39.4483C120.621 39.4905 120.516 39.5539 120.423 39.6383C120.333 39.718 120.262 39.8212 120.209 39.9478C120.155 40.0698 120.128 40.2105 120.128 40.3699V40.8624C120.128 41.0406 120.155 41.1954 120.209 41.3267C120.262 41.458 120.333 41.5682 120.423 41.6573C120.512 41.7464 120.614 41.8121 120.73 41.8543C120.846 41.8965 120.969 41.9176 121.098 41.9176Z" fill="#808080"/>
<path d="M124.981 42.593C124.74 42.593 124.517 42.5555 124.312 42.4804C124.111 42.4007 123.935 42.2811 123.783 42.1216C123.636 41.9622 123.52 41.7629 123.435 41.5237C123.35 41.2845 123.308 41.0054 123.308 40.6865V40.5458C123.308 40.2456 123.353 39.9807 123.442 39.7508C123.531 39.521 123.651 39.3287 123.803 39.174C123.959 39.0192 124.138 38.9043 124.338 38.8293C124.544 38.7495 124.758 38.7097 124.981 38.7097C125.213 38.7097 125.418 38.7425 125.596 38.8081C125.779 38.8738 125.933 38.9653 126.058 39.0825C126.187 39.1951 126.29 39.3287 126.366 39.4835C126.441 39.6383 126.493 39.8048 126.52 39.983H125.77C125.726 39.8095 125.645 39.6664 125.529 39.5539C125.413 39.4413 125.23 39.385 124.981 39.385C124.856 39.385 124.738 39.4085 124.626 39.4554C124.515 39.4976 124.416 39.5656 124.332 39.6594C124.247 39.7532 124.18 39.8751 124.131 40.0252C124.082 40.1706 124.057 40.3441 124.057 40.5458V40.6865C124.057 40.9069 124.082 41.0969 124.131 41.2563C124.18 41.4111 124.247 41.5377 124.332 41.6362C124.416 41.7347 124.515 41.8074 124.626 41.8543C124.738 41.8965 124.856 41.9176 124.981 41.9176C125.395 41.9176 125.659 41.7183 125.77 41.3197H126.52C126.484 41.5166 126.421 41.6949 126.332 41.8543C126.247 42.0091 126.138 42.1428 126.004 42.2553C125.871 42.3632 125.717 42.4476 125.543 42.5086C125.369 42.5649 125.181 42.593 124.981 42.593Z" fill="#808080"/>
<path d="M127.22 38.787H127.956V41.4252L129.662 38.787H130.365V42.5156H129.629V39.8775L127.923 42.5156H127.22V38.787Z" fill="#808080"/>
<path d="M132.14 39.4483H130.969V38.787H134.047V39.4483H132.876V42.5156H132.14V39.4483Z" fill="#808080"/>
<path d="M136.123 42.593C135.886 42.593 135.663 42.5555 135.454 42.4804C135.244 42.4007 135.059 42.2835 134.898 42.1287C134.742 41.9692 134.617 41.7699 134.524 41.5307C134.43 41.2915 134.383 41.0101 134.383 40.6865V40.5458C134.383 40.2363 134.428 39.9666 134.517 39.7368C134.606 39.507 134.727 39.317 134.878 39.1669C135.034 39.0122 135.213 38.8973 135.413 38.8222C135.614 38.7472 135.828 38.7097 136.056 38.7097C136.596 38.7097 137.008 38.8621 137.294 39.1669C137.584 39.4718 137.729 39.908 137.729 40.4755V40.8694H135.132C135.137 41.0617 135.166 41.2259 135.219 41.3619C135.277 41.4932 135.351 41.6011 135.44 41.6855C135.534 41.7652 135.639 41.8238 135.755 41.8614C135.875 41.8989 135.998 41.9176 136.123 41.9176C136.377 41.9176 136.562 41.8754 136.678 41.791C136.798 41.7066 136.881 41.5964 136.926 41.4604H137.662C137.59 41.8309 137.414 42.1123 137.133 42.3046C136.856 42.4968 136.52 42.593 136.123 42.593ZM136.089 39.385C135.964 39.385 135.844 39.4014 135.728 39.4343C135.616 39.4671 135.516 39.521 135.427 39.5961C135.342 39.6664 135.273 39.7602 135.219 39.8775C135.166 39.99 135.137 40.1284 135.132 40.2925H136.993C136.988 40.119 136.961 39.9736 136.912 39.8564C136.868 39.7391 136.805 39.6453 136.725 39.575C136.645 39.5046 136.549 39.4554 136.437 39.4272C136.33 39.3991 136.214 39.385 136.089 39.385Z" fill="#808080"/>
<path d="M139.236 39.4483H138.065V38.787H141.143V39.4483H139.972V42.5156H139.236V39.4483Z" fill="#808080"/>
<path fill-rule="evenodd" clip-rule="evenodd" d="M19.6947 3.99075C17.0599 2.06882 13.8358 0.938232 10.3554 0.938232C6.51908 0.938232 2.99421 2.31184 0.226759 4.60477L0 4.79265V5.09194V41.2007V42.6201L1.01918 41.6635L1.01942 41.6633L1.01966 41.6631L1.01999 41.6628L1.02466 41.6585L1.05021 41.6355C1.07415 41.6142 1.11183 41.5813 1.16297 41.5384C1.26527 41.4526 1.42124 41.327 1.62851 41.1748C2.04327 40.8703 2.66204 40.4601 3.46591 40.0489C5.07362 39.2263 7.41515 38.4024 10.3464 38.4024C11.9305 38.4024 13.3424 38.643 14.5592 38.994L14.5863 38.9123C15.2128 39.1407 15.8969 39.1517 16.5304 38.9436C17.1638 38.7356 17.7104 38.3203 18.0838 37.7634C19.161 36.3427 19.5201 33.8637 17.9401 31.5261C17.8754 31.4302 17.81 31.337 17.7441 31.2464C17.2604 31.6884 16.6585 31.9832 16.0082 32.0908C15.2046 32.2238 14.3804 32.0619 13.6848 31.6345C14.2083 31.0046 14.9383 30.5851 15.7421 30.4521C16.215 30.3739 16.695 30.3979 17.1517 30.518C16.0945 29.359 14.9182 28.7671 13.7268 28.5165L13.7265 28.5174L13.7107 28.5132C12.2331 28.2063 10.7329 28.4227 9.40834 28.7317L9.08517 27.3219C9.64662 27.1901 10.2576 27.0697 10.8998 26.9944C10.7877 26.8949 10.6785 26.7917 10.5726 26.6847C9.69978 25.8038 9.07335 24.7056 8.75681 23.5014L9.52711 23.3384L10.1608 23.2006C10.4238 24.1478 10.9288 25.0087 11.6252 25.6969C12.2874 26.3514 13.1006 26.8279 13.9904 27.0842C15.6127 27.4127 17.2528 28.2676 18.6778 30.0784C18.4593 29.0699 18.1083 28.0394 17.5486 26.7888C16.9203 26.9931 16.2432 27.009 15.601 26.8293C14.8166 26.6097 14.1365 26.1129 13.6848 25.4293C14.4211 25.0798 15.2571 25.0082 16.0411 25.2277C16.3958 25.327 16.7293 25.4828 17.0301 25.687C16.4692 24.5449 15.7528 23.2165 14.8385 21.5917C14.7005 21.3465 14.5687 21.104 14.4429 20.8643C13.7763 20.9879 13.085 20.907 12.46 20.6272C11.7168 20.2944 11.1173 19.7026 10.7711 18.96C11.5489 18.7231 12.3851 18.7757 13.1277 19.1082C13.3551 19.2101 13.5691 19.3361 13.7666 19.4832C11.5085 14.5151 11.814 11.0574 11.833 10.8819L13.2693 11.0233L13.2686 11.0347C13.2591 11.1848 13.159 12.762 13.7815 15.2134C13.8707 14.869 14.0138 14.5382 14.208 14.2343C14.6469 13.5475 15.3171 13.0442 16.095 12.8172C16.2141 13.6265 16.0375 14.4518 15.5981 15.1393C15.239 15.7013 14.7244 16.1398 14.1227 16.4037C14.5449 17.7268 15.1696 19.2385 16.0917 20.8741C16.2377 21.1339 16.3788 21.3867 16.5153 21.6328C17.0642 18.8228 19.5519 18.0155 19.6422 17.9861L19.6444 17.9854L19.8455 18.6813L20.0538 19.3735L20.0462 19.3759C19.6921 19.4892 16.977 20.4997 18.1259 24.6601C18.8451 26.0957 19.3461 27.2649 19.6939 28.3353C20.2325 26.5702 21.2817 24.5416 23.3187 20.92C22.7061 20.5764 22.2142 20.0446 21.9173 19.398C21.5768 18.6567 21.516 17.8155 21.7462 17.0321C22.4862 17.3623 23.082 17.9529 23.4223 18.6939C23.635 19.1571 23.7388 19.6593 23.7309 20.1621C23.8227 19.9864 23.9111 19.8124 23.9962 19.6401C24.4306 17.131 24.1047 15.3091 23.0288 14.2232C21.3698 12.5488 18.3607 13.0743 18.3356 13.0815L18.077 11.6572C18.1542 11.6424 19.1375 11.4653 20.3739 11.592C20.0856 11.3088 19.8483 10.9728 19.6763 10.5983C19.3358 9.85704 19.275 9.01584 19.5052 8.2325C20.2453 8.56266 20.841 9.1533 21.1813 9.89422C21.453 10.4859 21.547 11.1411 21.4574 11.78C21.8267 11.8728 22.2015 11.9992 22.5676 12.1693C22.5256 10.5398 23.3753 9.52754 23.4228 9.47163L24.0546 10.0286L24.5287 10.4321C24.4862 10.4822 23.5428 11.6609 24.3374 13.5172C24.8863 14.1751 25.2595 14.983 25.4558 15.9342C26.3309 12.9595 26.1729 11.0502 26.1705 11.0233L27.6068 10.8819C27.6068 10.8908 27.6078 10.9093 27.6092 10.9373C27.634 11.4255 27.8044 14.7819 25.6724 19.4827C25.8699 19.3357 26.084 19.2098 26.3113 19.1081C27.0546 18.7756 27.8913 18.7231 28.6696 18.9603C28.3233 19.7036 27.7232 20.2959 26.9792 20.6288C26.3541 20.9084 25.6628 20.9891 24.9963 20.8653C24.8706 21.1047 24.7391 21.3468 24.6013 21.5917C23.6443 23.2895 22.914 24.6191 22.3569 25.7252C22.6718 25.5022 23.0244 25.3331 23.4009 25.2277C24.185 25.0082 25.021 25.0798 25.7572 25.4293C25.3055 26.1129 24.6254 26.6097 23.841 26.8293C23.1839 27.0132 22.4903 26.9923 21.8499 26.7743C21.2423 28.0969 20.922 29.0956 20.7536 30.1349C22.1657 28.3081 23.8001 27.4376 25.4211 27.0967C26.3249 26.8401 27.1504 26.3571 27.8205 25.6919C28.5134 25.004 29.016 24.1451 29.2784 23.2006L30.6825 23.5014C30.3661 24.7033 29.7415 25.7998 28.8716 26.6805C28.7657 26.7876 28.6567 26.8911 28.5447 26.9908C29.1992 27.0658 29.8215 27.188 30.3921 27.3219L30.069 28.7317C27.6671 28.1713 24.6905 27.9155 22.3135 30.5323C22.7855 30.4 23.2838 30.371 23.7745 30.4523C24.5777 30.5853 25.3069 31.0047 25.8298 31.6342C25.1348 32.0614 24.3112 32.2232 23.5082 32.0902C22.8477 31.9808 22.2371 31.678 21.7499 31.2239C21.6783 31.3215 21.6074 31.4222 21.5372 31.5261C19.9608 33.8637 20.3307 36.3427 21.3971 37.7634C21.7699 38.32 22.3159 38.7351 22.9487 38.9432C23.5815 39.1513 24.265 39.1404 24.891 38.9123L24.9106 38.9711C26.1091 38.6326 27.4937 38.4024 29.0429 38.4024C31.9742 38.4024 34.3157 39.2263 35.9234 40.0489C36.7273 40.4601 37.3461 40.8703 37.7608 41.1748C37.9681 41.327 38.1241 41.4526 38.2264 41.5384C38.2565 41.5636 38.2819 41.5854 38.3026 41.6034L38.3273 41.625L38.3391 41.6355L38.3647 41.6585L38.3694 41.6628L38.3697 41.663L38.3699 41.6633L38.3702 41.6635L39.3894 42.6201V41.2007V5.09194V4.79265L39.1626 4.60477C36.3951 2.31184 32.8703 0.938232 29.0339 0.938232C25.5535 0.938232 22.3294 2.06882 19.6947 3.99075ZM22.0237 40.1208C21.9575 40.0902 21.8919 40.0579 21.8271 40.024C21.1972 39.6948 20.6526 39.2209 20.2373 38.6405C20.0539 38.3955 19.886 38.1268 19.7375 37.8383C19.5886 38.1268 19.4203 38.3955 19.2364 38.6405C18.8207 39.2223 18.2751 39.6971 17.6438 40.0264C17.5654 40.0673 17.486 40.1058 17.4057 40.1419C18.123 40.5214 18.6808 40.8933 19.0643 41.1748C19.2716 41.327 19.4275 41.4526 19.5298 41.5384C19.581 41.5813 19.6187 41.6142 19.6426 41.6355L19.6682 41.6585L19.6731 41.663C19.6731 41.663 19.6731 41.663 19.6761 41.6596C19.6789 41.6564 19.6842 41.6503 19.6947 41.6385C19.7163 41.663 19.7162 41.6631 19.7162 41.6631L19.7212 41.6585L19.7467 41.6355C19.7707 41.6142 19.8084 41.5813 19.8595 41.5384C19.9618 41.4526 20.1178 41.327 20.325 41.1748C20.7156 40.888 21.2871 40.5076 22.0237 40.1208ZM10.2474 19.8047C9.99295 19.0303 9.46768 18.3759 8.76986 17.964C8.45255 18.7149 8.41793 19.557 8.67252 20.3318C8.9271 21.1067 9.45334 21.761 10.1523 22.1718C10.468 21.4207 10.5018 20.5792 10.2474 19.8047ZM30.3857 17.964C29.6879 18.3759 29.1626 19.0303 28.9082 19.8047C28.6537 20.5792 28.6875 21.4207 29.0033 22.1718C29.7022 21.761 30.2285 21.1067 30.4831 20.3318C30.7376 19.557 30.703 18.7149 30.3857 17.964ZM30.6211 8.32031V6.95324H32.8087V4.766L34.1758 4.766V6.95324H36.3628V8.32031H34.1758V10.5077H32.8087V8.32031H30.6211Z" fill="#808080"/>
<path d="M13 45.4396L13.2465 46.1923L14.0302 46.0055V48.9231H15.0415V45.0769H14.1567L13 45.4396Z" fill="#808080"/>
<path d="M18.8991 46.3571C18.8991 45.956 18.7474 45.6319 18.444 45.3791C18.1406 45.1264 17.7424 45 17.2557 45C16.769 45 16.3772 45.1264 16.0675 45.3791C15.7641 45.6319 15.6124 45.956 15.6124 46.3571C15.6124 46.7308 15.7451 47.044 16.0169 47.2912C16.2887 47.5385 16.649 47.6813 17.0851 47.7088L16.1244 48.9231H17.2873L18.6399 47.1374C18.8106 46.9121 18.8991 46.6538 18.8991 46.3571ZM16.807 45.9725C17.0535 45.7747 17.458 45.7747 17.7045 45.967C17.8246 46.0604 17.8878 46.1923 17.8878 46.3571C17.8878 46.522 17.8246 46.6538 17.7045 46.7473C17.458 46.9396 17.0535 46.9396 16.807 46.7473C16.6869 46.6484 16.6237 46.5165 16.6237 46.3571C16.6237 46.1978 16.6869 46.0659 16.807 45.9725Z" fill="#808080"/>
<path d="M22.0469 48.9231V48.0769H20.5616L21.2948 47.4341C21.7562 47.033 21.9837 46.6319 21.9837 46.2253C21.9837 45.8516 21.8383 45.5549 21.5413 45.3352C21.2505 45.1099 20.8966 45 20.4858 45C19.8474 45 19.2659 45.2912 18.9941 45.8407L19.8474 46.2747C19.9864 45.9945 20.2013 45.8571 20.4984 45.8571C20.7955 45.8571 20.9724 46.022 20.9724 46.2637C20.9724 46.4505 20.8207 46.6758 20.5237 46.9451L19.0384 48.2857V48.9231H22.0469Z" fill="#808080"/>
<path d="M25.5196 48.456C25.842 48.0879 26 47.6044 26 47C26 46.3956 25.842 45.9121 25.5196 45.5495C25.2036 45.1813 24.7612 45 24.1987 45C23.6361 45 23.1937 45.1813 22.8713 45.5495C22.5553 45.9121 22.3973 46.3956 22.3973 47C22.3973 47.6044 22.5553 48.0879 22.8713 48.456C23.1937 48.8187 23.6361 49 24.1987 49C24.7612 49 25.2036 48.8187 25.5196 48.456ZM23.4086 47C23.4086 46.2363 23.6741 45.8571 24.1987 45.8571C24.7233 45.8571 24.9887 46.2363 24.9887 47C24.9887 47.7637 24.7233 48.1429 24.1987 48.1429C23.6741 48.1429 23.4086 47.7637 23.4086 47Z" fill="#808080"/>
</svg>
