<svg width="45" height="46" viewBox="0 0 45 46" fill="none" xmlns="http://www.w3.org/2000/svg">
<path d="M3.04725 1.11875C2.97076 0.914045 2.87241 0.718 2.75388 0.533946C2.68755 0.441774 2.61606 0.353351 2.53973 0.269091C2.50333 0.226714 2.45836 0.188577 2.41767 0.148319C2.37185 0.105139 2.32162 0.0667918 2.26777 0.0338999L2.21424 9.05266e-07L2.15428 0.0190697C1.89442 0.108058 1.65128 0.239087 1.43476 0.406818C1.22734 0.569415 1.0359 0.751029 0.862997 0.94924C0.69057 1.1446 0.531739 1.35131 0.387599 1.56794C0.242781 1.78118 0.113263 2.0042 -7.84215e-07 2.23538C0.154182 2.02349 0.316931 1.83279 0.483963 1.63998C0.650994 1.44717 0.824451 1.26071 1.00861 1.08908C1.18743 0.914138 1.38164 0.755302 1.58894 0.614463C1.76695 0.489008 1.96243 0.3898 2.16927 0.319944L2.21852 0.362321C2.25064 0.396222 2.28491 0.428007 2.31703 0.464027C2.37893 0.538656 2.43683 0.616453 2.49048 0.697098C2.53759 0.78397 2.59541 0.864486 2.63396 0.955596L2.70034 1.08908C2.72176 1.13358 2.73889 1.18231 2.75816 1.22681L2.81384 1.36665C2.83097 1.41327 2.84382 1.46412 2.85881 1.51073C2.89186 1.60595 2.91974 1.70285 2.94232 1.80101C2.96374 1.9006 2.99158 1.99806 3.01299 2.09765L3.06653 2.39853C3.0858 2.49811 3.09437 2.61041 3.10721 2.70152L3.14362 3.00875L3.16503 3.31598C3.16503 3.41769 3.18431 3.52787 3.18431 3.62533C3.18431 3.83722 3.1993 4.0491 3.1993 4.24615C3.1993 4.44321 3.1993 4.66992 3.1993 4.86909C3.2357 4.65721 3.26996 4.45804 3.29994 4.25039C3.32992 4.04275 3.34277 3.82662 3.3599 3.61474C3.37703 3.40286 3.37061 3.19097 3.37489 2.97909L3.35776 2.66126C3.3555 2.55562 3.34692 2.4502 3.33206 2.34555C3.29091 1.92619 3.19518 1.51384 3.04725 1.11875Z" transform="translate(19.1851 33.217)" fill="#F4F4F4"/>
<path d="M0.0952197 8.31644C0.0789404 8.10487 0.0789404 7.89237 0.0952197 7.68079C0.105458 7.47207 0.127621 7.26409 0.161603 7.05785C0.224946 6.64613 0.326744 6.24111 0.465688 5.848C0.741851 5.068 1.14869 4.33955 1.66917 3.69314C1.92715 3.37041 2.20689 3.0653 2.50647 2.77992C2.66065 2.64219 2.81055 2.49811 2.9733 2.37098L3.21314 2.17393L3.46155 1.98535C3.97686 1.60426 4.52095 1.26283 5.08903 0.964072C5.04835 1.12722 5.01408 1.28825 4.97982 1.45352C4.9113 1.81046 4.86624 2.17142 4.84491 2.53413C4.82028 2.89675 4.82028 3.2606 4.84491 3.62321C4.87577 3.98688 4.93592 4.34752 5.02479 4.7017C5.05049 4.78858 5.06976 4.87757 5.0976 4.96444L5.18326 5.22506C5.25178 5.39456 5.31817 5.56619 5.3974 5.72934C5.55563 6.0577 5.75259 6.36637 5.98415 6.64892L6.06981 6.75486L6.16189 6.85444C6.22399 6.92013 6.28395 6.98793 6.34819 7.05361C6.48017 7.17752 6.61885 7.29423 6.76363 7.40322C6.98209 7.57606 7.21572 7.72922 7.46174 7.86089L7.48743 7.87572C7.3359 8.13608 7.20281 8.40653 7.08913 8.68512C7.01927 8.85753 6.95921 9.03367 6.90925 9.21271C6.89426 9.26568 6.87927 9.31866 6.86642 9.37374C6.42938 9.00149 6.03642 8.58139 5.69506 8.12151C5.49068 7.83639 5.3102 7.53522 5.15542 7.221C5.00212 6.90481 4.87326 6.57757 4.76996 6.2421C4.5751 5.55985 4.48062 4.85337 4.48943 4.14445C4.49306 3.78985 4.52097 3.4359 4.57295 3.08503C4.62013 2.72632 4.69676 2.37201 4.80208 2.02561C4.66202 2.36015 4.55168 2.70612 4.4723 3.0596C4.38904 3.41447 4.33249 3.77495 4.30313 4.13809C4.27635 4.50276 4.27635 4.86887 4.30313 5.23353C4.3316 5.60027 4.38815 5.96434 4.4723 6.32262C4.55967 6.68551 4.67934 7.04003 4.82992 7.38204C4.98155 7.72201 5.16058 8.04937 5.36528 8.36094C5.78688 8.97624 6.29939 9.52548 6.88569 9.99033L7.20691 10.2467L7.26258 9.82294C7.26258 9.75725 7.29042 9.66826 7.30755 9.58987C7.32469 9.51147 7.34824 9.42671 7.37608 9.3462C7.42319 9.18517 7.48529 9.02625 7.54953 8.86734C7.68192 8.55206 7.8402 8.24805 8.02279 7.95836C8.20777 7.66842 8.41389 7.39224 8.63952 7.13201L8.81298 6.9392L8.90078 6.84385L8.99286 6.75274L9.17916 6.57052C9.23912 6.51119 9.30765 6.43703 9.37189 6.35864C9.43613 6.28024 9.50466 6.22303 9.56676 6.14675L9.73808 5.92004L9.82373 5.80774L9.90083 5.70815L10.0464 5.46449C10.2212 5.12913 10.3522 4.77313 10.4362 4.40507C10.5166 4.03911 10.5526 3.66495 10.5433 3.29056C10.5378 3.10417 10.5228 2.91818 10.4983 2.7333C10.4983 2.7333 10.4983 2.72271 10.4983 2.71635C10.6118 2.79899 10.7124 2.88798 10.8323 2.97909C11.0741 3.18755 11.2969 3.41655 11.4983 3.66347C11.7023 3.91014 11.8843 4.17387 12.0423 4.45168C12.2004 4.7308 12.3323 5.02373 12.4363 5.32676C12.6457 5.94133 12.7542 6.58516 12.7575 7.23372C12.7607 7.88941 12.6889 8.54335 12.5433 9.18305C12.754 8.55276 12.8821 7.89836 12.9245 7.23584C12.9677 6.56472 12.8953 5.89122 12.7104 5.24413C12.5233 4.58894 12.2147 3.97391 11.8003 3.4304C11.5929 3.15776 11.3622 2.90326 11.1107 2.66974C10.9844 2.5532 10.8516 2.44302 10.7146 2.3392C10.5751 2.2304 10.4276 2.13196 10.2734 2.04468L9.82159 1.7883L9.95222 2.30318C9.99154 2.4643 10.0202 2.6278 10.0379 2.79263C10.0568 2.96078 10.0661 3.12985 10.0657 3.29903C10.0642 3.63604 10.0269 3.97196 9.95436 4.30124C9.87687 4.62591 9.75891 4.93978 9.60317 5.23565L9.47254 5.44754L9.40616 5.5556L9.32906 5.65306L9.17702 5.85223C9.12349 5.9158 9.06138 5.97301 9.00357 6.03445C8.94575 6.0959 8.89221 6.15311 8.82583 6.21879L8.62882 6.41373L8.59669 6.44339C8.53674 6.30567 8.47035 6.17218 8.41039 6.03869C8.35043 5.9052 8.27548 5.73993 8.2198 5.5895C8.18982 5.51322 8.16198 5.43906 8.132 5.3649C8.10202 5.29074 8.07847 5.21234 8.05063 5.13819C7.99709 4.98775 7.95641 4.83519 7.91144 4.68475C7.83008 4.38324 7.7735 4.07572 7.74226 3.76518C7.72557 3.61321 7.71841 3.46036 7.72085 3.30751C7.72085 3.23123 7.72085 3.15495 7.72085 3.08079C7.72085 3.04477 7.72085 3.00663 7.72085 2.97273C7.72085 2.93883 7.72085 2.89645 7.73584 2.87526L7.83006 2.35191L7.38679 2.58922C7.27329 2.65067 7.15551 2.70576 7.0463 2.77356L6.88141 2.87738L6.80003 2.92824L6.72294 2.98756L6.56876 3.1041C6.51737 3.14436 6.47025 3.18885 6.421 3.23123C6.32556 3.31681 6.23478 3.40734 6.14904 3.50244C5.98085 3.69643 5.83704 3.90987 5.72076 4.13809C5.59994 4.35938 5.5181 4.59942 5.47877 4.8479C5.60113 4.63779 5.74462 4.44045 5.90706 4.25887C6.06398 4.08235 6.23437 3.91801 6.41672 3.7673C6.59801 3.62029 6.78981 3.48646 6.99062 3.36684C7.05915 3.32234 7.12982 3.2842 7.20477 3.24606C7.20477 3.26513 7.20477 3.28632 7.20477 3.30539C7.20477 3.39438 7.20477 3.48125 7.20477 3.56813C7.20477 3.655 7.21761 3.74187 7.22832 3.82662C7.27513 4.16813 7.36209 4.50305 7.48743 4.8246C7.55005 4.98309 7.62155 5.138 7.70158 5.28862C7.78383 5.43362 7.87464 5.57371 7.97354 5.70815C8.01892 5.78135 8.06824 5.85208 8.1213 5.92004L8.27548 6.11921C8.37613 6.23574 8.48962 6.34592 8.58813 6.45398L8.53245 6.50907L8.44037 6.61078L8.25621 6.82266C8.02009 7.10464 7.80536 7.40351 7.61378 7.71681C7.58166 7.76766 7.55168 7.81852 7.5217 7.87149L7.46174 7.82699C7.41034 7.68079 7.35038 7.53883 7.29471 7.40322L7.20691 7.16168C7.17907 7.07904 7.14266 7.00276 7.12125 6.92013C7.07414 6.75486 7.01418 6.59595 6.97777 6.4328C6.94137 6.26964 6.90068 6.10438 6.86428 5.93911C6.80716 5.60871 6.77779 5.2742 6.77648 4.93901C6.77817 4.59684 6.82131 4.2561 6.90497 3.92409C6.70562 4.22301 6.58017 4.56416 6.53878 4.91994C6.49091 5.2771 6.49886 5.63943 6.56234 5.9942L6.62015 6.25693C6.63943 6.3438 6.67155 6.42856 6.69725 6.51331C6.75226 6.68314 6.81953 6.84883 6.89854 7.00912C6.97135 7.17015 7.072 7.31847 7.15979 7.47103C7.23475 7.57697 7.31398 7.68291 7.39535 7.7825C7.20865 7.64282 7.03125 7.49136 6.86428 7.32906C6.73365 7.21253 6.6223 7.0748 6.50452 6.94767C6.4467 6.88199 6.3953 6.80995 6.34177 6.73579L6.26254 6.63409L6.18973 6.52391C6.09122 6.38406 6.00557 6.23151 5.91991 6.08319C5.87922 6.00691 5.84496 5.92851 5.80641 5.85223C5.76689 5.77547 5.73255 5.69619 5.70362 5.61492C5.57151 5.29476 5.47111 4.96266 5.40382 4.62331C5.33854 4.28637 5.29988 3.94491 5.28819 3.60203C5.27287 3.25856 5.28218 2.91444 5.31602 2.57227C5.34927 2.2301 5.40073 1.88991 5.47021 1.55311C5.53714 1.21846 5.62656 0.888598 5.73789 0.56573L5.93918 -1.13158e-07L5.39097 0.25638C4.60342 0.624703 3.8582 1.07579 3.16817 1.60184C2.46995 2.12664 1.85248 2.74902 1.33511 3.44947C1.08113 3.80213 0.856951 4.17489 0.664841 4.56398C0.476108 4.95304 0.324826 5.35882 0.212999 5.77596C0.103475 6.19207 0.0360441 6.61794 0.0117041 7.04726C-0.0184205 7.47211 0.00967265 7.89904 0.0952197 8.31644Z" transform="translate(15.3682 4.67407)" fill="#F4F4F4"/>
<path d="M1.61892 2.03409C1.86241 1.84253 2.07411 1.61447 2.24636 1.35818L2.37056 1.15901C2.40697 1.08908 2.43909 1.01704 2.47121 0.947121L2.4862 0.915338C2.57476 1.02162 2.65631 1.13345 2.73032 1.25012C2.88202 1.48604 3.00902 1.73665 3.10935 1.99807C3.15218 2.13367 3.20786 2.26504 3.23998 2.407C3.25711 2.4748 3.27853 2.54473 3.29352 2.61889L3.33635 2.83077L3.35776 2.93883L3.37275 3.04689C3.38346 3.12105 3.38988 3.19309 3.40273 3.25877C3.41558 3.32446 3.41558 3.40497 3.422 3.47066C3.42843 3.53634 3.43485 3.61898 3.44556 3.69526C3.48411 3.54906 3.52051 3.40074 3.54621 3.2503C3.55906 3.17614 3.56548 3.09986 3.57404 3.02358L3.58689 2.90917V2.79263V2.58498C3.58689 2.50659 3.57404 2.43031 3.56762 2.35191C3.56396 2.27425 3.55393 2.19701 3.53764 2.12096C3.52479 2.04256 3.5098 1.96628 3.49267 1.89C3.41875 1.58075 3.30125 1.28332 3.14362 1.00645C3.10517 0.933309 3.06226 0.862551 3.01513 0.794565C2.97171 0.726365 2.92453 0.660582 2.8738 0.597512C2.82026 0.536066 2.77101 0.472501 2.71105 0.413174C2.68321 0.38351 2.65537 0.353846 2.62325 0.324182C2.59113 0.294518 2.56329 0.269093 2.52046 0.235191L2.22709 -9.69928e-08L2.11573 0.375035L2.05791 0.561493L2.03222 0.656841L1.99367 0.745831C1.96797 0.805159 1.94442 0.866605 1.91658 0.925932L1.82236 1.09756C1.69433 1.33435 1.53677 1.55431 1.35338 1.75228C0.954743 2.15355 0.498758 2.49479 -1.56843e-06 2.76508C0.296109 2.71913 0.584367 2.63286 0.85657 2.50871C1.12956 2.38233 1.38564 2.22291 1.61892 2.03409Z" transform="translate(28.4126 8.63)" fill="#F4F4F4"/>
<path d="M0.289346 3.36684C0.35237 3.06668 0.432444 2.77028 0.529187 2.47904C0.624769 2.19069 0.736292 1.90775 0.86325 1.63151C0.90822 1.52556 0.963896 1.41962 1.01743 1.32004V1.34758C1.10282 1.54674 1.21287 1.73464 1.34507 1.90696C1.47681 2.07819 1.64124 2.22217 1.82903 2.33072C2.01388 2.43933 2.22669 2.49234 2.44148 2.48328C2.34854 2.44649 2.25898 2.40183 2.1738 2.34979C2.09701 2.29636 2.02533 2.23608 1.95966 2.16969C1.83116 2.03472 1.72428 1.8811 1.64273 1.71414C1.5607 1.54689 1.49474 1.37238 1.44572 1.19291C1.42002 1.10392 1.39861 1.0128 1.37933 0.921695C1.36006 0.830585 1.34293 0.733119 1.33436 0.652603L1.25299 0L0.876099 0.572087C0.691477 0.844651 0.532352 1.1333 0.400701 1.43445C0.267404 1.73539 0.166209 2.04926 0.0987594 2.37098C0.0297735 2.69058 -0.00326253 3.01674 0.000253801 3.34353C-0.000870987 3.66857 0.0497148 3.99176 0.150154 4.30124C0.177284 3.98726 0.223768 3.67521 0.289346 3.36684Z" transform="translate(12.9746 8.05151)" fill="#F4F4F4"/>
<path d="M0.0792328 11.3527C0.102788 11.4714 0.13491 11.5879 0.169173 11.7023C0.239735 11.9317 0.330747 12.1543 0.441134 12.3677C0.624858 12.7258 0.863207 13.0538 1.14781 13.3402C1.29177 13.5742 1.45205 13.7979 1.62749 14.0098C1.74217 14.1517 1.8644 14.2875 1.99367 14.4166C2.06006 14.4801 2.13072 14.5416 2.20781 14.603L2.31274 14.6941L2.42196 14.7789C2.71592 15.0057 3.03751 15.195 3.37918 15.3425C3.72273 15.4869 4.08203 15.5914 4.44989 15.654C4.8159 15.7114 5.18729 15.7277 5.55701 15.7027C5.92344 15.6793 6.28651 15.6189 6.64057 15.5226C6.88162 15.4579 7.11776 15.3765 7.34724 15.2789L7.02175 15.4421C6.69625 15.601 6.36433 15.7472 6.03026 15.8892C5.6962 16.0311 5.36 16.1689 5.02165 16.3129C4.66608 16.4406 4.33132 16.619 4.02803 16.8427C3.72777 17.0816 3.46947 17.368 3.26354 17.6902C3.0586 18.0087 2.89932 18.3538 2.79028 18.7157C2.67978 19.0745 2.60799 19.4438 2.57614 19.8175C2.55901 20.004 2.55473 20.1904 2.55473 20.379C2.55799 20.5689 2.57157 20.7584 2.59541 20.9468L3.0237 20.9786C3.0237 20.9913 3.0237 20.9786 3.0237 20.9786L3.03655 20.9574C3.04775 20.9399 3.0599 20.9229 3.07295 20.9066C3.10109 20.8711 3.13111 20.8372 3.16289 20.8049C3.23457 20.7373 3.31115 20.675 3.39202 20.6184C3.56264 20.5003 3.74402 20.3981 3.93381 20.3133C4.32833 20.1403 4.7375 20.002 5.15656 19.9001L5.47349 19.8217L5.79471 19.7561C6.00885 19.7094 6.22299 19.6755 6.43714 19.6416L7.10312 19.5315L7.27229 19.5018L7.43933 19.4658L7.77339 19.3916C8.22242 19.2857 8.65992 19.1367 9.07966 18.9467C9.51485 18.759 9.91514 18.5005 10.2639 18.1818C10.6186 17.8521 10.8868 17.4419 11.0455 16.9867C11.1933 16.538 11.2536 16.0656 11.2232 15.5947L11.1804 14.6391L10.7864 15.5184C10.7757 15.5417 10.7543 15.5862 10.735 15.6222C10.7157 15.6582 10.69 15.6964 10.6686 15.7324C10.6472 15.7684 10.6193 15.8065 10.5937 15.8426C10.5692 15.8792 10.5427 15.9146 10.5144 15.9485C10.4587 16.0184 10.4031 16.0883 10.341 16.1604C10.3088 16.1922 10.281 16.2261 10.2489 16.2579L10.1504 16.3511C9.88255 16.5984 9.58476 16.8119 9.26382 16.9867C8.59949 17.3287 7.87985 17.5532 7.13738 17.6499L6.56348 17.7432C6.37075 17.7771 6.18016 17.8258 5.99172 17.8682C5.61385 17.9686 5.24499 18.0997 4.88888 18.2602C4.54341 18.418 4.21843 18.6165 3.92096 18.8513C3.84815 18.9149 3.7732 18.9763 3.70681 19.042C3.64043 19.1077 3.56762 19.1776 3.50552 19.2539C3.37631 19.3958 3.26552 19.5531 3.17574 19.7222C3.27866 19.5626 3.40172 19.4166 3.54192 19.2878C3.67998 19.158 3.82742 19.0383 3.98306 18.9297C4.29625 18.7167 4.63416 18.5417 4.98953 18.4085C5.34227 18.2719 5.70622 18.1655 6.07738 18.0906C6.26368 18.061 6.44784 18.0207 6.63629 17.9974L7.20377 17.9317L7.495 17.8978C7.59351 17.8851 7.69201 17.8766 7.78624 17.8555L8.07747 17.7982L8.22095 17.7707L8.36442 17.7304L8.6321 17.6478C8.72847 17.6203 8.81841 17.58 8.91263 17.5482C9.09927 17.4791 9.28224 17.4006 9.46083 17.313C9.8195 17.1315 10.154 16.9066 10.4566 16.6435C10.5316 16.5766 10.6031 16.5059 10.6707 16.4316C10.689 16.4143 10.7061 16.3959 10.7221 16.3765C10.6234 16.927 10.346 17.4306 9.93195 17.811C9.6219 18.0904 9.26643 18.316 8.88051 18.4784L8.73489 18.542C8.68696 18.5648 8.63761 18.5846 8.58713 18.6013L8.28305 18.7094C8.1824 18.7475 8.06891 18.7708 7.97254 18.8005C7.87618 18.8301 7.7584 18.864 7.65989 18.8873L7.34724 18.9615L7.18664 18.9975L7.02603 19.0251L6.37289 19.1395C6.15875 19.1755 5.92748 19.2115 5.70477 19.2602L5.37285 19.3323L5.04092 19.4149C4.59436 19.5291 4.15982 19.6852 3.74322 19.8811C3.52815 19.982 3.32311 20.1025 3.13077 20.2413C3.08366 20.2773 3.03655 20.3133 2.99158 20.3536C2.99158 20.1819 2.99158 20.0103 2.99158 19.8387C3.007 19.4917 3.0594 19.1472 3.1479 18.8111C3.23634 18.4778 3.36958 18.1578 3.54407 17.8597C3.71971 17.5618 3.9432 17.2941 4.20577 17.0672C4.4752 16.8433 4.77507 16.6578 5.0966 16.5164C5.42852 16.3617 5.7583 16.2049 6.0838 16.0417C6.4093 15.8786 6.72623 15.707 7.04959 15.5247C7.20805 15.4336 7.36223 15.3362 7.51428 15.2345C7.58923 15.1836 7.66418 15.1328 7.72842 15.0755C7.80198 15.0222 7.86947 14.9611 7.92971 14.8933C7.86461 14.9553 7.7928 15.01 7.71557 15.0565C7.66203 15.0925 7.60636 15.1243 7.55068 15.1561C6.89659 15.3573 6.21628 15.463 5.53131 15.4696C4.8305 15.4765 4.13603 15.3379 3.49267 15.0628C3.33183 14.996 3.17522 14.9196 3.0237 14.834L2.80956 14.6984C2.73461 14.6539 2.66822 14.5967 2.59541 14.5479L2.48834 14.4738L2.38555 14.3912L2.18426 14.2238C2.07076 14.1115 1.9487 14.0119 1.84163 13.8869C2.06377 14.0273 2.29811 14.1478 2.54188 14.2471C2.97985 14.4232 3.43911 14.5421 3.90811 14.6009C4.83495 14.7111 5.77321 14.6839 6.69197 14.5204C7.59732 14.3675 8.48834 14.1407 9.3559 13.8424C8.47143 14.0644 7.57285 14.2272 6.66627 14.3297C5.76961 14.4366 4.86232 14.4202 3.97021 14.281C3.53413 14.205 3.10862 14.0784 2.70248 13.9038C2.30383 13.7286 1.93759 13.4887 1.61892 13.194C1.30461 12.9008 1.04699 12.5532 0.858713 12.1685C0.764461 11.9772 0.687774 11.778 0.62958 11.5731C0.601682 11.4797 0.578808 11.3849 0.561054 11.2892C1.40711 11.4993 2.26525 11.6585 3.13077 11.7659C4.12488 11.8955 5.13062 11.9133 6.12877 11.8189C7.14095 11.7355 8.12498 11.447 9.0197 10.9714C9.46907 10.7248 9.87779 10.4118 10.2317 10.0433C10.4036 9.85286 10.5564 9.64636 10.6879 9.42672C10.7587 9.31899 10.8231 9.2072 10.8806 9.09194C10.9106 9.03473 10.9363 8.9754 10.962 8.91607C10.9902 8.85261 11.0145 8.78752 11.0348 8.72114L11.2018 8.20415L10.7436 8.5135C10.245 8.85312 9.69686 9.11536 9.11821 9.29111C8.53724 9.46451 7.92826 9.52707 7.32369 9.47545C6.71273 9.42088 6.11546 9.26472 5.55701 9.01354C5.27435 8.89201 5.00096 8.75038 4.73898 8.58978C4.47444 8.42817 4.22377 8.24533 3.98948 8.04311C4.42777 8.48634 4.93358 8.85883 5.48848 9.14703C6.05067 9.44099 6.65993 9.63668 7.28943 9.72547C7.92741 9.80975 8.57581 9.77234 9.19958 9.61529C9.60448 9.51221 9.9966 9.36511 10.3688 9.17669C10.3603 9.18902 10.3525 9.20174 10.3452 9.21483C10.2136 9.40471 10.0653 9.58268 9.90197 9.74666C9.57235 10.0761 9.19398 10.354 8.77986 10.5709C8.36329 10.7909 7.92197 10.9616 7.46502 11.0794C7.19303 11.1533 6.91706 11.212 6.63843 11.2553L6.58489 11.2383C6.47568 11.1938 6.37075 11.1536 6.25726 11.107C6.04214 11.0134 5.83392 10.9051 5.6341 10.7828C5.23566 10.5517 4.88242 10.2518 4.59122 9.8971C4.30173 9.54787 4.08354 9.14633 3.9488 8.71479C3.87984 8.50221 3.83109 8.28373 3.80318 8.06218C3.78605 7.952 3.77962 7.8503 3.7732 7.73164V7.67655C4.39914 7.88319 5.04501 8.0252 5.70048 8.10032C5.88679 8.12575 6.07738 8.12999 6.26796 8.1427H6.55277C6.64914 8.1427 6.74336 8.1427 6.83973 8.1427C7.2209 8.12933 7.6004 8.08611 7.97468 8.01345C8.35155 7.94489 8.72138 7.84277 9.07966 7.70834C9.44269 7.57468 9.7943 7.41242 10.1311 7.22312C10.4649 7.03701 10.7828 6.82443 11.0819 6.58747C11.2247 6.46882 11.3674 6.3438 11.5102 6.21244C11.6522 6.07932 11.7859 5.93781 11.9106 5.78867L12.0198 5.65518L11.9213 5.5217C11.7411 5.28137 11.5413 5.05602 11.3239 4.8479C11.1059 4.64119 10.8669 4.45729 10.6108 4.29913C10.3481 4.13394 10.0582 4.01561 9.75421 3.94952C9.59626 3.91933 9.43514 3.90865 9.27453 3.91773C9.11649 3.92811 8.96038 3.95801 8.80984 4.00672C8.64497 4.05834 8.49708 4.15273 8.38155 4.28006C8.28086 4.40484 8.20789 4.54924 8.16741 4.70382C8.09317 4.99445 8.07357 5.2961 8.10959 5.59374C8.17822 6.16591 8.32742 6.72577 8.55287 7.25703C8.47699 6.98279 8.41552 6.70485 8.36871 6.42432C8.32078 6.14418 8.2943 5.86087 8.28947 5.57679C8.28294 5.30639 8.32649 5.0371 8.41796 4.78222C8.46008 4.66475 8.52644 4.55723 8.61283 4.46651C8.69618 4.38255 8.80145 4.32314 8.91691 4.29489C9.17464 4.23975 9.44145 4.24115 9.69858 4.29899C9.9557 4.35683 10.1969 4.4697 10.4052 4.62966C10.6312 4.7832 10.8401 4.96006 11.0284 5.15725C11.182 5.30699 11.3251 5.46698 11.4566 5.63611C11.3774 5.71875 11.2918 5.80138 11.2061 5.87766C11.0755 5.99632 10.9384 6.10861 10.7971 6.21455C9.94261 6.86732 8.94622 7.31419 7.88688 7.51976C7.63838 7.56851 7.3875 7.60458 7.13524 7.62782C7.09455 7.25279 7.06243 6.87987 7.05173 6.50696C7.03265 6.07074 7.04697 5.63371 7.09456 5.19963C7.13715 4.78281 7.25007 4.37601 7.42862 3.99613C7.59503 3.64274 7.88693 3.36222 8.24879 3.20792C8.63561 3.07199 9.04862 3.0249 9.45655 3.0702C9.89139 3.10821 10.3216 3.18696 10.7414 3.30539C11.5969 3.55473 12.4311 3.87072 13.2362 4.25039C12.879 3.96951 12.5003 3.7166 12.1034 3.49397C11.855 3.35271 11.6001 3.22558 11.3389 3.11258C11.281 3.02358 11.2211 2.93883 11.1676 2.84984C11.0883 2.72059 11.0027 2.5977 10.9299 2.46633C10.7757 2.21207 10.6408 1.94721 10.5016 1.68236C10.3624 1.4175 10.266 1.14205 10.1632 0.862368C10.0666 0.579158 9.98445 0.291341 9.91696 -3.5564e-07C9.86871 0.308341 9.87742 0.622787 9.94266 0.928051C10.0003 1.235 10.0974 1.53336 10.2317 1.81585C10.3654 2.09908 10.5345 2.3646 10.735 2.60617C10.8326 2.72757 10.9385 2.84225 11.0519 2.94942L11.1526 3.0363C11.0562 2.99604 10.9577 2.9579 10.8592 2.92188C10.4226 2.75373 9.96651 2.63985 9.50152 2.58287C9.26261 2.55667 9.02181 2.5517 8.782 2.56803C8.53057 2.58581 8.28347 2.64229 8.04963 2.73542C7.80909 2.83292 7.59067 2.977 7.4072 3.15919C7.22953 3.33951 7.08464 3.54881 6.97892 3.77789C6.8113 4.17087 6.71838 4.59108 6.70481 5.01741C6.5702 4.94291 6.44136 4.85863 6.31936 4.76527C6.13953 4.62088 5.96996 4.46442 5.81184 4.29701C5.65337 4.12962 5.49919 3.95587 5.35357 3.77789C5.20796 3.59991 5.06448 3.41345 4.94028 3.23335L4.65975 2.83077L4.51199 3.30539C4.38098 3.70628 4.30886 4.12372 4.29785 4.54491C4.29537 4.75743 4.30826 4.96986 4.33639 5.18056C4.36519 5.38801 4.40811 5.5933 4.46488 5.79503C4.58663 6.18919 4.76397 6.5644 4.99167 6.90954C5.14825 7.1602 5.33286 7.39262 5.54202 7.6024C4.89781 7.52871 4.26238 7.39317 3.64471 7.1977L3.3856 7.1193L3.37275 7.37356C3.36509 7.50058 3.36509 7.62793 3.37275 7.75495C3.3856 7.87784 3.39845 7.99862 3.422 8.11939C3.4638 8.36141 3.52832 8.59905 3.61473 8.8292C3.7899 9.28609 4.05319 9.70492 4.38993 10.0624C4.72384 10.4134 5.12018 10.7007 5.55915 10.9099C5.77404 11.0142 5.99669 11.102 6.22513 11.1726C6.33006 11.2065 6.43928 11.232 6.54421 11.2616C6.3836 11.2849 6.22085 11.3082 6.0581 11.3231C5.09943 11.4042 4.1348 11.3858 3.18002 11.268C2.21764 11.152 1.26355 10.9765 0.323356 10.7425L1.14365e-07 10.6662L0.0235556 10.9819C0.0333458 11.1067 0.0519504 11.2306 0.0792328 11.3527ZM5.24864 6.77605C5.10362 6.41943 4.9911 6.0507 4.91244 5.67425C4.84028 5.30506 4.80798 4.92933 4.81607 4.55339C4.82323 4.33321 4.84541 4.11376 4.88246 3.89655C4.93385 3.95164 4.98525 4.00461 5.03878 4.05758C5.21142 4.22846 5.39605 4.38706 5.59127 4.5322C5.78572 4.68291 5.99524 4.81355 6.21657 4.92206C6.36998 4.9974 6.53165 5.05498 6.69839 5.09369C6.69839 5.117 6.69839 5.1403 6.69839 5.16361C6.68623 5.60218 6.71852 6.04085 6.79475 6.47305C6.73265 6.42008 6.66841 6.37135 6.60845 6.31838C6.5078 6.22939 6.39431 6.14675 6.31293 6.05352C5.92992 5.70182 5.6003 5.29717 5.3343 4.85214C5.19654 4.62307 5.07421 4.38524 4.96812 4.14021C4.9602 4.4186 5.0105 4.6956 5.11587 4.95385C5.31964 5.48182 5.68403 5.93417 6.15875 6.24846C6.2742 6.32857 6.39594 6.39942 6.52279 6.46034C6.61397 6.50084 6.70767 6.53552 6.80332 6.56416C6.87126 6.92991 6.96573 7.29034 7.08599 7.64265C6.64355 7.68079 6.1986 7.68079 5.75616 7.64265H5.66408C5.50746 7.36265 5.36871 7.07321 5.24864 6.77605Z" transform="translate(4.00244 9.85474)" fill="#F4F4F4"/>
<path d="M4.68545 8.65334C5.04758 8.61164 5.40568 8.54078 5.75616 8.44146C5.92962 8.39696 6.10093 8.33763 6.2701 8.28042C6.43928 8.22322 6.60631 8.14906 6.76692 8.06854C7.41258 7.76809 7.99411 7.34806 8.48006 6.83114C7.92282 7.2435 7.30737 7.57261 6.65342 7.80792C6.33089 7.92247 6.0002 8.01312 5.66408 8.07913C5.49705 8.11516 5.32788 8.13846 5.1587 8.16177C4.98953 8.18508 4.82036 8.20203 4.64904 8.2105C3.96639 8.2547 3.28093 8.22771 2.60398 8.12999C2.26563 8.08125 1.92729 8.01981 1.59322 7.94141C1.42191 7.90115 1.24845 7.85666 1.07714 7.80792C1.58502 7.7422 2.08645 7.63447 2.57614 7.48586C3.09083 7.33155 3.59449 7.14326 4.08371 6.92225C5.07247 6.47851 5.99829 5.90865 6.83758 5.22718C7.25581 4.88392 7.65136 4.51449 8.02179 4.12114C8.20167 3.90926 8.38584 3.7228 8.55073 3.5088C8.71562 3.29479 8.87623 3.08503 9.03255 2.87314C9.64287 1.99183 10.1124 1.02275 10.4245 7.1128e-07C9.93413 0.928139 9.3608 1.81098 8.71134 2.63795C8.38155 3.04053 8.03678 3.4304 7.6706 3.8012C7.30442 4.17199 6.91682 4.51737 6.51423 4.84579C5.70073 5.5007 4.82757 6.07951 3.90597 6.57476C3.44128 6.81631 2.95946 7.04938 2.47335 7.26126C2.02151 7.45831 1.55682 7.6363 1.08356 7.79097L1.20348 7.69986L1.46045 7.47526L1.5868 7.36297L1.70458 7.23796L1.94228 6.97946L2.14571 6.70613C2.17998 6.65951 2.21424 6.61502 2.24636 6.5684L2.33202 6.4222L2.41767 6.27388L2.4605 6.20184L2.49691 6.12556L2.6361 5.81621L2.74531 5.49627C2.80971 5.28216 2.85626 5.06318 2.88451 4.84155C2.94702 4.40356 2.92522 3.95783 2.82026 3.52787C2.83177 3.74339 2.82604 3.95948 2.80313 4.17411C2.77736 4.38823 2.73803 4.60053 2.68535 4.80976C2.63183 5.01455 2.56458 5.21558 2.48406 5.41152L2.35343 5.69756L2.19711 5.97089C2.17255 6.01664 2.14464 6.06055 2.11359 6.10226L2.02365 6.23151L1.93585 6.36076C1.90373 6.40313 1.86947 6.44127 1.8352 6.48153L1.62106 6.71884L1.39407 6.93072L1.28272 7.0409L1.16065 7.13837L0.914391 7.3333C0.745218 7.45619 0.563196 7.56426 0.38974 7.68079L6.53512e-08 7.94353L0.428286 8.11092C0.608166 8.18296 0.773056 8.23593 0.948653 8.29102C1.12425 8.34611 1.29342 8.3906 1.46902 8.43298C1.82197 8.51818 2.17943 8.58397 2.53974 8.63003C3.25114 8.72695 3.97206 8.73478 4.68545 8.65334Z" transform="translate(7.05176 26.2164)" fill="#F4F4F4"/>
<path d="M4.72467 3.50668C5.14896 3.27202 5.59679 3.08171 6.06092 2.93883C5.56488 2.9848 5.07847 3.10333 4.6176 3.29056C4.1511 3.48402 3.71769 3.74776 3.33274 4.07241C2.94164 4.39814 2.60235 4.78028 2.32627 5.20599C2.187 5.41806 2.0632 5.63969 1.9558 5.86919C1.90655 5.97301 1.86372 6.08107 1.82089 6.18277C1.8929 5.80382 1.9953 5.43114 2.12711 5.06826C2.26328 4.6846 2.43087 4.31256 2.62821 3.95587C3.01526 3.2521 3.5224 2.61984 4.12721 2.08706C4.20216 2.01925 4.28353 1.95781 4.36062 1.89424L4.4784 1.79889L4.60046 1.7099C4.68184 1.65269 4.76107 1.58913 4.84673 1.53404L5.10156 1.37089C5.44579 1.15845 5.80342 0.968071 6.17227 0.80092C6.93427 0.471327 7.72205 0.203475 8.52785 -1.29324e-06C7.67281 0.00492314 6.82433 0.148065 6.01595 0.423767C5.60596 0.56051 5.21013 0.73576 4.83388 0.94712C4.45263 1.16125 4.09395 1.41253 3.76317 1.69719C3.10529 2.26911 2.58382 2.9783 2.23633 3.77365C2.06264 4.16512 1.93336 4.57444 1.85087 4.9941C1.77441 5.37694 1.74565 5.76759 1.76521 6.15735C1.51241 5.89775 1.28644 5.61383 1.09066 5.30981C0.819172 4.88709 0.613439 4.42639 0.480354 3.94316C0.414559 3.69887 0.365904 3.45037 0.334736 3.19945C0.301807 2.94585 0.288207 2.69016 0.294049 2.43455C0.300776 1.91429 0.372706 1.39688 0.508192 0.894149C0.269214 1.37304 0.112185 1.88785 0.0435018 2.4176C0.0109212 2.68543 -0.00338754 2.95513 0.000673045 3.22487C0.0105104 3.49649 0.0405723 3.76702 0.0906135 4.03427C0.197527 4.57364 0.396683 5.091 0.679507 5.56407C0.967774 6.03334 1.32421 6.45812 1.73737 6.82478L2.05216 7.10659L2.15709 6.69553C2.18065 6.60018 2.21919 6.48365 2.25774 6.37771C2.29629 6.27176 2.33911 6.16582 2.38623 6.05776C2.48084 5.84543 2.5881 5.63883 2.70744 5.43906C2.94601 5.03894 3.23373 4.66957 3.56401 4.33938C3.91301 4.01348 4.30313 3.7336 4.72467 3.50668Z" transform="translate(10.0513 34.3041)" fill="#F4F4F4"/>
<path d="M3.72609 2.48752C3.26111 2.54459 2.80508 2.65846 2.36842 2.82653C2.08447 2.93015 1.80702 3.05043 1.53755 3.18673L1.5611 3.16766C1.64248 3.09351 1.71957 3.01511 1.7988 2.93671L1.91658 2.82018L2.02365 2.69516C2.09432 2.60829 2.16713 2.52566 2.23779 2.43878C2.50521 2.08456 2.72143 1.69518 2.88022 1.2819C3.04177 0.873687 3.12177 0.43835 3.11578 -1.93986e-07C3.00588 0.410824 2.85301 0.809199 2.65966 1.18867C2.61254 1.28402 2.56543 1.37725 2.5119 1.46836C2.45836 1.55947 2.41125 1.65058 2.35129 1.73745C2.29133 1.82432 2.24422 1.91755 2.18212 2.0023L1.99581 2.25656C1.93371 2.34132 1.86518 2.41971 1.7988 2.50235L1.7003 2.62524L1.59322 2.74178C1.52256 2.82018 1.45403 2.89857 1.37908 2.97697C1.30413 3.05537 1.22704 3.12317 1.15209 3.18885L1.04074 3.30115L0.918672 3.40709L0.678833 3.61898C0.588893 3.69949 0.492529 3.77365 0.398306 3.85205C0.263396 3.94528 0.128486 4.04063 5.2281e-07 4.14445C0.806132 3.76095 1.64178 3.44141 2.49905 3.18885C2.91885 3.07043 3.34907 2.99168 3.78391 2.95366C4.19217 2.90972 4.60518 2.95826 4.99167 3.09562C5.34897 3.25591 5.63461 3.54005 5.79471 3.89443C5.97501 4.27259 6.0901 4.67794 6.13519 5.09369C6.18278 5.52777 6.1971 5.96479 6.17802 6.40101C6.17802 6.77393 6.13519 7.14685 6.09451 7.52188C5.84154 7.49864 5.58995 7.46257 5.34073 7.41382C4.28879 7.20712 3.29939 6.7626 2.4498 6.11497C2.30703 6.00903 2.16998 5.89673 2.03864 5.77808C1.95513 5.7018 1.86733 5.61916 1.79024 5.53653C1.92175 5.3674 2.06485 5.2074 2.21852 5.05767C2.40678 4.86047 2.61567 4.68362 2.84168 4.53008C3.05125 4.36859 3.29426 4.25486 3.55338 4.19699C3.81249 4.13912 4.08132 4.13855 4.34068 4.1953C4.45614 4.22356 4.56141 4.28297 4.64476 4.36693C4.73115 4.45765 4.79751 4.56516 4.83963 4.68263C4.92679 4.94046 4.96526 5.21195 4.95313 5.48356C4.94758 5.76769 4.92038 6.05101 4.87175 6.33109C4.82669 6.61178 4.76592 6.88977 4.68973 7.1638C4.91547 6.63278 5.06399 6.07278 5.13086 5.50051C5.16868 5.20303 5.1498 4.90118 5.07519 4.61059C5.03151 4.45514 4.95486 4.31068 4.85034 4.18683C4.73482 4.0595 4.58693 3.96511 4.42205 3.9135C4.27151 3.86478 4.1154 3.83488 3.95736 3.82451C3.79871 3.81734 3.63978 3.82944 3.48411 3.86053C3.18012 3.92662 2.89021 4.04494 2.62754 4.21013C2.37139 4.3683 2.13242 4.5522 1.91444 4.75891C1.69706 4.96703 1.49724 5.19237 1.31698 5.4327L1.21847 5.56619L1.32769 5.69968C1.45123 5.84982 1.58502 5.99141 1.72813 6.12345C1.87089 6.25481 2.01366 6.37983 2.15642 6.49848C2.75683 6.96863 3.42814 7.34258 4.14581 7.60663C4.50409 7.74107 4.87392 7.84319 5.25079 7.91175C5.62506 7.9844 6.00457 8.02762 6.38574 8.041C6.48211 8.041 6.57633 8.041 6.67269 8.041H6.9575C7.14809 8.02828 7.33868 8.02404 7.52498 7.99862C8.18046 7.9235 8.82633 7.78149 9.45227 7.57485C9.45334 7.5932 9.45334 7.61159 9.45227 7.62994C9.45227 7.74012 9.43942 7.84182 9.42443 7.96048C9.39549 8.18185 9.34676 8.40024 9.27881 8.61308C9.14407 9.04463 8.92588 9.44617 8.63639 9.79539C8.34519 10.1501 7.99195 10.45 7.59351 10.6811C7.39351 10.8012 7.18529 10.9074 6.97035 10.9989C6.86328 11.0455 6.75621 11.0858 6.64271 11.1303L6.58918 11.1472C6.30988 11.1037 6.03322 11.045 5.76044 10.9713C5.30374 10.8528 4.86251 10.6821 4.44561 10.4628C4.03249 10.2454 3.65491 9.96754 3.32564 9.6386C3.16513 9.47839 3.01896 9.3047 2.88879 9.11948L2.86095 9.07711C3.23267 9.26711 3.6249 9.41496 4.03017 9.51783C4.65322 9.67481 5.3009 9.71222 5.93818 9.62801C6.56843 9.53953 7.17845 9.34383 7.74127 9.04956C8.29664 8.76211 8.80256 8.38953 9.24027 7.94565C9.00816 8.14521 8.7596 8.32524 8.49719 8.48383C8.23521 8.64444 7.96182 8.78607 7.67917 8.9076C7.12072 9.15878 6.52344 9.31494 5.91249 9.36951C5.30791 9.42113 4.69893 9.35857 4.11797 9.18517C3.53931 9.00941 2.9912 8.74718 2.49262 8.40755L2.03436 8.0982L2.19497 8.62368C2.21523 8.69005 2.23955 8.75515 2.26777 8.81861C2.29347 8.87794 2.31917 8.93727 2.34915 8.99447C2.40664 9.10974 2.471 9.22153 2.54188 9.32925C2.67758 9.54871 2.83465 9.75451 3.01085 9.94371C3.36481 10.3123 3.77353 10.6252 4.2229 10.8718C5.11762 11.3474 6.10165 11.6359 7.11383 11.7193C8.11198 11.8137 9.11772 11.7959 10.1118 11.6663C10.9773 11.5589 11.8355 11.3997 12.6815 11.1896C12.6623 11.2849 12.6409 11.3782 12.613 11.4735C12.5548 11.6784 12.4781 11.8776 12.3839 12.0689C12.1956 12.4536 11.938 12.8012 11.6237 13.0944C11.305 13.3891 10.9388 13.6291 10.5401 13.8042C10.134 13.9788 9.70847 14.1054 9.27239 14.1814C8.38028 14.3206 7.47298 14.337 6.57633 14.2301C5.66974 14.1276 4.77117 13.9648 3.88669 13.7428C4.75426 14.0411 5.64528 14.2679 6.55063 14.4208C7.46589 14.5833 8.40047 14.6104 9.32378 14.5013C9.79278 14.4425 10.252 14.3236 10.69 14.1475C10.9338 14.0482 11.1681 13.9277 11.3903 13.7873C11.2832 13.9059 11.1611 14.0119 11.0476 14.1242C10.9812 14.1814 10.9127 14.2344 10.8442 14.2916L10.7436 14.3742L10.6365 14.4484C10.5637 14.4971 10.4973 14.5543 10.4223 14.5988L10.2082 14.7344C10.0567 14.82 9.90006 14.8964 9.73922 14.9632C9.09372 15.2384 8.39697 15.3763 7.69415 15.3679C7.0062 15.3616 6.32292 15.2552 5.66622 15.0522C5.61054 15.0205 5.55487 14.9887 5.50133 14.9526C5.42339 14.9073 5.35145 14.8525 5.28719 14.7895C5.34743 14.8573 5.41493 14.9184 5.48848 14.9717C5.56129 15.0289 5.63624 15.0798 5.70263 15.1306C5.85467 15.2323 6.00885 15.3298 6.16732 15.4209C6.48425 15.6031 6.80618 15.7755 7.1331 15.9379C7.4586 16.1011 7.78838 16.2579 8.1203 16.4125C8.44183 16.554 8.7417 16.7395 9.01114 16.9634C9.2737 17.1903 9.49719 17.4579 9.67284 17.7559C9.84732 18.054 9.98056 18.374 10.069 18.7072C10.1564 19.0436 10.2088 19.3879 10.2253 19.7349C10.2253 19.9065 10.2253 20.0781 10.2253 20.2497C10.1782 20.2095 10.1332 20.1735 10.084 20.1374C9.8927 19.9983 9.68832 19.8777 9.47368 19.7772C9.05708 19.5814 8.62254 19.4253 8.17598 19.3111L7.84406 19.2285L7.51214 19.1564C7.29799 19.1077 7.06672 19.0717 6.84401 19.0357L6.19087 18.9212L6.03027 18.8937L5.86966 18.8577L5.55272 18.7856C5.44565 18.7623 5.33858 18.7263 5.24008 18.6988C5.14157 18.6712 5.02594 18.6458 4.92957 18.6076L4.62549 18.4996C4.57487 18.4833 4.5255 18.4635 4.47773 18.4403L4.33211 18.3767C3.94619 18.2143 3.59072 17.9887 3.28067 17.7093C2.98037 17.4348 2.75059 17.0934 2.6104 16.7134C2.55745 16.571 2.51733 16.4242 2.49048 16.2748C2.50651 16.2942 2.52366 16.3125 2.54188 16.3299C2.60949 16.4042 2.68097 16.4749 2.75602 16.5418C3.05863 16.8049 3.39312 17.0298 3.75179 17.2113C3.93038 17.2989 4.11335 17.3774 4.29999 17.4465C4.39421 17.4783 4.48415 17.5186 4.58052 17.5461L4.86533 17.6266L5.0088 17.6669L5.15228 17.6944L5.44351 17.7516C5.53774 17.7728 5.63624 17.7813 5.73475 17.794L6.02598 17.8279L6.59346 17.8936C6.77976 17.9169 6.96607 17.9572 7.15237 17.9868C7.52352 18.0617 7.88748 18.1681 8.24022 18.3047C8.59538 18.4384 8.93324 18.6133 9.24669 18.8259C9.40233 18.9345 9.54976 19.0542 9.68783 19.184C9.82803 19.3128 9.95109 19.4587 10.054 19.6183C9.96423 19.4493 9.85344 19.292 9.72423 19.1501C9.66213 19.0759 9.59146 19.0102 9.52294 18.9382C9.45441 18.8661 9.37732 18.8111 9.30879 18.7475C9.0041 18.5057 8.67036 18.3022 8.31517 18.1415C7.95907 17.9811 7.59021 17.85 7.21233 17.7495C7.02389 17.7071 6.8333 17.6584 6.64057 17.6245L6.06667 17.5313C5.32361 17.4342 4.60332 17.2098 3.93809 16.8681C3.61816 16.6927 3.32114 16.4793 3.05368 16.2324L2.95517 16.1392C2.92305 16.1074 2.89307 16.0735 2.86309 16.0417C2.80099 15.976 2.74531 15.9061 2.68964 15.8298C2.66135 15.7959 2.6349 15.7606 2.6104 15.7239C2.58471 15.6879 2.55901 15.6519 2.53545 15.6137C2.5119 15.5756 2.48834 15.5396 2.46907 15.5035L2.41553 15.3997L2.02365 14.5204L1.98082 15.476C1.95046 15.947 2.01078 16.4194 2.15856 16.8681C2.31675 17.3235 2.58508 17.7338 2.94018 18.0631C3.28891 18.3818 3.6892 18.6404 4.12439 18.828C4.54413 19.0181 4.98163 19.1671 5.43067 19.273L5.76473 19.3471L5.93176 19.3831L6.10093 19.4128L6.76691 19.523C6.98106 19.5569 7.1952 19.5908 7.40934 19.6374L7.73056 19.7031L8.04749 19.7815C8.46656 19.8834 8.87572 20.0217 9.27025 20.1947C9.46003 20.2795 9.64141 20.3816 9.81203 20.4998C9.89249 20.5568 9.96904 20.6191 10.0412 20.6862C10.0729 20.7185 10.103 20.7525 10.1311 20.7879C10.1442 20.8042 10.1563 20.8212 10.1675 20.8388L10.1804 20.86C10.1804 20.86 10.1804 20.879 10.1804 20.86L10.6086 20.8282C10.6325 20.6398 10.6461 20.4502 10.6493 20.2603C10.6493 20.0718 10.6493 19.8853 10.6279 19.6988C10.595 19.3253 10.5232 18.9561 10.4138 18.5971C10.3047 18.2352 10.1455 17.8901 9.94052 17.5715C9.73346 17.2538 9.47521 16.9718 9.17602 16.7367C8.87695 16.5088 8.54581 16.3253 8.19311 16.1922C7.85476 16.0587 7.51856 15.9231 7.1845 15.7684C6.85043 15.6137 6.51851 15.4802 6.19301 15.3213L5.86752 15.1582C6.09491 15.2554 6.3289 15.3369 6.56776 15.4018C6.92183 15.4981 7.28489 15.5585 7.65133 15.5819C8.02104 15.607 8.39243 15.5906 8.75844 15.5332C9.12641 15.4711 9.48576 15.3665 9.82916 15.2217C10.1715 15.0743 10.4938 14.8849 10.7885 14.6581L10.8977 14.5734L11.0027 14.4823L11.2168 14.2958C11.3475 14.1668 11.4712 14.031 11.5873 13.889C11.7627 13.6771 11.923 13.4534 12.067 13.2194C12.3516 12.9331 12.5899 12.605 12.7736 12.2469C12.884 12.0335 12.975 11.8109 13.0456 11.5816C13.0799 11.4672 13.112 11.3506 13.1355 11.232C13.1628 11.1098 13.1814 10.9859 13.1912 10.8612L13.2148 10.5455L12.8914 10.6217C11.9512 10.8563 10.9971 11.0325 10.0347 11.1493C9.07996 11.2671 8.11533 11.2856 7.15666 11.2044C6.99391 11.1896 6.83116 11.1663 6.67055 11.143C6.77548 11.1133 6.8847 11.0879 6.98963 11.054C7.22238 10.9912 7.45002 10.9112 7.6706 10.8146C8.10957 10.6054 8.50591 10.3181 8.83982 9.96702C9.1755 9.60795 9.43734 9.18767 9.61074 8.72962C9.69616 8.49915 9.76066 8.26161 9.80346 8.01981C9.82561 7.89923 9.84134 7.77758 9.85058 7.65537C9.86291 7.52863 9.86649 7.4012 9.86128 7.27398L9.84843 7.01971L9.58932 7.09811C8.97165 7.29359 8.33622 7.42912 7.69201 7.50281C7.90117 7.29304 8.08578 7.06062 8.24236 6.80995C8.46685 6.45948 8.6399 6.07923 8.7563 5.68061C8.81307 5.47888 8.856 5.2736 8.88479 5.06615C8.97093 4.43868 8.91385 3.8001 8.71776 3.19733L8.57857 2.72695L8.29804 3.12953C8.17384 3.30963 8.02822 3.49609 7.88474 3.67407C7.74127 3.85205 7.58494 4.02579 7.42648 4.19318C7.2657 4.36437 7.09249 4.52371 6.90825 4.66992C6.78832 4.76658 6.66086 4.85372 6.52708 4.93054C6.50786 4.50498 6.41063 4.08641 6.24013 3.69526C6.1344 3.46618 5.98951 3.25687 5.81184 3.07655C5.62878 2.89387 5.41025 2.74972 5.16941 2.65279C4.93638 2.55943 4.68996 2.50295 4.43918 2.4854C4.20188 2.46537 3.96326 2.46607 3.72609 2.48752ZM6.43714 6.45187C6.53279 6.42322 6.62649 6.38854 6.71766 6.34804C6.84452 6.28712 6.96626 6.21627 7.08171 6.13616C7.31778 5.98234 7.52805 5.79288 7.70486 5.57467C7.88632 5.35765 8.03097 5.11292 8.13315 4.85002C8.24022 4.59221 8.2913 4.315 8.28305 4.03639C8.17609 4.28101 8.05379 4.51879 7.91686 4.74832C7.65087 5.19335 7.32124 5.59799 6.93823 5.9497C6.84615 6.04293 6.74122 6.12557 6.64271 6.21456C6.58276 6.26753 6.51851 6.31626 6.45641 6.36923C6.53265 5.93703 6.56493 5.49836 6.55277 5.05979C6.55277 5.03648 6.55277 5.01317 6.55277 4.98987C6.71951 4.95116 6.88118 4.89357 7.03459 4.81824C7.25564 4.70923 7.46512 4.57863 7.65989 4.42837C7.85533 4.28119 8.03996 4.12046 8.21238 3.9474C8.26592 3.89443 8.31731 3.84146 8.36871 3.78637C8.4047 4.00372 8.42687 4.2231 8.43509 4.44321C8.44398 4.82138 8.41095 5.19938 8.33658 5.57043C8.25965 5.94706 8.14782 6.31588 8.00252 6.67222C7.88173 6.96289 7.74299 7.24594 7.58708 7.51976H7.495C7.05257 7.55789 6.60761 7.55789 6.16517 7.51976C6.28132 7.17063 6.3722 6.81377 6.43714 6.45187Z" transform="translate(27.8257 9.95007)" fill="#F4F4F4"/>
<path d="M3.66613 8.07489C3.82673 8.15329 3.99376 8.21686 4.1608 8.28678C4.32783 8.3567 4.50343 8.40332 4.67688 8.44781C5.02727 8.54753 5.3854 8.6184 5.7476 8.6597C6.46461 8.74133 7.18918 8.73278 7.90402 8.63427C8.26433 8.58821 8.62178 8.52242 8.97473 8.43722C9.15033 8.39484 9.32378 8.34823 9.4951 8.29526C9.66641 8.24228 9.83559 8.18719 10.0155 8.11515L10.4438 7.94777L10.0326 7.68503C9.85914 7.56849 9.67712 7.46043 9.50795 7.33754L9.26168 7.14261L9.13962 7.04514L9.02827 6.93496L8.80127 6.72308L8.58713 6.48577C8.55287 6.44551 8.51646 6.40737 8.48648 6.36499L8.39869 6.23574L8.30875 6.10649C8.2777 6.06478 8.24979 6.02087 8.22523 5.97512L8.0689 5.7018L7.93828 5.41575C7.85801 5.2195 7.79007 5.01854 7.73484 4.814C7.68183 4.60494 7.6432 4.39257 7.61921 4.17835C7.5963 3.96372 7.59057 3.74763 7.60207 3.5321C7.49712 3.96207 7.47532 4.4078 7.53783 4.84579C7.56608 5.06742 7.61263 5.28639 7.67702 5.50051L7.78624 5.82045L7.92543 6.1298C7.92543 6.15523 7.94684 6.18065 7.95969 6.20608L8.00252 6.27812L8.09032 6.42644L8.17598 6.57264C8.2081 6.61925 8.24236 6.66375 8.27662 6.71036L8.48006 6.98369L8.70919 7.23584L8.82697 7.36085L8.95332 7.47315L9.21029 7.69774L9.33021 7.78885C8.85695 7.63418 8.39226 7.4562 7.94042 7.25914C7.45432 7.04726 6.98106 6.82054 6.51851 6.57476C5.59691 6.0795 4.72374 5.5007 3.91025 4.84579C3.50552 4.51737 3.12435 4.16564 2.75388 3.8012C2.38341 3.43676 2.04292 3.04053 1.71314 2.63795C1.06368 1.81098 0.490347 0.928139 6.53512e-07 7.1128e-07C0.311229 1.0231 0.780774 1.9923 1.39193 2.87314C1.54825 3.08503 1.7003 3.31386 1.87375 3.5088C2.04721 3.70373 2.2228 3.91985 2.40268 4.12114C2.7729 4.51395 3.1677 4.88336 3.58475 5.22717C4.42512 5.90823 5.3516 6.47805 6.34077 6.92225C6.83138 7.14343 7.33647 7.33173 7.85262 7.48586C8.34231 7.63447 8.84374 7.7422 9.35162 7.80792C9.18031 7.85666 9.00685 7.90115 8.83554 7.94141C8.50147 8.01981 8.16313 8.08125 7.82478 8.12999C7.14783 8.22766 6.46237 8.25465 5.77972 8.2105C5.6084 8.2105 5.43923 8.17872 5.27006 8.16177C5.10089 8.14482 4.93171 8.11515 4.76468 8.07913C4.42856 8.01312 4.09787 7.92246 3.77534 7.80792C3.1198 7.57453 2.50225 7.2476 1.94228 6.83749C2.43153 7.35535 3.01675 7.77543 3.66613 8.07489Z" transform="translate(27.5815 26.2164)" fill="#F4F4F4"/>
<path d="M18.4028 2.30742C18.5383 2.81014 18.6103 3.32756 18.617 3.84781C18.6232 4.1035 18.6089 4.35927 18.5742 4.61271C18.5447 4.86375 18.4968 5.11232 18.4307 5.35642C18.2967 5.83934 18.091 6.2999 17.8204 6.72308C17.6246 7.0271 17.3986 7.31102 17.1458 7.57061C17.1664 7.18085 17.1377 6.79006 17.0602 6.40737C16.8067 5.1288 16.131 3.96982 15.1393 3.11257C14.8085 2.82791 14.4498 2.57664 14.0686 2.36251C13.6917 2.1524 13.296 1.9772 12.8865 1.83915C12.0832 1.56671 11.2409 1.42363 10.3918 1.41539C10.3768 1.30521 10.3575 1.1929 10.3318 1.08484C10.2635 0.798559 10.1515 0.524215 9.99988 0.271211C10.0363 0.561492 10.0663 0.841178 10.077 1.11875C10.0853 1.3933 10.0732 1.66808 10.0406 1.94086C10.009 2.21047 9.95461 2.47698 9.87781 2.73754C9.83927 2.86679 9.79644 2.99604 9.74504 3.12105C9.74504 3.14859 9.72363 3.17826 9.71078 3.2058C9.69579 3.18462 9.68294 3.16343 9.66581 3.14224C9.58425 3.02455 9.491 2.91524 9.38743 2.81594C9.28387 2.71676 9.16887 2.63 9.0448 2.55744C8.97086 2.51574 8.8935 2.4803 8.81352 2.4515C8.80201 2.13408 8.75314 1.81907 8.66791 1.51285C8.72985 1.55448 8.7892 1.59977 8.84564 1.64846C8.97767 1.76255 9.09685 1.89043 9.20112 2.02985C9.41138 2.31709 9.57136 2.63726 9.67438 2.97697C9.64506 2.79914 9.60065 2.62406 9.54161 2.45362C9.48243 2.28108 9.40566 2.11496 9.31248 1.95781C9.21856 1.79697 9.10492 1.64823 8.97413 1.51497C8.90748 1.4464 8.83591 1.38266 8.75999 1.32427C8.68301 1.26288 8.59976 1.20962 8.51158 1.16536L8.29744 1.05518L8.3574 1.30521C8.47859 1.76032 8.51559 2.23337 8.46661 2.70152C8.41661 3.15961 8.2629 3.60067 8.01691 3.99189C7.77082 4.38476 7.45699 4.73186 7.08967 5.01741C6.90578 5.16169 6.71265 5.29404 6.51149 5.41363C6.42797 5.46449 6.34017 5.51322 6.25451 5.55983C6.25451 5.33524 6.25451 5.10852 6.25451 4.88181C6.24037 4.51524 6.20174 4.15 6.13888 3.78849C6.07586 3.41731 5.96727 3.05513 5.81552 2.71C5.73583 2.532 5.63597 2.36353 5.51786 2.20783C5.45713 2.12566 5.38905 2.04907 5.31443 1.97899C5.27614 1.94172 5.23536 1.90704 5.19237 1.87517L5.12384 1.82644L5.08529 1.80313L5.03176 1.77559L4.95467 1.74169L4.87758 1.76499C4.67051 1.82765 4.46978 1.90922 4.27798 2.00866C4.08962 2.10833 3.90985 2.22314 3.74048 2.35191C3.57245 2.48229 3.41361 2.62388 3.26508 2.77568C3.18371 2.86043 3.10661 2.94519 3.03166 3.03418C2.96356 2.86767 2.90844 2.69625 2.86677 2.52142C2.80877 2.27017 2.76799 2.01533 2.74471 1.75864C2.85607 1.68448 2.9717 1.61456 3.08948 1.54675C2.9717 1.59125 2.85393 1.6421 2.73829 1.69507C2.71821 1.41302 2.71321 1.13011 2.7233 0.847535C2.73162 0.563903 2.75592 0.280952 2.79611 -5.17295e-07C2.71479 0.27791 2.65326 0.561115 2.61194 0.847535C2.56839 1.13237 2.54406 1.41975 2.53914 1.70778V1.80313C2.28005 1.93917 2.03165 2.09428 1.79606 2.26716C1.595 2.41481 1.40466 2.57624 1.22644 2.75025C1.13656 2.83748 1.0515 2.92943 0.971609 3.0257L0.849548 3.16766L0.738194 3.32022C0.431269 3.73109 0.212634 4.1998 0.0957654 4.69747C-0.0191118 5.19783 -0.0307662 5.71599 0.0615017 6.22091C0.0795591 6.34664 0.105304 6.47118 0.138593 6.59383L0.183563 6.78029C0.200695 6.84173 0.22425 6.89894 0.243523 6.96039C0.28421 7.07904 0.320615 7.20193 0.369868 7.31635L0.526191 7.66172C0.576843 7.77643 0.634041 7.88821 0.697506 7.9965C0.757466 8.10668 0.815285 8.21898 0.879528 8.32492L1.09367 8.64063C1.15929 8.74753 1.23078 8.85081 1.30781 8.94998C1.89837 9.74495 2.56925 10.4783 3.31005 11.1387L3.86682 11.643L3.69123 10.9205C3.63787 10.6905 3.59712 10.4578 3.56916 10.2234C3.53918 9.98821 3.51563 9.74878 3.50706 9.51147C3.48436 9.03547 3.51669 8.55847 3.60343 8.08973C3.68803 7.62062 3.85936 7.17096 4.1088 6.76333C4.23802 6.56025 4.38956 6.37194 4.56064 6.20184C4.62917 6.13404 4.70412 6.07047 4.77479 6.00903L4.91398 5.97089C4.78663 6.19431 4.67915 6.42826 4.59277 6.6701C4.45831 7.04678 4.37969 7.44073 4.35935 7.8397C4.32952 8.65111 4.56783 9.45001 5.03818 10.1153C5.09172 10.2022 5.15596 10.2785 5.21592 10.359C5.27588 10.4395 5.33798 10.5179 5.40651 10.59L5.6078 10.8018L5.82195 11.0137C5.85835 11.0455 5.89261 11.0815 5.93116 11.1133L6.04466 11.2087L6.27593 11.3951C6.4344 11.5095 6.59286 11.6303 6.75775 11.7362C7.41481 12.156 8.11199 12.5109 8.83922 12.7957L9.57587 13.0923L9.13474 12.4079L9.12189 12.3889L9.10476 12.3571C9.09206 12.3351 9.08062 12.3125 9.07049 12.2893C9.04679 12.2394 9.02745 12.1877 9.01268 12.1346C8.98077 12.0254 8.96068 11.9132 8.95272 11.7998C8.93602 11.5617 8.9599 11.3224 9.02338 11.0921C9.15901 10.6083 9.3762 10.1505 9.66581 9.73819C9.70222 9.6831 9.73434 9.628 9.77288 9.57715L9.88852 9.42248C9.96561 9.32077 10.0384 9.2106 10.1219 9.11313C10.2868 8.90125 10.456 8.70419 10.6252 8.50078C10.9635 8.09396 11.2997 7.67867 11.6167 7.24219C11.9442 6.8085 12.2194 6.33847 12.4368 5.84164C12.5414 5.58667 12.6196 5.32188 12.6702 5.05131C12.7209 4.77869 12.7288 4.49998 12.6938 4.22497C12.6166 3.68553 12.4005 3.17479 12.0664 2.74178C11.8256 2.41654 11.5483 2.11942 11.2398 1.8561L11.2248 1.83915C11.1374 1.75285 11.042 1.67482 10.94 1.60608C11.1132 1.77412 11.2578 1.96873 11.3682 2.1824C11.4793 2.39103 11.5642 2.61233 11.6209 2.84136C11.7343 3.29216 11.7409 3.76276 11.6402 4.21649C11.5351 4.66453 11.3367 5.08595 11.0577 5.45389C10.7804 5.8286 10.4493 6.16123 10.0748 6.44127C9.98274 6.51543 9.88852 6.58535 9.79002 6.65316C9.69151 6.72096 9.59515 6.78664 9.4945 6.85021C9.29749 6.97946 9.06621 7.10871 8.87777 7.25067C8.46691 7.5304 8.08336 7.84749 7.7321 8.19779C7.37325 8.54642 7.0745 8.95081 6.84769 9.39493C6.73778 9.61981 6.65994 9.85869 6.61642 10.1047C6.56909 10.3474 6.58381 10.598 6.65925 10.8336C6.64104 10.7149 6.64104 10.5942 6.65925 10.4755C6.67298 10.3578 6.69735 10.2415 6.73205 10.1281C6.80229 9.90403 6.9024 9.69026 7.02971 9.4924C7.28506 9.09651 7.59743 8.7396 7.95695 8.43298C8.13255 8.27407 8.32314 8.12787 8.51158 7.98167C8.70003 7.83547 8.89704 7.7041 9.10047 7.57485C9.30391 7.4456 9.50092 7.32483 9.71292 7.19134C9.81999 7.12566 9.92707 7.05997 10.0277 6.97946C10.1284 6.89894 10.2419 6.83749 10.3318 6.76757C10.7336 6.45968 11.0866 6.09402 11.379 5.68273C11.4539 5.57891 11.516 5.47084 11.5802 5.35855C11.6445 5.24625 11.7002 5.13395 11.7473 5.01529C11.8474 4.78006 11.9193 4.534 11.9614 4.28218C12.0389 3.78366 11.9896 3.2739 11.8179 2.79899C11.7539 2.62357 11.6729 2.45469 11.576 2.2947C11.7157 2.46522 11.8444 2.64426 11.9614 2.83077C12.1018 3.04846 12.2174 3.28082 12.3062 3.52363C12.3931 3.76301 12.445 4.01344 12.4604 4.26734C12.4843 4.77424 12.3775 5.27883 12.1499 5.73358C11.9177 6.19465 11.6378 6.63064 11.3147 7.03454C10.9935 7.44772 10.6423 7.84183 10.2954 8.24229C10.1219 8.45417 9.94848 8.64486 9.77717 8.85039C9.68937 8.94998 9.60799 9.06228 9.52234 9.16822L9.39813 9.32925C9.3553 9.38222 9.3189 9.44155 9.28036 9.49876C8.95343 9.9373 8.70699 10.4293 8.55227 10.9523C8.47478 11.2322 8.44439 11.5228 8.46233 11.8125C8.46728 11.8994 8.47873 11.9858 8.49659 12.071C7.99339 11.8478 7.50804 11.5872 7.0447 11.2913C6.88838 11.1917 6.74062 11.0794 6.58858 10.9756L6.37444 10.8018L6.26522 10.715L6.16457 10.6217L5.96328 10.4353L5.77483 10.2382C5.71207 10.1711 5.65343 10.1004 5.59924 10.0263C5.54063 9.95857 5.4856 9.88785 5.43435 9.81446C5.00596 9.23312 4.77638 8.53161 4.77907 7.81216C4.7866 7.45257 4.84572 7.09587 4.95467 6.75274C5.00929 6.57895 5.07583 6.40905 5.15382 6.24422C5.22887 6.08049 5.31619 5.92255 5.41507 5.77172L5.66348 5.40304L5.2352 5.51746C4.83 5.62175 4.43566 5.76363 4.05741 5.94123C3.67721 6.12511 3.32942 6.36835 3.02738 6.66163C2.72668 6.95575 2.50573 7.32011 2.38495 7.72105C2.32412 7.91899 2.29168 8.12441 2.28859 8.33128C2.28385 8.53566 2.30837 8.73968 2.3614 8.93726C2.29674 8.53852 2.33958 8.12995 2.4856 7.75283C2.63076 7.38484 2.86365 7.057 3.16443 6.79724C3.4662 6.53892 3.80733 6.32939 4.17519 6.17642C4.29939 6.12345 4.43002 6.07683 4.5585 6.03234L4.49212 6.07895C4.29284 6.23444 4.11311 6.41299 3.95676 6.61078C3.80358 6.80945 3.67019 7.02233 3.55846 7.24643C3.45286 7.47695 3.36691 7.7158 3.30149 7.96048C3.17209 8.44885 3.10589 8.95151 3.10447 9.45638C3.10088 9.70812 3.11017 9.95988 3.13231 10.2107C3.13337 10.2269 3.13337 10.2432 3.13231 10.2594C2.62138 9.74897 2.14967 9.20149 1.72111 8.62156C1.14766 7.8751 0.739769 7.01738 0.524051 6.10437C0.324969 5.1929 0.494871 4.24054 0.997307 3.45159C1.24998 3.05056 1.55852 2.68678 1.91384 2.37098C2.09241 2.20837 2.28047 2.05626 2.47703 1.91543L2.54342 1.86882C2.54484 2.09518 2.56345 2.32112 2.59909 2.54473C2.64544 2.83599 2.72741 3.12059 2.84322 3.39226L2.95029 3.64017L3.13445 3.41769C3.25558 3.27077 3.38727 3.13269 3.52848 3.00452C3.67038 2.87542 3.82137 2.75646 3.98032 2.64855C4.26688 2.45651 4.58086 2.30797 4.91184 2.20783C4.94029 2.22955 4.9668 2.25365 4.99107 2.27987C5.0454 2.33413 5.09484 2.39297 5.13883 2.45573C5.23014 2.58892 5.30763 2.7309 5.3701 2.8795C5.49909 3.19067 5.59107 3.51562 5.64421 3.84781C5.70184 4.18759 5.73475 4.53102 5.74271 4.87545C5.7577 5.22294 5.75556 5.57043 5.74271 5.92004L5.72558 6.3099L6.08534 6.1637C6.20772 6.114 6.32712 6.0574 6.44296 5.9942C6.55717 5.93487 6.66852 5.8713 6.77702 5.8035C6.99582 5.66942 7.20412 5.51927 7.40018 5.35431C7.79801 5.02307 8.13364 4.62499 8.39166 4.17835C8.64438 3.72173 8.79072 3.21497 8.81995 2.69516C8.81995 2.62736 8.81995 2.55744 8.81995 2.48328C8.87295 2.52584 8.92303 2.57185 8.96985 2.621C9.06207 2.71312 9.14591 2.81309 9.2204 2.91976C9.2931 3.02602 9.35822 3.13718 9.41527 3.25242C9.44524 3.30963 9.4688 3.36895 9.49664 3.42616L9.56945 3.60626L9.68509 3.89654L9.87567 3.63381C9.96426 3.50677 10.0423 3.37285 10.1091 3.23335C10.1723 3.09565 10.2267 2.95411 10.2718 2.80958C10.3629 2.52327 10.414 2.22601 10.4239 1.92602C10.4314 1.742 10.4228 1.55768 10.3982 1.37513C11.2038 1.5775 11.9915 1.84393 12.7538 2.17181C13.1228 2.3378 13.4805 2.52749 13.8245 2.73966L14.0793 2.90493C14.165 2.96002 14.2442 3.02358 14.3256 3.08079L14.4476 3.16978L14.5654 3.26513C14.6425 3.3287 14.7239 3.39014 14.7988 3.45795C15.4036 3.99073 15.9108 4.62298 16.2978 5.32676L16.3706 5.46025L16.4392 5.59585C16.4863 5.68696 16.5248 5.78019 16.5698 5.8713C16.6554 6.05564 16.7304 6.24634 16.7989 6.43915C16.93 6.80208 17.0317 7.17476 17.103 7.55366C17.0623 7.44772 17.0195 7.34178 16.9702 7.24007C16.862 7.011 16.7382 6.78943 16.5998 6.57688C16.3237 6.15118 15.9844 5.76903 15.5933 5.4433C15.2085 5.11837 14.7751 4.8546 14.3084 4.66145C13.8477 4.47374 13.3612 4.35519 12.8651 4.30972C13.3295 4.45181 13.7774 4.64215 14.2014 4.87757C14.6143 5.11062 14.995 5.39549 15.3342 5.7251C15.6645 6.05529 15.9522 6.42466 16.1907 6.82478C16.3101 7.02455 16.4173 7.23114 16.512 7.44348C16.5591 7.54731 16.5998 7.65537 16.6404 7.76343C16.6811 7.87149 16.7175 7.97531 16.7411 8.08125L16.846 8.49231L17.1608 8.2105C17.574 7.84384 17.9304 7.41906 18.2187 6.94979C18.5073 6.48542 18.7143 5.97606 18.8311 5.4433C18.8812 5.17605 18.9112 4.90552 18.9211 4.6339C18.9255 4.36409 18.9105 4.09432 18.8761 3.82662C18.8053 3.2976 18.6453 2.78407 18.4028 2.30742Z" transform="translate(16.0742 32.9077)" fill="#F4F4F4"/>
<path d="M0.571762 0.459789C0.539641 0.497928 0.511801 0.536066 0.483963 0.576324L0.409013 0.699217C0.214502 1.02759 0.076295 1.38558 7.84215e-07 1.75864C0.109214 1.60396 0.214144 1.45564 0.336205 1.31156C0.458267 1.16748 0.565338 1.02976 0.687399 0.887793C0.745218 0.819991 0.809461 0.756425 0.862997 0.688622C0.916532 0.620819 0.967927 0.544541 1.01718 0.476738C1.11354 0.324182 1.21847 0.177982 1.31484 -7.1128e-07C1.12194 0.049027 0.941688 0.137841 0.785905 0.260617C0.707439 0.319132 0.635637 0.385915 0.571762 0.459789Z" transform="translate(20.271 18.9679)" fill="#F4F4F4"/>
<path d="M0.826592 0.574205C0.798753 0.533947 0.770914 0.495809 0.740934 0.45767C0.675888 0.385553 0.604198 0.319584 0.526791 0.260618C0.371502 0.138319 0.192056 0.0495422 0 -2.58647e-07C0.0985058 0.177982 0.201295 0.324182 0.2998 0.476739C0.349053 0.550898 0.398306 0.625057 0.453984 0.688622C0.509661 0.752188 0.571762 0.819991 0.629581 0.887794C0.749501 1.02128 0.867279 1.15901 0.980775 1.31156C1.09427 1.46412 1.19492 1.60396 1.31484 1.75864C1.24025 1.38541 1.10271 1.02727 0.907966 0.699217L0.826592 0.574205Z" transform="translate(23.5557 18.97)" fill="#F4F4F4"/>
<path d="M1.58466 0.0731976C1.5595 0.0849873 1.53518 0.0984375 1.51185 0.113456L1.44975 0.157951C1.41364 0.182643 1.3757 0.204599 1.33625 0.223635C1.26337 0.258163 1.18364 0.276255 1.10284 0.276606C1.02025 0.274785 0.939368 0.252961 0.867279 0.213042C0.827608 0.194829 0.790233 0.172071 0.755924 0.145237L0.68954 0.100742L0.612449 0.0731976C0.418741 -0.0109508 0.200151 -0.0200262 -1.30702e-07 0.0477709C0.188822 0.0603548 0.3721 0.11621 0.535357 0.210922C0.571761 0.236349 0.601742 0.263893 0.638147 0.293557C0.677942 0.330691 0.721748 0.363377 0.768774 0.391023C0.865768 0.453594 0.97851 0.488088 1.09427 0.490609C1.2103 0.490957 1.32426 0.460205 1.42405 0.401618C1.47135 0.374201 1.51582 0.342265 1.55682 0.30627L1.61036 0.259655C1.62581 0.245771 1.64227 0.233024 1.65961 0.221516C1.82087 0.122737 2.00224 0.0605074 2.19068 0.0392954C1.99126 -0.0229766 1.77571 -0.0109177 1.58466 0.0731976Z" transform="translate(21.4443 17.7251)" fill="#F4F4F4"/>
<path d="M15.6282 18.4593C15.8072 18.7209 15.9995 18.9733 16.2042 19.2158L16.5147 19.5717L16.8466 19.9086C16.9516 20.0251 17.0758 20.1205 17.1914 20.2307C17.307 20.3409 17.4205 20.4426 17.5469 20.5379L17.9152 20.8282C18.0394 20.9214 18.1722 21.0062 18.2985 21.0952C18.5512 21.2795 18.8274 21.4257 19.093 21.5846C19.2236 21.6672 19.3671 21.7287 19.5063 21.7965L19.9217 22.0084L19.532 21.7584C19.4056 21.6715 19.2707 21.5973 19.1508 21.4999C18.9067 21.3113 18.6561 21.1397 18.4313 20.9299C18.3178 20.8282 18.2 20.7328 18.0887 20.629L17.7696 20.3006C17.6582 20.1968 17.5554 20.0887 17.4612 19.9658C17.367 19.8429 17.2578 19.7539 17.1678 19.6226L16.8916 19.2666L16.6389 18.8958C16.4762 18.6458 16.3198 18.3915 16.1828 18.1288C16.0457 17.8661 15.9215 17.597 15.808 17.3279C15.7588 17.1901 15.7031 17.0545 15.6603 16.9168C15.6603 16.8935 15.6453 16.8723 15.6389 16.849L15.656 16.7982L15.7181 16.6731L15.853 16.4083L16.1314 15.868C16.3175 15.5037 16.4847 15.1303 16.6325 14.7492C16.7912 14.3601 16.9159 13.9581 17.0051 13.5479L17.0308 13.3868C17.0368 13.3589 17.041 13.3306 17.0436 13.3021C17.0458 13.2682 17.0458 13.2342 17.0436 13.2004C17.0454 13.1067 17.0383 13.013 17.0222 12.9207C17.1143 12.7851 17.367 12.4228 17.5726 12.1579C17.6769 12.0261 17.7741 11.8889 17.8638 11.7468C17.9024 11.8146 17.9452 11.8782 17.988 11.9418C18.1588 12.1851 18.3611 12.4052 18.5898 12.5965L18.7589 12.7363L18.9388 12.8635L19.0266 12.9249L19.1187 12.9821L19.305 13.0944C19.4313 13.1665 19.5598 13.2279 19.6862 13.2936L20.0802 13.4652L19.7183 13.2385C19.6048 13.1559 19.487 13.0754 19.3757 12.9906L19.215 12.855L19.1337 12.7893L19.0587 12.7152L18.9088 12.5711L18.7718 12.4185C18.5927 12.215 18.4402 11.9901 18.3178 11.749C18.2607 11.6322 18.2134 11.511 18.1765 11.3866C18.1567 11.3272 18.1416 11.2662 18.1315 11.2044C18.1315 11.1832 18.1315 11.162 18.1315 11.1409C18.1579 11.0253 18.173 10.9075 18.1765 10.7891L18.2471 10.8633C18.3475 10.9655 18.4533 11.0624 18.5641 11.1536C19.0031 11.5121 19.4977 11.7983 20.0288 12.0011C20.1594 12.0498 20.29 12.1007 20.4228 12.1473L20.8275 12.2596C20.8939 12.2766 20.9603 12.2977 21.0288 12.3126L21.243 12.3507L21.652 12.427C21.9261 12.463 22.2023 12.4884 22.4786 12.516L23.3052 12.5372L22.485 12.4524C22.213 12.4037 21.9432 12.3592 21.6756 12.3041L21.2794 12.1982L21.0824 12.1452L20.8918 12.0774L20.5085 11.9397L20.1401 11.7702C19.6582 11.541 19.2165 11.237 18.8317 10.8696C18.7376 10.779 18.6482 10.6835 18.5641 10.5836L18.4399 10.4332C18.4013 10.3823 18.367 10.3272 18.3285 10.2764L18.275 10.1959L18.2257 10.1132C18.1914 10.0598 18.16 10.0046 18.1315 9.94795C18.102 9.89289 18.0756 9.8363 18.0523 9.77844L18.0266 9.71912C18.0073 9.64919 17.9859 9.57715 17.9623 9.50723C18.0666 9.38105 18.1577 9.24475 18.2343 9.10041C18.3327 8.9122 18.4123 8.71492 18.472 8.51138C18.5317 8.31288 18.5726 8.10929 18.594 7.90327C18.5313 8.09718 18.451 8.2851 18.3542 8.46476C18.2599 8.64071 18.148 8.80682 18.0201 8.96057C17.8991 9.10497 17.7602 9.23381 17.6068 9.34408C17.6068 9.3123 17.6218 9.28263 17.6282 9.25085C17.6777 9.03331 17.7156 8.81336 17.7417 8.59189C17.7996 8.14628 17.806 7.69561 17.761 7.24855C17.6826 6.32731 17.3073 5.45534 16.6903 4.76103C16.5199 4.57831 16.3147 4.4307 16.0864 4.32667L16.0414 4.30972C16.0821 4.25463 16.1228 4.19954 16.1592 4.14445C16.2728 3.97024 16.3751 3.78907 16.4655 3.60203C16.5523 3.4166 16.6281 3.22629 16.6924 3.03206C16.755 2.84074 16.8072 2.64623 16.8488 2.44938C16.768 2.63145 16.6772 2.80899 16.5768 2.98121C16.4776 3.1507 16.3682 3.31414 16.2492 3.47066C16.1306 3.62044 16.0018 3.76203 15.8637 3.89443C15.7973 3.96223 15.7245 4.02579 15.6496 4.08512L15.5404 4.17199L15.5125 4.19106C15.4512 4.18681 15.3897 4.18681 15.3284 4.19106C15.088 4.2119 14.8516 4.26537 14.626 4.34998C14.5275 4.3867 14.4311 4.42484 14.3369 4.46439C14.6418 4.10173 14.8953 3.6997 15.0907 3.26937C15.2033 3.0118 15.2985 2.74706 15.3755 2.47692C15.449 2.20745 15.5048 1.93355 15.5425 1.65693C15.6166 1.10772 15.631 0.552237 15.5853 -2.90978e-07C15.588 0.55607 15.5306 1.11083 15.414 1.65481C15.3615 1.92083 15.2899 2.18281 15.1999 2.43878C15.1073 2.69282 14.9963 2.93994 14.8679 3.17826C14.6117 3.64846 14.2781 4.07311 13.8807 4.43473C13.6811 4.61255 13.4661 4.77278 13.2383 4.91359C13.127 4.98139 13.0113 5.04707 12.8957 5.10428L12.718 5.1848C12.6632 5.21012 12.6067 5.23137 12.5488 5.24836C12.2596 5.33794 11.9588 5.38575 11.6558 5.39033C11.3447 5.38466 11.036 5.33471 10.7393 5.24201L10.5872 5.18268L10.4095 5.10216C10.2746 5.04496 10.1675 4.9708 10.0604 4.90299C9.83255 4.76227 9.61759 4.60204 9.41801 4.42414C9.02065 4.06251 8.68701 3.63787 8.43081 3.16766C8.30173 2.92939 8.19009 2.68227 8.09675 2.42819C8.00767 2.17192 7.93612 1.91 7.8826 1.64422C7.76328 1.10773 7.70368 0.559923 7.70486 0.0105946C7.65958 0.562787 7.67322 1.11816 7.74555 1.66753C7.78537 1.94428 7.84331 2.21819 7.91901 2.48752C7.99672 2.75769 8.09258 3.02243 8.20596 3.27996C8.4006 3.7084 8.65271 4.10893 8.95546 4.47075C8.86338 4.43261 8.7713 4.39447 8.67707 4.36057C8.45027 4.27414 8.21245 4.21923 7.9704 4.19742C7.90623 4.19314 7.84184 4.19314 7.77767 4.19742L7.75198 4.17835L7.64276 4.09148C7.56995 4.03215 7.49857 3.96859 7.42862 3.90078C7.29179 3.76781 7.16375 3.62627 7.0453 3.47701C6.92484 3.32152 6.81536 3.15798 6.71766 2.98756C6.6157 2.81583 6.52417 2.63824 6.44356 2.45573C6.48582 2.65262 6.53872 2.84713 6.60203 3.03842C6.66446 3.23331 6.7403 3.42374 6.82902 3.60838C6.91854 3.79585 7.02085 3.97708 7.13524 4.15081C7.17165 4.20801 7.21233 4.2631 7.25302 4.31819L7.21662 4.33303C6.98744 4.43652 6.78142 4.58419 6.61059 4.76739C5.99365 5.4617 5.61832 6.33367 5.53988 7.25491C5.49694 7.69932 5.50485 8.14711 5.56343 8.58978C5.58962 8.81124 5.6275 9.03119 5.67693 9.24873C5.67693 9.28052 5.69192 9.31018 5.69834 9.34196C5.54494 9.23169 5.4061 9.10285 5.28505 8.95845C5.15714 8.80515 5.04589 8.63897 4.95313 8.46264C4.8532 8.28365 4.77074 8.09563 4.70686 7.90115C4.7283 8.10718 4.76917 8.31076 4.82892 8.50926C4.88838 8.71318 4.96874 8.91055 5.06876 9.0983C5.14715 9.24353 5.24121 9.37993 5.34929 9.50511C5.3343 9.55385 5.31931 9.59834 5.30646 9.64496C5.29361 9.69157 5.29361 9.68098 5.28719 9.70005C5.28077 9.71912 5.26363 9.75514 5.25293 9.78268C5.22959 9.84054 5.20314 9.89712 5.17369 9.95219C5.1452 10.0089 5.11375 10.064 5.07947 10.1175L5.03236 10.2001L4.97668 10.2806C4.94028 10.3315 4.90387 10.3865 4.86533 10.4374L4.74113 10.5878C4.65698 10.6877 4.56763 10.7832 4.47345 10.8739C4.08868 11.2412 3.64695 11.5452 3.16503 11.7744L2.79671 11.9439L2.41553 12.0816L2.2228 12.1494L2.02579 12.2024L1.62963 12.3083C1.36195 12.3634 1.09213 12.4079 0.822309 12.4567L9.80269e-08 12.5414L0.828733 12.5202C1.10284 12.4927 1.37908 12.4672 1.65318 12.4312L2.0622 12.355L2.27634 12.3168C2.34487 12.302 2.41125 12.2808 2.49048 12.2638L2.89307 12.1515C3.02584 12.1049 3.15647 12.0541 3.28924 12.0053C3.81945 11.8021 4.31326 11.5159 4.75183 11.1578C4.86258 11.0667 4.96837 10.9698 5.06876 10.8675L5.14586 10.787C5.14913 10.9017 5.16275 11.0159 5.18654 11.1281C5.18654 11.1536 5.18654 11.1811 5.17369 11.2087C5.16326 11.2702 5.14895 11.3311 5.13087 11.3909C5.09219 11.515 5.04423 11.6361 4.98739 11.7532C4.865 11.9943 4.71248 12.2193 4.53341 12.4228L4.39636 12.5753L4.24645 12.7194L4.1715 12.7936L4.09013 12.8592L3.92952 12.9948C3.81817 13.0796 3.70253 13.1601 3.58689 13.2427L3.20786 13.4673L3.60188 13.2957C3.72823 13.23 3.85886 13.1686 3.98306 13.0965L4.16936 12.9842L4.26144 12.927L4.35138 12.8656L4.52912 12.7385L4.6983 12.5986C4.92693 12.4073 5.12923 12.1872 5.30004 11.9439C5.34501 11.8803 5.38784 11.8125 5.42852 11.7447C5.51865 11.891 5.61657 12.0325 5.7219 12.1685C5.93604 12.4312 6.17802 12.8041 6.27225 12.9292C6.25546 13.0222 6.24757 13.1165 6.24869 13.211C6.24656 13.2448 6.24656 13.2788 6.24869 13.3127C6.24869 13.3487 6.24869 13.3699 6.26154 13.3974L6.28938 13.5585C6.37687 13.9689 6.50085 14.3709 6.65985 14.7598C6.80831 15.1409 6.97628 15.5143 7.16308 15.8786L7.44147 16.4189L7.52284 16.5799C7.52162 16.594 7.52162 16.6082 7.52284 16.6223C7.52284 16.6562 7.50357 16.6901 7.495 16.724C7.47644 16.7918 7.45503 16.8624 7.43076 16.9359C7.38793 17.0736 7.33225 17.2092 7.28086 17.3469C7.17 17.6201 7.04492 17.8875 6.90611 18.1479C6.76805 18.411 6.61652 18.667 6.45213 18.9149L6.1973 19.2857L5.92105 19.6416C5.83325 19.7645 5.72618 19.8705 5.62982 19.9849C5.53345 20.0993 5.43281 20.2158 5.32145 20.3197L5.00024 20.6417C4.88888 20.7456 4.7711 20.8409 4.65761 20.9426C4.44347 21.1545 4.18007 21.324 3.93809 21.5126C3.81817 21.61 3.68326 21.6842 3.55691 21.7711L3.15433 21.9957L3.56976 21.7838C3.70682 21.7139 3.85243 21.6524 3.98306 21.5719C4.2486 21.413 4.52484 21.2668 4.77539 21.0825C4.90387 20.9935 5.0345 20.9087 5.16085 20.8155L5.52917 20.5252C5.65337 20.4298 5.76901 20.3133 5.88465 20.218C6.00029 20.1226 6.12235 20.0061 6.22942 19.8959L6.56134 19.559L6.87185 19.203C7.07314 18.9594 7.27015 18.7094 7.44789 18.4466C7.5828 18.2559 7.707 18.0567 7.82478 17.8533L7.84834 18.0186C7.8826 18.275 7.91687 18.5335 7.95327 18.7941L7.87404 18.9573L7.65989 19.3514C7.59137 19.487 7.50357 19.6077 7.42434 19.737C7.3451 19.8662 7.26587 19.9934 7.17379 20.1141L6.90611 20.4807C6.81189 20.6015 6.71124 20.7138 6.61488 20.8324C6.42001 21.0846 6.20586 21.2943 5.99172 21.5168C5.88893 21.6312 5.77758 21.7287 5.65552 21.8304L5.31075 22.1376L5.68978 21.8707C5.81398 21.7795 5.94889 21.699 6.06453 21.5973C6.30223 21.3982 6.55063 21.2117 6.7712 20.9913C6.88255 20.8833 7.00033 20.7795 7.10955 20.6672L7.42648 20.3239C7.53569 20.2116 7.64062 20.0887 7.73056 19.9679C7.8205 19.8472 7.9447 19.7264 8.0218 19.5971L8.06677 19.5336C8.11688 19.8411 8.18264 20.1459 8.26378 20.4468C8.31828 20.6584 8.38989 20.8653 8.47792 21.0655C8.57243 21.2776 8.69484 21.4763 8.84196 21.6567C8.99519 21.8385 9.17404 21.9977 9.37304 22.1292C9.56973 22.249 9.7795 22.3463 9.99833 22.4194C10.208 22.4958 10.4226 22.5581 10.6408 22.6059C10.8513 22.6575 11.0665 22.688 11.2832 22.697C11.4074 22.697 11.5337 22.697 11.6579 22.697C11.7821 22.697 11.9085 22.697 12.0348 22.697C12.2515 22.6879 12.4667 22.6574 12.6773 22.6059C12.8953 22.5578 13.1099 22.4955 13.3197 22.4194C13.536 22.3432 13.7429 22.243 13.9364 22.1207C14.1363 21.9903 14.3153 21.831 14.4675 21.6482C14.6153 21.4679 14.7384 21.2691 14.8337 21.057C14.9208 20.8564 14.9924 20.6496 15.0478 20.4383C15.1099 20.2095 15.1592 19.9828 15.202 19.7561C15.2555 19.8239 15.3134 19.8895 15.3669 19.9679C15.4654 20.0887 15.5596 20.2116 15.671 20.3239L15.9879 20.6672C16.0971 20.7795 16.2149 20.879 16.3263 20.9913C16.5404 21.2032 16.7952 21.3982 17.0329 21.5973C17.1486 21.699 17.2835 21.7795 17.4077 21.8707L17.7846 22.1376L17.4419 21.8304C17.3284 21.7245 17.2085 21.6312 17.1036 21.5168C16.8895 21.2943 16.6753 21.093 16.4826 20.8451C16.3862 20.7265 16.2856 20.6142 16.1913 20.4934L15.9237 20.1269C15.8316 20.0061 15.7524 19.8768 15.6731 19.7497C15.5939 19.6226 15.5061 19.4997 15.4376 19.3641L15.3091 19.131C15.3583 18.8026 15.4012 18.4784 15.444 18.1542C15.489 18.258 15.5553 18.3597 15.6282 18.4593ZM8.82055 15.5163C8.81631 15.5039 8.81631 15.4905 8.82055 15.4781C8.84839 15.3997 8.98972 15.1094 9.50581 15.0183C9.5143 15.0168 9.52303 15.0174 9.53125 15.0199C9.53948 15.0225 9.54696 15.027 9.55306 15.033C9.55916 15.0391 9.56369 15.0465 9.56628 15.0546C9.56886 15.0627 9.56942 15.0714 9.56791 15.0798C9.48938 15.5459 9.46281 16.0191 9.48867 16.4909C9.48881 16.5015 9.48584 16.512 9.48013 16.521C9.47442 16.5299 9.46621 16.5371 9.45648 16.5416C9.44676 16.5461 9.43593 16.5477 9.4253 16.5462C9.41468 16.5447 9.40471 16.5402 9.39659 16.5333C9.13898 16.235 8.94325 15.8894 8.82055 15.5163ZM12.8893 21.4045C12.1333 21.6058 12.6751 21.2774 11.643 21.2392C10.6151 21.2774 11.1504 21.6058 10.3966 21.4045C9.64286 21.2032 9.14176 20.3451 9.29595 20.023C9.45013 19.701 9.87199 19.72 10.6001 19.8578C10.9411 19.9403 11.2922 19.9746 11.643 19.9595C11.9937 19.9747 12.3448 19.9404 12.6858 19.8578C13.4161 19.72 13.8379 19.6946 13.9921 20.023C14.1463 20.3514 13.6473 21.2011 12.8914 21.4045H12.8893ZM10.2125 18.7644C10.2144 18.7566 10.219 18.7497 10.2254 18.7447C10.2318 18.7398 10.2397 18.7371 10.2478 18.7371C10.2559 18.7371 10.2638 18.7398 10.2702 18.7447C10.2766 18.7497 10.2812 18.7566 10.2831 18.7644C10.3686 19.0093 10.4883 19.241 10.6386 19.4531C10.4844 19.5717 10.2446 19.4531 10.2446 19.4531C10.1769 19.2296 10.1666 18.9929 10.2146 18.7644H10.2125ZM12.6473 19.4531C12.7967 19.2405 12.9163 19.0088 13.0028 18.7644C13.0047 18.7566 13.0093 18.7497 13.0157 18.7447C13.0221 18.7398 13.03 18.7371 13.0381 18.7371C13.0462 18.7371 13.0541 18.7398 13.0605 18.7447C13.0669 18.7497 13.0715 18.7566 13.0734 18.7644C13.1191 18.9919 13.1073 19.227 13.0392 19.4488C13.0392 19.4488 12.8015 19.5675 12.6473 19.4531ZM14.4654 15.5205C14.343 15.8934 14.1481 16.2389 13.8915 16.5375C13.8837 16.5456 13.8736 16.5511 13.8626 16.5532C13.8516 16.5552 13.8402 16.5538 13.83 16.5492C13.8198 16.5445 13.8114 16.5367 13.8059 16.5271C13.8004 16.5174 13.7981 16.5062 13.7994 16.4952C13.8237 16.0233 13.7965 15.5501 13.718 15.084C13.7165 15.0756 13.717 15.067 13.7196 15.0588C13.7222 15.0507 13.7268 15.0433 13.7328 15.0373C13.7389 15.0312 13.7464 15.0267 13.7547 15.0242C13.7629 15.0216 13.7716 15.0211 13.7801 15.0226C14.2962 15.1137 14.4375 15.404 14.4675 15.4824C14.4709 15.4935 14.4702 15.5056 14.4654 15.5163V15.5205ZM14.9386 15.3383C14.4782 14.9145 13.9064 14.2789 12.1141 13.7449C12.1141 13.7449 11.8999 13.7068 11.8999 13.4038V12.9334C11.985 12.7427 12.1176 12.5765 12.2854 12.4504C12.4533 12.3244 12.6507 12.2427 12.8593 12.213C13.5895 12.0986 14.1142 11.5773 14.0756 10.9586C14.0756 10.9586 13.461 11.2998 11.6515 11.2743C9.84201 11.2998 9.22742 10.9586 9.22742 10.9586C9.18887 11.5795 9.71352 12.0986 10.4438 12.213C10.6522 12.2431 10.8494 12.3249 11.0172 12.4509C11.185 12.5769 11.3177 12.7429 11.4031 12.9334V13.4038C11.4031 13.7068 11.189 13.7449 11.189 13.7449C9.39659 14.2852 8.8334 14.9103 8.36442 15.3383C8.11174 15.5735 7.83335 15.4442 7.63634 15.2789C7.50999 15.0247 7.38365 14.7704 7.27229 14.5119C7.11257 14.1634 6.9836 13.8018 6.88684 13.4313C6.87185 13.3466 6.84401 13.2406 6.84187 13.1855C6.83776 13.1075 6.84279 13.0293 6.85686 12.9525C6.89206 12.7739 6.94515 12.5993 7.01532 12.4312C7.16427 12.0729 7.33963 11.7259 7.53997 11.393C7.93614 10.7086 8.39655 10.056 8.86338 9.40553C9.09894 9.08135 9.33877 8.76988 9.58504 8.44357C9.65453 8.35528 9.71212 8.25841 9.75635 8.15541C9.80203 8.04254 9.81608 7.91956 9.79704 7.79945C9.77878 7.67635 9.71461 7.56448 9.61716 7.48586C9.53051 7.41434 9.42345 7.37138 9.31094 7.36297C9.38013 7.41922 9.43707 7.48879 9.4783 7.56746C9.51952 7.64613 9.54418 7.73226 9.55078 7.82064C9.53244 7.98807 9.4569 8.1443 9.33663 8.26347L9.30879 8.29525C9.08691 8.17599 8.88174 8.02854 8.69849 7.85666C8.3944 7.57485 7.36866 6.99217 6.53779 7.48162C6.916 7.58344 7.267 7.76621 7.56599 8.01701C7.86497 8.2678 8.10464 8.58051 8.26806 8.93303C8.3416 9.07326 8.38119 9.22849 8.3837 9.38646C8.1824 9.63436 7.98539 9.88227 7.7948 10.1386C7.55282 10.4628 7.31727 10.7955 7.09456 11.1387C6.86641 11.4858 6.66456 11.8491 6.49067 12.2257L6.45213 12.3126C6.3472 12.1664 6.23798 11.999 6.11592 11.857C5.91656 11.6329 5.76635 11.3703 5.67479 11.0858C5.59718 10.692 5.62599 10.2848 5.7583 9.90557C5.8364 9.96185 5.91873 10.0121 6.00457 10.056L6.54207 10.2933L6.34077 9.73395C6.2737 9.54166 6.21793 9.34569 6.17374 9.14703C6.12877 8.94574 6.09451 8.74233 6.06881 8.5368C6.01711 8.12834 6.01137 7.71547 6.05168 7.30576C6.09076 6.90121 6.18885 6.5044 6.34291 6.12768C6.42077 5.94148 6.51313 5.76154 6.61916 5.5895C6.72219 5.42062 6.84199 5.26234 6.97678 5.117C7.10118 4.98274 7.25107 4.87402 7.41791 4.79705C7.57974 4.72808 7.75628 4.6997 7.93185 4.71442C8.33137 4.77319 8.71755 4.90008 9.07324 5.08945C9.46298 5.25684 9.85914 5.46872 10.2746 5.61916C10.3709 5.65306 10.4673 5.68696 10.5658 5.71663C10.9121 5.82642 11.273 5.88427 11.6365 5.88825C12.1024 5.87957 12.5629 5.78844 12.9963 5.61916C13.4246 5.46237 13.8165 5.26108 14.2041 5.08098C14.5598 4.8916 14.946 4.76471 15.3455 4.70594C15.5211 4.69122 15.6976 4.71961 15.8594 4.78858C16.0263 4.86555 16.1762 4.97426 16.3006 5.10852C16.4361 5.25377 16.5566 5.41205 16.6603 5.58102C16.7657 5.75311 16.8573 5.93305 16.9344 6.11921C17.0885 6.49592 17.1866 6.89274 17.2257 7.29728C17.267 7.70695 17.2613 8.11994 17.2085 8.52833C17.1828 8.74021 17.1486 8.93726 17.1036 9.13855C17.0594 9.33722 17.0036 9.53318 16.9366 9.72547L16.7353 10.2848L17.2728 10.0475C17.3586 10.0037 17.4409 9.95337 17.519 9.8971C17.6508 10.2764 17.6803 10.6832 17.6047 11.0773C17.6047 11.0773 17.6047 11.0773 17.6047 11.0942C17.5138 11.3719 17.3682 11.629 17.1764 11.8507C17.0651 11.9926 16.943 12.16 16.8381 12.3083C16.8252 12.2787 16.8145 12.2469 16.8017 12.2193C16.6278 11.8428 16.4259 11.4795 16.1978 11.1324C15.9836 10.7891 15.7395 10.4565 15.4954 10.1323C15.3048 9.87591 15.1078 9.62801 14.9065 9.3801C14.9104 9.22232 14.9499 9.0674 15.0221 8.92667C15.1855 8.57415 15.4252 8.26145 15.7242 8.01065C16.0232 7.75985 16.3742 7.57709 16.7524 7.47527C15.9237 6.98581 14.8979 7.56849 14.5938 7.8503C14.4099 8.02234 14.204 8.16979 13.9814 8.2889L13.9557 8.25712C13.8354 8.13794 13.7599 7.98171 13.7416 7.81428C13.7478 7.72604 13.772 7.63996 13.8129 7.56129C13.8538 7.48261 13.9104 7.41298 13.9793 7.35661C13.8668 7.36544 13.7599 7.40835 13.673 7.4795C13.5709 7.55784 13.504 7.67275 13.4867 7.79945C13.4719 7.9216 13.4911 8.04544 13.5424 8.15753C13.5882 8.2602 13.6464 8.35697 13.7159 8.44569C13.9621 8.76564 14.202 9.08134 14.4375 9.40765C14.9022 10.0581 15.3648 10.7107 15.7609 11.3951C15.9604 11.7285 16.1358 12.0754 16.2856 12.4333C16.3541 12.6018 16.4065 12.7764 16.4419 12.9546C16.4566 13.0314 16.4623 13.1096 16.459 13.1877C16.4479 13.2704 16.4321 13.3524 16.4119 13.4334C16.3169 13.8042 16.1886 14.1658 16.0286 14.514C15.9172 14.7725 15.7909 15.0268 15.6646 15.2811C15.4697 15.44 15.1999 15.5692 14.9386 15.334V15.3383Z" transform="translate(10.9258 10.2107)" fill="#F4F4F4"/>
<path d="M4.9253 0.149436C4.907 0.115785 4.88203 0.0861353 4.85189 0.0622592C4.82174 0.0383831 4.78703 0.0207721 4.74984 0.0104844C4.71265 0.00019675 4.67374 -0.00255837 4.63545 0.00238554C4.59716 0.00732946 4.56027 0.0198699 4.52699 0.0392557C4.46097 0.0762044 4.41243 0.13751 4.39196 0.209772C4.3715 0.282034 4.38078 0.359375 4.41778 0.424886L8.68136 8.11203H0.284819C0.247135 8.11231 0.209876 8.11993 0.175169 8.13446C0.140462 8.14898 0.108984 8.17013 0.0825368 8.19669C0.0560896 8.22325 0.0351887 8.25471 0.0210283 8.28926C0.0068678 8.32382 -0.000274218 8.36079 8.05048e-06 8.39808C-0.000274506 8.43582 0.00699579 8.47324 0.0213975 8.50819C0.0357992 8.54314 0.0570461 8.57493 0.083919 8.60171C0.110792 8.6285 0.142758 8.64976 0.177973 8.66427C0.213187 8.67877 0.250957 8.68624 0.289102 8.68624H9.66642L4.9253 0.149436Z" transform="translate(35.3335 31.8811)" fill="#F4F4F4"/>
<path d="M9.02613 8.21094H0.980775L5.29575 0.424204C5.33218 0.358573 5.34115 0.281423 5.32073 0.209323C5.30031 0.137222 5.25214 0.0759173 5.18654 0.0385735C5.15303 0.0194365 5.11599 0.00710306 5.0776 0.00228847C5.03921 -0.00252612 5.00024 0.000275014 4.96296 0.0105329C4.92567 0.0207907 4.89083 0.0382973 4.86046 0.0620295C4.8301 0.0857618 4.80482 0.115244 4.7861 0.148754L0 8.78514H9.02613C9.06427 8.78514 9.10204 8.77768 9.13725 8.76317C9.17247 8.74866 9.20443 8.7274 9.23131 8.70061C9.25818 8.67383 9.27943 8.64204 9.29383 8.60709C9.30823 8.57214 9.3155 8.53472 9.31522 8.49698C9.3155 8.45934 9.30822 8.42201 9.29379 8.38718C9.27937 8.35235 9.25808 8.32071 9.23118 8.29409C9.20428 8.26747 9.1723 8.24641 9.13709 8.23214C9.10189 8.21786 9.06417 8.21066 9.02613 8.21094Z" transform="translate(0 31.7822)" fill="#F4F4F4"/>
<path d="M0.149081 3.85629C0.182434 3.87538 0.219308 3.88768 0.257535 3.89247C0.295761 3.89725 0.33457 3.89443 0.371679 3.88417C0.408787 3.8739 0.443447 3.8564 0.473622 3.83269C0.503796 3.80898 0.528876 3.77955 0.547387 3.74611L1.96287 1.2035L4.2178 5.26743C4.23608 5.30041 4.26074 5.32949 4.29038 5.35304C4.32002 5.37658 4.35406 5.39411 4.39055 5.40464C4.42704 5.41516 4.46526 5.41848 4.50305 5.41438C4.54083 5.41029 4.57743 5.39888 4.61075 5.38079C4.64407 5.36271 4.67347 5.3383 4.69726 5.30897C4.72106 5.27965 4.73878 5.24597 4.74942 5.20987C4.76005 5.17376 4.7634 5.13594 4.75927 5.09855C4.75513 5.06117 4.7436 5.02496 4.72532 4.99198L1.96287 0L0.0355855 3.46854C-0.00116745 3.53488 -0.0098589 3.61293 0.0114121 3.6856C0.0326831 3.75827 0.0821837 3.81965 0.149081 3.85629Z" transform="translate(20.5352)" fill="#F4F4F4"/>
<path d="M1.59536 7.84832e-06H0.291234C0.25309 -0.000271727 0.215267 0.00692187 0.179945 0.0211717C0.144623 0.0354215 0.112501 0.0564442 0.0854294 0.0830337C0.0583574 0.109623 0.0368706 0.141252 0.0222086 0.176095C0.00754663 0.210938 -1.20979e-06 0.24831 -1.63269e-07 0.286052C-1.63269e-07 0.362478 0.0306833 0.435771 0.0853004 0.489812C0.139917 0.543852 0.213994 0.574215 0.291234 0.574215H1.8866V0.286052C1.8866 0.24831 1.87905 0.210938 1.86439 0.176095C1.84973 0.141252 1.82824 0.109623 1.80117 0.0830337C1.7741 0.0564442 1.74198 0.0354215 1.70665 0.0211717C1.67133 0.00692187 1.63351 -0.000271727 1.59536 7.84832e-06Z" transform="translate(13.3945 39.9932)" fill="#F4F4F4"/>
<path d="M2.2742 0H0.289094C0.129433 0 0 0.128067 0 0.286045V0.288162C0 0.44614 0.129433 0.574207 0.289094 0.574207H2.2742C2.43386 0.574207 2.56329 0.44614 2.56329 0.288162V0.286045C2.56329 0.128067 2.43386 0 2.2742 0Z" transform="translate(28.832 39.9932)" fill="#F4F4F4"/>
</svg>
