<svg width="151" height="15" viewBox="0 0 151 15" fill="none" xmlns="http://www.w3.org/2000/svg">
<path d="M0.476 1.112H2.906V11.696H8.36V14H0.476V1.112ZM11.3981 3.812C10.9781 3.812 10.6181 3.662 10.3181 3.362C10.0181 3.062 9.86806 2.702 9.86806 2.282C9.86806 1.862 10.0181 1.508 10.3181 1.22C10.6181 0.92 10.9781 0.77 11.3981 0.77C11.8181 0.77 12.1721 0.92 12.4601 1.22C12.7601 1.508 12.9101 1.862 12.9101 2.282C12.9101 2.702 12.7601 3.062 12.4601 3.362C12.1721 3.662 11.8181 3.812 11.3981 3.812ZM10.2101 4.82H12.5681V14H10.2101V4.82ZM19.3448 14.288C18.3968 14.288 17.5508 14.078 16.8068 13.658C16.0628 13.226 15.4808 12.644 15.0608 11.912C14.6528 11.168 14.4488 10.334 14.4488 9.41C14.4488 8.498 14.6528 7.67 15.0608 6.926C15.4808 6.182 16.0628 5.6 16.8068 5.18C17.5508 4.748 18.3968 4.532 19.3448 4.532C20.2808 4.532 21.1208 4.748 21.8648 5.18C22.6088 5.6 23.1848 6.182 23.5928 6.926C24.0128 7.67 24.2228 8.498 24.2228 9.41C24.2228 10.334 24.0128 11.168 23.5928 11.912C23.1848 12.644 22.6088 13.226 21.8648 13.658C21.1208 14.078 20.2808 14.288 19.3448 14.288ZM19.3448 12.11C19.8008 12.11 20.2208 12.002 20.6048 11.786C20.9888 11.57 21.2948 11.258 21.5228 10.85C21.7508 10.442 21.8648 9.962 21.8648 9.41C21.8648 8.87 21.7508 8.396 21.5228 7.988C21.2948 7.58 20.9888 7.268 20.6048 7.052C20.2208 6.836 19.8008 6.728 19.3448 6.728C18.8888 6.728 18.4688 6.836 18.0848 7.052C17.7008 7.268 17.3888 7.58 17.1488 7.988C16.9208 8.396 16.8068 8.87 16.8068 9.41C16.8068 9.95 16.9208 10.43 17.1488 10.85C17.3888 11.258 17.7008 11.57 18.0848 11.786C18.4688 12.002 18.8888 12.11 19.3448 12.11ZM25.8512 4.82H28.0652V5.972H28.2092C28.4852 5.528 28.8752 5.18 29.3792 4.928C29.8832 4.664 30.4292 4.532 31.0172 4.532C32.1212 4.532 32.9612 4.868 33.5372 5.54C34.1132 6.212 34.4012 7.13 34.4012 8.294V14H32.0432V8.582C32.0432 7.994 31.8932 7.538 31.5932 7.214C31.2932 6.89 30.8732 6.728 30.3332 6.728C29.6972 6.728 29.1812 6.974 28.7852 7.466C28.4012 7.958 28.2092 8.576 28.2092 9.32V14H25.8512V4.82ZM40.0307 14.288C38.9147 14.288 38.0087 14.06 37.3127 13.604C36.6287 13.148 36.1487 12.554 35.8727 11.822L37.9787 10.904C38.1707 11.336 38.4407 11.666 38.7887 11.894C39.1487 12.11 39.5627 12.218 40.0307 12.218C40.4627 12.218 40.8227 12.152 41.1107 12.02C41.3987 11.876 41.5427 11.648 41.5427 11.336C41.5427 11.036 41.4107 10.814 41.1467 10.67C40.8827 10.514 40.4867 10.376 39.9587 10.256L38.8787 10.022C38.1347 9.842 37.5167 9.518 37.0247 9.05C36.5327 8.57 36.2867 7.976 36.2867 7.268C36.2867 6.74 36.4427 6.266 36.7547 5.846C37.0787 5.426 37.5107 5.102 38.0507 4.874C38.6027 4.646 39.2087 4.532 39.8687 4.532C41.7647 4.532 43.0307 5.198 43.6667 6.53L41.6507 7.412C41.2907 6.764 40.7147 6.44 39.9227 6.44C39.5147 6.44 39.1907 6.518 38.9507 6.674C38.7107 6.818 38.5907 7.004 38.5907 7.232C38.5907 7.664 38.9987 7.988 39.8147 8.204L41.1647 8.528C42.0767 8.756 42.7607 9.104 43.2167 9.572C43.6847 10.04 43.9187 10.616 43.9187 11.3C43.9187 11.888 43.7447 12.41 43.3967 12.866C43.0607 13.31 42.5927 13.658 41.9927 13.91C41.4047 14.162 40.7507 14.288 40.0307 14.288ZM54.5878 14.288C53.5798 14.288 52.6978 14.072 51.9418 13.64C51.1978 13.208 50.6158 12.584 50.1958 11.768C49.7878 10.952 49.5838 9.986 49.5838 8.87V1.112H51.9958V9.014C51.9958 9.902 52.2178 10.622 52.6618 11.174C53.1178 11.714 53.7598 11.984 54.5878 11.984C55.4158 11.984 56.0518 11.714 56.4958 11.174C56.9518 10.622 57.1798 9.902 57.1798 9.014V1.112H59.5918V8.87C59.5918 9.938 59.3878 10.88 58.9798 11.696C58.5718 12.512 57.9898 13.148 57.2338 13.604C56.4778 14.06 55.5958 14.288 54.5878 14.288ZM61.9918 4.82H64.2058V5.972H64.3498C64.6258 5.528 65.0158 5.18 65.5198 4.928C66.0238 4.664 66.5698 4.532 67.1578 4.532C68.2618 4.532 69.1018 4.868 69.6778 5.54C70.2538 6.212 70.5418 7.13 70.5418 8.294V14H68.1838V8.582C68.1838 7.994 68.0338 7.538 67.7338 7.214C67.4338 6.89 67.0138 6.728 66.4738 6.728C65.8378 6.728 65.3218 6.974 64.9258 7.466C64.5418 7.958 64.3498 8.576 64.3498 9.32V14H61.9918V4.82ZM74.0992 3.812C73.6792 3.812 73.3192 3.662 73.0192 3.362C72.7192 3.062 72.5692 2.702 72.5692 2.282C72.5692 1.862 72.7192 1.508 73.0192 1.22C73.3192 0.92 73.6792 0.77 74.0992 0.77C74.5192 0.77 74.8732 0.92 75.1612 1.22C75.4612 1.508 75.6112 1.862 75.6112 2.282C75.6112 2.702 75.4612 3.062 75.1612 3.362C74.8732 3.662 74.5192 3.812 74.0992 3.812ZM72.9112 4.82H75.2692V14H72.9112V4.82ZM76.7158 4.82H79.3978L81.7198 10.796H81.8638L84.2218 4.82H86.8678L82.9438 14H80.6038L76.7158 4.82ZM92.1864 14.288C91.2744 14.288 90.4524 14.078 89.7204 13.658C88.9884 13.238 88.4124 12.662 87.9924 11.93C87.5844 11.186 87.3804 10.352 87.3804 9.428C87.3804 8.552 87.5844 7.742 87.9924 6.998C88.4004 6.242 88.9644 5.642 89.6844 5.198C90.4044 4.754 91.2084 4.532 92.0964 4.532C93.0444 4.532 93.8604 4.736 94.5444 5.144C95.2284 5.552 95.7444 6.11 96.0924 6.818C96.4524 7.526 96.6324 8.312 96.6324 9.176C96.6324 9.452 96.6144 9.716 96.5784 9.968H89.6844C89.8044 10.7 90.0924 11.258 90.5484 11.642C91.0164 12.014 91.5744 12.2 92.2224 12.2C92.7624 12.2 93.2244 12.086 93.6084 11.858C94.0044 11.618 94.3164 11.3 94.5444 10.904L96.4524 11.84C95.5164 13.472 94.0944 14.288 92.1864 14.288ZM94.3644 8.294C94.3404 8.006 94.2324 7.724 94.0404 7.448C93.8604 7.16 93.6024 6.926 93.2664 6.746C92.9424 6.554 92.5584 6.458 92.1144 6.458C91.5504 6.458 91.0644 6.626 90.6564 6.962C90.2604 7.286 89.9724 7.73 89.7924 8.294H94.3644ZM98.4489 4.82H100.663V6.044H100.807C101.035 5.612 101.389 5.258 101.869 4.982C102.349 4.694 102.877 4.55 103.453 4.55C103.873 4.55 104.257 4.616 104.605 4.748V7.106C104.281 6.986 104.005 6.902 103.777 6.854C103.561 6.794 103.327 6.764 103.075 6.764C102.379 6.764 101.827 7.016 101.419 7.52C101.011 8.024 100.807 8.66 100.807 9.428V14H98.4489V4.82ZM109.271 14.288C108.155 14.288 107.249 14.06 106.553 13.604C105.869 13.148 105.389 12.554 105.113 11.822L107.219 10.904C107.411 11.336 107.681 11.666 108.029 11.894C108.389 12.11 108.803 12.218 109.271 12.218C109.703 12.218 110.063 12.152 110.351 12.02C110.639 11.876 110.783 11.648 110.783 11.336C110.783 11.036 110.651 10.814 110.387 10.67C110.123 10.514 109.727 10.376 109.199 10.256L108.119 10.022C107.375 9.842 106.757 9.518 106.265 9.05C105.773 8.57 105.527 7.976 105.527 7.268C105.527 6.74 105.683 6.266 105.995 5.846C106.319 5.426 106.751 5.102 107.291 4.874C107.843 4.646 108.449 4.532 109.109 4.532C111.005 4.532 112.271 5.198 112.907 6.53L110.891 7.412C110.531 6.764 109.955 6.44 109.163 6.44C108.755 6.44 108.431 6.518 108.191 6.674C107.951 6.818 107.831 7.004 107.831 7.232C107.831 7.664 108.239 7.988 109.055 8.204L110.405 8.528C111.317 8.756 112.001 9.104 112.457 9.572C112.925 10.04 113.159 10.616 113.159 11.3C113.159 11.888 112.985 12.41 112.637 12.866C112.301 13.31 111.833 13.658 111.233 13.91C110.645 14.162 109.991 14.288 109.271 14.288ZM117.763 14.288C116.791 14.288 115.993 14.006 115.369 13.442C114.745 12.866 114.433 12.116 114.433 11.192C114.433 10.58 114.595 10.04 114.919 9.572C115.243 9.104 115.687 8.744 116.251 8.492C116.815 8.24 117.439 8.114 118.123 8.114C119.071 8.114 119.881 8.252 120.553 8.528V8.132C120.553 7.628 120.361 7.22 119.977 6.908C119.605 6.596 119.101 6.44 118.465 6.44C118.033 6.44 117.613 6.542 117.205 6.746C116.809 6.938 116.479 7.196 116.215 7.52L114.703 6.332C115.147 5.756 115.705 5.312 116.377 5C117.049 4.688 117.781 4.532 118.573 4.532C119.977 4.532 121.045 4.856 121.777 5.504C122.509 6.152 122.875 7.1 122.875 8.348V14H120.553V13.064H120.409C120.133 13.424 119.767 13.718 119.311 13.946C118.867 14.174 118.351 14.288 117.763 14.288ZM118.321 12.452C119.005 12.452 119.545 12.236 119.941 11.804C120.349 11.36 120.553 10.844 120.553 10.256C119.941 9.968 119.299 9.824 118.627 9.824C117.403 9.824 116.791 10.28 116.791 11.192C116.791 11.564 116.923 11.87 117.187 12.11C117.451 12.338 117.829 12.452 118.321 12.452ZM125.045 1.112H127.403V14H125.045V1.112ZM134.263 1.112H136.693V14H134.263V1.112ZM139.624 1.112H143.98C145.324 1.112 146.494 1.382 147.49 1.922C148.486 2.462 149.254 3.218 149.794 4.19C150.334 5.162 150.604 6.284 150.604 7.556C150.604 8.828 150.334 9.95 149.794 10.922C149.254 11.894 148.486 12.65 147.49 13.19C146.494 13.73 145.324 14 143.98 14H139.624V1.112ZM143.872 11.696C145.264 11.696 146.326 11.33 147.058 10.598C147.79 9.854 148.156 8.84 148.156 7.556C148.156 6.272 147.79 5.264 147.058 4.532C146.326 3.788 145.264 3.416 143.872 3.416H142.054V11.696H143.872Z" fill="white"/>
</svg>
