<svg width="48" height="48" viewBox="0 0 48 48" fill="none" xmlns="http://www.w3.org/2000/svg">
<path fill-rule="evenodd" clip-rule="evenodd" d="M33.6 1.2H14.4C7.10984 1.2 1.2 7.10984 1.2 14.4V33.6C1.2 40.8902 7.10984 46.8 14.4 46.8H33.6C40.8902 46.8 46.8 40.8902 46.8 33.6V14.4C46.8 7.10984 40.8902 1.2 33.6 1.2ZM14.4 0C6.4471 0 0 6.4471 0 14.4V33.6C0 41.5529 6.4471 48 14.4 48H33.6C41.5529 48 48 41.5529 48 33.6V14.4C48 6.4471 41.5529 0 33.6 0H14.4Z" fill="url(#paint0_linear)"/>
<path d="M33.6 36H14.4V33.6C14.4 32.0087 15.0321 30.4826 16.1574 29.3574C17.2826 28.2321 18.8087 27.6 20.4 27.6H27.6C29.1913 27.6 30.7174 28.2321 31.8426 29.3574C32.9679 30.4826 33.6 32.0087 33.6 33.6V36ZM24 25.2C23.0545 25.2 22.1182 25.0138 21.2447 24.6519C20.3711 24.2901 19.5774 23.7598 18.9088 23.0912C18.2402 22.4226 17.7099 21.6289 17.3481 20.7553C16.9862 19.8818 16.8 18.9455 16.8 18C16.8 17.0545 16.9862 16.1182 17.3481 15.2447C17.7099 14.3711 18.2402 13.5774 18.9088 12.9088C19.5774 12.2402 20.3711 11.7099 21.2447 11.3481C22.1182 10.9862 23.0545 10.8 24 10.8C25.9096 10.8 27.7409 11.5586 29.0912 12.9088C30.4414 14.2591 31.2 16.0904 31.2 18C31.2 19.9096 30.4414 21.7409 29.0912 23.0912C27.7409 24.4414 25.9096 25.2 24 25.2Z" fill="url(#paint1_linear)"/>
<defs>
<linearGradient id="paint0_linear" x1="12.8105" y1="-14.1215" x2="47.4501" y2="50.187" gradientUnits="userSpaceOnUse">
<stop stop-color="#FF3948"/>
<stop offset="1" stop-color="#FF820E"/>
</linearGradient>
<linearGradient id="paint1_linear" x1="12.8105" y1="-14.1215" x2="47.4501" y2="50.187" gradientUnits="userSpaceOnUse">
<stop stop-color="#FF3948"/>
<stop offset="1" stop-color="#FF820E"/>
</linearGradient>
</defs>
</svg>
