<svg width="48" height="48" viewBox="0 0 48 48" fill="none" xmlns="http://www.w3.org/2000/svg">
<path fill-rule="evenodd" clip-rule="evenodd" d="M33.6 1.2H14.4C7.10984 1.2 1.2 7.10984 1.2 14.4V33.6C1.2 40.8902 7.10984 46.8 14.4 46.8H33.6C40.8902 46.8 46.8 40.8902 46.8 33.6V14.4C46.8 7.10984 40.8902 1.2 33.6 1.2ZM14.4 0C6.4471 0 0 6.4471 0 14.4V33.6C0 41.5529 6.4471 48 14.4 48H33.6C41.5529 48 48 41.5529 48 33.6V14.4C48 6.4471 41.5529 0 33.6 0H14.4Z" fill="url(#paint0_linear)"/>
<path fill-rule="evenodd" clip-rule="evenodd" d="M10.8 13.2C10.8 12.5373 11.3373 12 12 12H36C36.6627 12 37.2 12.5373 37.2 13.2V34.8C37.2 35.4627 36.6627 36 36 36H12C11.3373 36 10.8 35.4627 10.8 34.8V13.2ZM15.6 17.9244L17.0139 17.385C19.0587 16.605 21.305 16.605 23.3497 17.385L24 17.6331L24.6503 17.385C26.695 16.605 28.9413 16.605 30.9861 17.385L32.4 17.9244V31.2L29.9301 30.2578C28.5669 29.7377 27.0694 29.7377 25.7062 30.2578L24 30.9087L22.2938 30.2578C20.9306 29.7377 19.4331 29.7377 18.0699 30.2578L15.6 31.2V17.9244ZM23.2364 19.0272L22.8218 18.869C21.1178 18.2189 19.2459 18.2189 17.5419 18.869L17.1273 19.0272V28.932L17.5419 28.7738C17.9062 28.6349 18.2782 28.5256 18.6545 28.446C19.6622 28.233 20.7014 28.233 21.7091 28.446C22.0855 28.5256 22.4574 28.6349 22.8218 28.7738L23.2364 28.932V19.0272ZM24.7636 19.0272L25.1783 18.869C26.8822 18.2189 28.7541 18.2189 30.4581 18.869L30.8727 19.0272V28.932L30.4581 28.7738C30.0938 28.6349 29.7218 28.5256 29.3455 28.446C28.3378 28.233 27.2986 28.233 26.2909 28.446C25.9145 28.5256 25.5426 28.6349 25.1783 28.7738L24.7636 28.932V19.0272ZM12.9 15C13.3971 15 13.8 14.5971 13.8 14.1C13.8 13.6029 13.3971 13.2 12.9 13.2C12.4029 13.2 12 13.6029 12 14.1C12 14.5971 12.4029 15 12.9 15ZM16.8 14.1C16.8 14.5971 16.3971 15 15.9 15C15.4029 15 15 14.5971 15 14.1C15 13.6029 15.4029 13.2 15.9 13.2C16.3971 13.2 16.8 13.6029 16.8 14.1ZM18.9 15C19.3971 15 19.8 14.5971 19.8 14.1C19.8 13.6029 19.3971 13.2 18.9 13.2C18.4029 13.2 18 13.6029 18 14.1C18 14.5971 18.4029 15 18.9 15Z" fill="url(#paint1_linear)"/>
<defs>
<linearGradient id="paint0_linear" x1="4.2" y1="45.6" x2="43.2" y2="9.00775e-07" gradientUnits="userSpaceOnUse">
<stop stop-color="#CE59E1"/>
<stop offset="1" stop-color="#8E54E9"/>
</linearGradient>
<linearGradient id="paint1_linear" x1="4.2" y1="45.6" x2="43.2" y2="9.00775e-07" gradientUnits="userSpaceOnUse">
<stop stop-color="#CE59E1"/>
<stop offset="1" stop-color="#8E54E9"/>
</linearGradient>
</defs>
</svg>
