<svg width="48" height="48" viewBox="0 0 48 48" fill="none" xmlns="http://www.w3.org/2000/svg">
<path fill-rule="evenodd" clip-rule="evenodd" d="M33.6 1.2H14.4C7.10984 1.2 1.2 7.10984 1.2 14.4V33.6C1.2 40.8902 7.10984 46.8 14.4 46.8H33.6C40.8902 46.8 46.8 40.8902 46.8 33.6V14.4C46.8 7.10984 40.8902 1.2 33.6 1.2ZM14.4 0C6.4471 0 0 6.4471 0 14.4V33.6C0 41.5529 6.4471 48 14.4 48H33.6C41.5529 48 48 41.5529 48 33.6V14.4C48 6.4471 41.5529 0 33.6 0H14.4Z" fill="url(#paint0_linear)"/>
<path d="M25.6092 14.4C25.1551 15.6819 25.0734 17.0663 25.3735 18.3927C25.6736 19.7192 26.3432 20.9335 27.3048 21.8952C28.2665 22.8568 29.4808 23.5264 30.8073 23.8265C32.1337 24.1266 33.5181 24.0449 34.8 23.5908V34.8C34.8 35.1183 34.6736 35.4235 34.4485 35.6485C34.2235 35.8736 33.9183 36 33.6 36H14.4C14.0817 36 13.7765 35.8736 13.5515 35.6485C13.3264 35.4235 13.2 35.1183 13.2 34.8V15.6C13.2 15.2817 13.3264 14.9765 13.5515 14.7515C13.7765 14.5264 14.0817 14.4 14.4 14.4H25.6092ZM32.4 21.6C31.127 21.6 29.9061 21.0943 29.0059 20.1941C28.1057 19.2939 27.6 18.073 27.6 16.8C27.6 15.527 28.1057 14.3061 29.0059 13.4059C29.9061 12.5057 31.127 12 32.4 12C33.673 12 34.8939 12.5057 35.7941 13.4059C36.6943 14.3061 37.2 15.527 37.2 16.8C37.2 18.073 36.6943 19.2939 35.7941 20.1941C34.8939 21.0943 33.673 21.6 32.4 21.6Z" fill="url(#paint1_linear)"/>
<defs>
<linearGradient id="paint0_linear" x1="3.6" y1="45.6" x2="44.1905" y2="4.95238" gradientUnits="userSpaceOnUse">
<stop stop-color="#FA8953"/>
<stop offset="1" stop-color="#F8E56C"/>
</linearGradient>
<linearGradient id="paint1_linear" x1="3.6" y1="45.6" x2="44.1905" y2="4.95238" gradientUnits="userSpaceOnUse">
<stop stop-color="#FA8953"/>
<stop offset="1" stop-color="#F8E56C"/>
</linearGradient>
</defs>
</svg>
