<svg width="48" height="48" viewBox="0 0 48 48" fill="none" xmlns="http://www.w3.org/2000/svg">
<path fill-rule="evenodd" clip-rule="evenodd" d="M33.6 1.2H14.4C7.10984 1.2 1.2 7.10984 1.2 14.4V33.6C1.2 40.8902 7.10984 46.8 14.4 46.8H33.6C40.8902 46.8 46.8 40.8902 46.8 33.6V14.4C46.8 7.10984 40.8902 1.2 33.6 1.2ZM14.4 0C6.4471 0 0 6.4471 0 14.4V33.6C0 41.5529 6.4471 48 14.4 48H33.6C41.5529 48 48 41.5529 48 33.6V14.4C48 6.4471 41.5529 0 33.6 0H14.4Z" fill="url(#paint0_linear)"/>
<path fill-rule="evenodd" clip-rule="evenodd" d="M14.1396 12.9912L24 10.8L33.8604 12.9912C34.1269 13.0504 34.3652 13.1988 34.536 13.4117C34.7068 13.6246 34.8 13.8894 34.8 14.1624V26.1468C34.7999 27.3321 34.5072 28.499 33.9479 29.544C33.3885 30.589 32.5798 31.4798 31.5936 32.1372L24 37.2L16.4064 32.1372C15.4203 31.4799 14.6118 30.5893 14.0524 29.5445C13.4931 28.4998 13.2003 27.3331 13.2 26.148V14.1624C13.2 13.8894 13.2932 13.6246 13.464 13.4117C13.6348 13.1988 13.8731 13.0504 14.1396 12.9912ZM24 27.6C26.651 27.6 28.8 25.451 28.8 22.8C28.8 20.149 26.651 18 24 18C21.349 18 19.2 20.149 19.2 22.8C19.2 25.451 21.349 27.6 24 27.6ZM24 28.8C27.3137 28.8 30 26.1137 30 22.8C30 19.4863 27.3137 16.8 24 16.8C20.6863 16.8 18 19.4863 18 22.8C18 26.1137 20.6863 28.8 24 28.8ZM22.2 22.8C22.2 21.8059 23.0059 21 24 21C24.533 21 25.0114 21.2309 25.3418 21.6001L26.236 20.7999C25.6875 20.1871 24.8886 19.8 24 19.8C22.3431 19.8 21 21.1431 21 22.8C21 24.4569 22.3431 25.8 24 25.8C24.8886 25.8 25.6875 25.4129 26.236 24.8001L25.3418 23.9999C25.0114 24.3691 24.533 24.6 24 24.6C23.0059 24.6 22.2 23.7941 22.2 22.8Z" fill="url(#paint1_linear)"/>
<defs>
<linearGradient id="paint0_linear" x1="4.8" y1="43.8" x2="44.4" y2="6.6" gradientUnits="userSpaceOnUse">
<stop stop-color="#EC008C"/>
<stop offset="1" stop-color="#FC6767"/>
</linearGradient>
<linearGradient id="paint1_linear" x1="4.8" y1="43.8" x2="44.4" y2="6.6" gradientUnits="userSpaceOnUse">
<stop stop-color="#EC008C"/>
<stop offset="1" stop-color="#FC6767"/>
</linearGradient>
</defs>
</svg>
