<svg width="48" height="48" viewBox="0 0 48 48" fill="none" xmlns="http://www.w3.org/2000/svg">
<path fill-rule="evenodd" clip-rule="evenodd" d="M33.6 1.2H14.4C7.10984 1.2 1.2 7.10984 1.2 14.4V33.6C1.2 40.8902 7.10984 46.8 14.4 46.8H33.6C40.8902 46.8 46.8 40.8902 46.8 33.6V14.4C46.8 7.10984 40.8902 1.2 33.6 1.2ZM14.4 0C6.4471 0 0 6.4471 0 14.4V33.6C0 41.5529 6.4471 48 14.4 48H33.6C41.5529 48 48 41.5529 48 33.6V14.4C48 6.4471 41.5529 0 33.6 0H14.4Z" fill="url(#paint0_linear)"/>
<path fill-rule="evenodd" clip-rule="evenodd" d="M25.2 37.2H33.6V33.6C33.6 32.0087 32.9679 30.4826 31.8426 29.3574C30.7174 28.2321 29.1913 27.6 27.6 27.6H20.4C18.8087 27.6 17.2826 28.2321 16.1574 29.3574C15.0321 30.4826 14.4 32.0087 14.4 33.6V37.2H22.8V31.2H25.2V37.2ZM21.2447 24.6519C22.1182 25.0138 23.0545 25.2 24 25.2C25.9096 25.2 27.7409 24.4414 29.0912 23.0912C30.4414 21.7409 31.2 19.9096 31.2 18C31.2 16.0904 30.4414 14.2591 29.0912 12.9088C27.7409 11.5586 25.9096 10.8 24 10.8C23.0545 10.8 22.1182 10.9862 21.2447 11.3481C20.3711 11.7099 19.5774 12.2402 18.9088 12.9088C18.2402 13.5774 17.7099 14.3711 17.3481 15.2447C16.9862 16.1182 16.8 17.0545 16.8 18C16.8 18.9455 16.9862 19.8818 17.3481 20.7553C17.7099 21.6289 18.2402 22.4226 18.9088 23.0912C19.5774 23.7598 20.3711 24.2901 21.2447 24.6519Z" fill="url(#paint1_linear)"/>
<defs>
<linearGradient id="paint0_linear" x1="12.8105" y1="-14.1215" x2="47.4501" y2="50.187" gradientUnits="userSpaceOnUse">
<stop stop-color="#FF3948"/>
<stop offset="1" stop-color="#FF820E"/>
</linearGradient>
<linearGradient id="paint1_linear" x1="12.8105" y1="-14.1215" x2="47.4501" y2="50.187" gradientUnits="userSpaceOnUse">
<stop stop-color="#FF3948"/>
<stop offset="1" stop-color="#FF820E"/>
</linearGradient>
</defs>
</svg>
