<svg width="21" height="23" viewBox="0 0 21 23" fill="none" xmlns="http://www.w3.org/2000/svg">
<path d="M18.6318 2.23963C18.0826 1.71411 15.8596 0.0387309 10.9033 0.0162727C10.9033 0.0162727 5.0605 -0.347549 2.21476 2.36539C0.631874 4.00933 0.0739711 6.42133 0.0134235 9.40826C-0.0471241 12.3952 -0.120646 17.9917 5.07347 19.5099H5.0778L5.07347 21.8276C5.07347 21.8276 5.03888 22.7663 5.6357 22.955C6.35362 23.1886 6.77746 22.4744 7.4651 21.7063C7.84136 21.2841 8.36034 20.6643 8.7539 20.1926C12.3089 20.5026 15.0379 19.7929 15.3493 19.6896C16.0672 19.447 20.1282 18.908 20.7856 13.3115C21.4689 7.53525 20.4569 3.88805 18.6318 2.23963ZM19.233 12.8893C18.6751 17.5606 15.3839 17.857 14.7784 18.0591C14.5189 18.1445 12.1186 18.7643 9.10421 18.5622C9.10421 18.5622 6.8553 21.3784 6.15468 22.1106C5.92547 22.3486 5.67462 22.3262 5.67895 21.8545C5.67895 21.5446 5.69625 18.0052 5.69625 18.0052C5.69192 18.0052 5.69192 18.0052 5.69625 18.0052C1.29357 16.7386 1.55306 11.973 1.60064 9.48012C1.64821 6.98727 2.10232 4.94358 3.44301 3.56915C5.85194 1.30088 10.8125 1.63775 10.8125 1.63775C15.0033 1.65572 17.01 2.96727 17.4771 3.40745C19.021 4.78188 19.8082 8.06975 19.233 12.8893ZM13.2215 9.26003C13.2388 9.64631 12.6808 9.67326 12.6635 9.28698C12.616 8.29883 12.1705 7.81822 11.2537 7.76432C10.8817 7.74186 10.9163 7.16245 11.2839 7.1849C12.4906 7.25228 13.1609 7.97094 13.2215 9.26003ZM14.0994 9.76759C14.1426 7.86314 12.9966 6.37192 10.8212 6.20573C10.4536 6.17878 10.4925 5.59936 10.8601 5.62631C13.3685 5.81496 14.7049 7.60712 14.6573 9.78106C14.653 10.1673 14.0907 10.1494 14.0994 9.76759ZM16.1321 10.3695C16.1364 10.7557 15.5742 10.7602 15.5742 10.374C15.5482 6.71328 13.1998 4.719 10.3498 4.69654C9.98215 4.69205 9.98215 4.11712 10.3498 4.11712C13.5372 4.13958 16.1018 6.42582 16.1321 10.3695ZM15.6434 14.7757V14.7847C15.1763 15.6381 14.3027 16.5814 13.4031 16.2804L13.3944 16.267C12.4819 16.002 10.3325 14.8521 8.97447 13.7292C8.27385 13.1543 7.63377 12.476 7.14074 11.8247C6.69528 11.2453 6.2455 10.5581 5.80869 9.73165C4.88751 8.00238 4.68424 7.22982 4.68424 7.22982C4.39448 6.29556 5.29836 5.38825 6.12441 4.90316H6.13306C6.53094 4.68756 6.91153 4.75943 7.16669 5.07833C7.16669 5.07833 7.70297 5.74309 7.93219 6.07098C8.14843 6.37641 8.43819 6.866 8.58956 7.13999C8.85337 7.62957 8.68903 8.12814 8.42954 8.33476L7.91056 8.76595C7.64675 8.98604 7.68135 9.39478 7.68135 9.39478C7.68135 9.39478 8.45117 12.4176 11.3272 13.1812C11.3272 13.1812 11.7207 13.2172 11.9327 12.9432L12.3478 12.4042C12.5468 12.1347 13.0268 11.964 13.4982 12.238C14.134 12.6108 14.9427 13.1902 15.479 13.7157C15.7818 13.9717 15.8509 14.3625 15.6434 14.7757Z" fill="white"/>
</svg>
